<?xml version="1.0" encoding="UTF-8" standalone="no"?>
<!DOCTYPE svg PUBLIC "-//W3C//DTD SVG 1.1//EN" "http://www.w3.org/Graphics/SVG/1.1/DTD/svg11.dtd">
<svg width="100%" height="100%" viewBox="0 0 2025 781" version="1.1" xmlns="http://www.w3.org/2000/svg" xmlns:xlink="http://www.w3.org/1999/xlink" xml:space="preserve" xmlns:serif="http://www.serif.com/" style="fill-rule:evenodd;clip-rule:evenodd;stroke-linejoin:round;stroke-miterlimit:2;">
    <g id="Vrstva-1" serif:id="Vrstva 1" transform="matrix(4.16667,0,0,4.16667,0,0)">
        <g transform="matrix(0,1,1,0,96.4101,29.0945)">
            <path d="M68.478,-68.478C30.72,-68.478 -0,-37.758 -0,-0.003C-0,37.757 30.72,68.478 68.478,68.478C106.236,68.478 136.956,37.757 136.956,-0.003C136.956,-37.758 106.236,-68.478 68.478,-68.478" style="fill:#0d9534;fill-rule:nonzero;"/>
        </g>
        <g transform="matrix(1,0,0,1,103.402,108.241)">
            <path d="M0,-16.04C-3.378,-16.173 -6.08,-16.379 -9.276,-17.137C-1.51,-25.444 13.186,-30.629 23.052,-29.688C26.263,-29.378 29.817,-27.733 30.37,-26.268C26.715,-21.124 11.458,-15.609 0,-16.04M38.821,-36.187C33.58,-45.638 15.334,-44.399 2.334,-39.361C-9.323,-34.839 -17.411,-27.807 -22.935,-22.494C-32.069,-26.392 -36.644,-33.705 -35.295,-42.698C-35.038,-44.429 -34.035,-47.135 -32.919,-49.205L-38.538,-53.215C-45.147,-48.443 -49.55,-40.502 -49.55,-33.971C-49.55,-25.747 -43.194,-17.031 -31.612,-11.177C-35.16,-5.962 -37.443,-1.061 -38.808,4.181C-40.951,12.441 -39.591,19.952 -34.878,25.907C-29.144,33.158 -19.147,37.175 -7.454,36.925C-2.39,36.824 8.234,34.683 14.183,31.065L12.547,25.578C11.25,25.624 5.495,27.624 -1.996,26.94C-11.808,26.052 -22.755,20.208 -23.576,8.933C-24.032,2.605 -21.776,-2.109 -19.368,-6.307C-15.397,-5.274 -10.858,-4.714 -6.414,-4.396C12.523,-3.057 28.981,-9.826 35.891,-20.66L35.846,-20.711C39.217,-25.792 40.979,-32.346 38.821,-36.187" style="fill:white;fill-rule:nonzero;"/>
        </g>
        <g transform="matrix(1,0,0,1,90.4907,49.9657)">
            <path d="M0,21.303C5.871,21.303 10.661,16.532 10.661,10.668C10.661,4.763 5.871,0 0,0C-5.881,0 -10.646,4.763 -10.646,10.668C-10.646,16.532 -5.881,21.303 0,21.303" style="fill:rgb(233,42,58);fill-rule:nonzero;"/>
        </g>
        <g transform="matrix(1,0,0,1,213.63,61.4636)">
            <path d="M0,8.791L-6.818,8.791C-9.448,8.791 -11.091,10.27 -11.091,12.324C-11.091,14.295 -9.612,16.02 -6.654,16.02C-4.026,16.02 -2.793,15.774 -1.315,14.377C-0.328,13.473 0,12.075 0,9.94L0,8.791ZM0.328,26.536L0.328,22.92C-2.382,25.632 -4.847,26.946 -9.53,26.946C-13.966,26.946 -17.662,25.467 -20.127,23.003C-22.674,20.456 -23.988,16.759 -23.988,12.652C-23.988,5.998 -19.47,-0.163 -8.954,-0.163L0,-0.163L0,-1.314C0,-5.339 -1.971,-6.818 -6.654,-6.818C-10.105,-6.818 -11.583,-5.996 -13.72,-3.861L-22.099,-12.24C-17.581,-16.758 -13.473,-18.155 -5.998,-18.155C6.655,-18.155 13.473,-12.898 13.473,-2.135L13.473,26.536L0.328,26.536Z" style="fill:#0d9534;fill-rule:nonzero;"/>
        </g>
        <g transform="matrix(1,0,0,1,247.311,29.5072)">
            <path d="M0,58.492C-9.775,58.492 -13.719,51.509 -13.719,45.429L-13.719,0L-0.245,0L-0.245,44.444C-0.245,46.169 0.659,47.155 2.466,47.155L7.147,47.155L7.147,58.492L0,58.492Z" style="fill:#0d9534;fill-rule:nonzero;"/>
        </g>
        <g transform="matrix(1,0,0,1,278.527,90.134)">
            <path d="M0,-34.667C-5.009,-34.667 -5.585,-30.642 -5.585,-24.233C-5.585,-17.826 -5.009,-13.8 0,-13.8C5.012,-13.8 5.59,-17.826 5.59,-24.233C5.59,-30.642 5.012,-34.667 0,-34.667M14.953,-5.667C12.406,-3.121 8.544,-1.642 4.271,-1.642C-0.081,-1.642 -3.121,-2.875 -5.585,-5.339L-5.585,12.159L-19.057,12.159L-19.057,-46.332L-5.996,-46.332L-5.996,-42.717C-3.285,-45.428 -0.41,-46.826 4.189,-46.826C8.463,-46.826 12.406,-45.347 14.953,-42.8C19.309,-38.446 19.061,-30.725 19.061,-24.233C19.061,-17.744 19.309,-10.021 14.953,-5.667" style="fill:#0d9534;fill-rule:nonzero;"/>
        </g>
        <g transform="matrix(1,0,0,1,326.261,29.5072)">
            <path d="M0,58.492L0,31.71C0,26.946 -3.451,25.96 -5.18,25.96C-6.902,25.96 -10.353,26.946 -10.353,31.71L-10.353,58.492L-23.826,58.492L-23.826,0L-10.353,0L-10.353,17.909C-7.561,15.116 -4.028,13.801 -0.659,13.801C8.871,13.801 13.471,20.867 13.471,29.821L13.471,58.492L0,58.492Z" style="fill:#0d9534;fill-rule:nonzero;"/>
        </g>
        <g transform="matrix(1,0,0,1,369.8,73.9508)">
            <path d="M0,-16.101C-0.822,-17.992 -2.629,-19.551 -5.834,-19.551C-9.037,-19.551 -10.845,-17.992 -11.665,-16.101C-12.239,-14.952 -12.403,-13.72 -12.403,-12.651L0.739,-12.651C0.739,-13.72 0.572,-14.952 0,-16.101M-12.403,-3.696C-12.403,-0.081 -9.611,3.204 -4.601,3.204C0.08,3.204 2.136,1.89 4.519,-0.493L12.569,7.559C8.051,12.077 3.614,14.541 -4.601,14.541C-14.379,14.541 -25.632,11.008 -25.632,-8.051C-25.632,-22.51 -17.419,-30.642 -5.834,-30.642C6.981,-30.642 14.047,-21.277 14.047,-9.693L14.047,-3.696L-12.403,-3.696Z" style="fill:#0d9534;fill-rule:nonzero;"/>
        </g>
        <g transform="matrix(1,0,0,1,406.685,90.628)">
            <path d="M0,-35.161C-4.929,-35.161 -5.258,-30.889 -5.258,-26.37C-5.258,-21.853 -4.929,-17.581 0,-17.581C4.929,-17.581 5.257,-21.853 5.257,-26.37C5.257,-30.889 4.929,-35.161 0,-35.161M-1.233,12.159C-8.135,12.159 -13.308,10.925 -17.826,6.407L-9.447,-1.972C-7.393,0.082 -4.929,0.821 -1.89,0.821C3.781,0.821 5.257,-3.039 5.257,-5.915L5.257,-9.118C2.795,-6.655 -0.164,-5.421 -4.271,-5.421C-8.544,-5.421 -12.077,-6.819 -14.622,-9.366C-18.649,-13.39 -18.731,-18.32 -18.731,-26.37C-18.731,-34.421 -18.649,-39.35 -14.622,-43.376C-12.077,-45.922 -8.463,-47.32 -4.188,-47.32C0.33,-47.32 2.958,-45.922 5.667,-43.211L5.667,-46.826L18.73,-46.826L18.73,-5.833C18.73,4.6 10.846,12.159 -1.233,12.159" style="fill:#0d9534;fill-rule:nonzero;"/>
        </g>
        <g transform="matrix(1,0,0,1,453.347,61.4636)">
            <path d="M0,8.791L-6.819,8.791C-9.448,8.791 -11.092,10.27 -11.092,12.324C-11.092,14.295 -9.612,16.02 -6.652,16.02C-4.026,16.02 -2.793,15.774 -1.316,14.377C-0.327,13.473 0,12.075 0,9.94L0,8.791ZM0.328,26.536L0.328,22.92C-2.382,25.632 -4.85,26.946 -9.53,26.946C-13.964,26.946 -17.662,25.467 -20.128,23.003C-22.676,20.456 -23.988,16.759 -23.988,12.652C-23.988,5.998 -19.472,-0.163 -8.956,-0.163L0,-0.163L0,-1.314C0,-5.339 -1.973,-6.818 -6.652,-6.818C-10.104,-6.818 -11.584,-5.996 -13.719,-3.861L-22.099,-12.24C-17.579,-16.758 -13.472,-18.155 -5.997,-18.155C6.653,-18.155 13.473,-12.898 13.473,-2.135L13.473,26.536L0.328,26.536Z" style="fill:#0d9534;fill-rule:nonzero;"/>
        </g>
        <g transform="matrix(1,0,0,1,198.871,104.961)">
            <path d="M0,46.583C-5.627,46.583 -8.18,42.919 -8.18,38.013L-8.18,0L-3.468,0L-3.468,37.815C-3.468,40.956 -2.421,42.527 0.85,42.527L3.402,42.527L3.402,46.583L0,46.583Z" style="fill:#0d9534;fill-rule:nonzero;"/>
        </g>
        <g transform="matrix(1,0,0,1,220.788,141.924)">
            <path d="M0,-29.244L-4.318,-29.244L1.44,-39.254L7.066,-39.254L0,-29.244ZM6.216,-14.131C4.973,-17.075 2.093,-18.972 -1.307,-18.972C-4.709,-18.972 -7.588,-17.075 -8.832,-14.131C-9.552,-12.363 -9.683,-11.383 -9.814,-8.765L7.197,-8.765C7.066,-11.383 6.936,-12.363 6.216,-14.131M-9.814,-5.232C-9.814,1.835 -6.477,5.891 -0.327,5.891C3.402,5.891 5.562,4.778 8.113,2.226L11.318,5.039C8.047,8.311 5.038,10.01 -0.457,10.01C-8.963,10.01 -14.524,4.91 -14.524,-6.476C-14.524,-16.879 -9.487,-22.963 -1.307,-22.963C7.001,-22.963 11.908,-16.944 11.908,-7.391L11.908,-5.232L-9.814,-5.232Z" style="fill:#0d9534;fill-rule:nonzero;"/>
        </g>
        <g transform="matrix(1,0,0,1,261.678,104.961)">
            <path d="M0,46.583L-10.206,30.096L-16.485,37.292L-16.485,46.583L-21.197,46.583L-21.197,0L-16.485,0L-16.485,31.142L-1.961,14.393L3.926,14.393L-6.999,26.692L5.824,46.583L0,46.583Z" style="fill:#0d9534;fill-rule:nonzero;"/>
        </g>
        <g transform="matrix(1,0,0,1,285.036,141.924)">
            <path d="M0,-29.244L-4.317,-29.244L1.439,-39.254L7.067,-39.254L0,-29.244ZM6.543,-5.232L-2.486,-5.232C-7.327,-5.232 -9.684,-3.269 -9.684,0.46C-9.684,4.189 -7.393,5.956 -2.291,5.956C0.458,5.956 2.88,5.759 4.908,3.796C6.021,2.749 6.543,0.917 6.543,-1.764L6.543,-5.232ZM6.543,9.62L6.543,6.545C3.925,9.162 1.569,10.01 -2.746,10.01C-7.196,10.01 -9.812,9.162 -11.841,7.068C-13.414,5.498 -14.263,3.077 -14.263,0.526C-14.263,-5.101 -10.336,-8.765 -3.14,-8.765L6.543,-8.765L6.543,-11.84C6.543,-16.551 4.187,-18.907 -1.699,-18.907C-5.823,-18.907 -7.916,-17.924 -9.812,-15.242L-13.019,-18.187C-10.14,-21.916 -6.869,-22.963 -1.634,-22.963C7.001,-22.963 11.253,-19.234 11.253,-12.233L11.253,9.62L6.543,9.62Z" style="fill:#0d9534;fill-rule:nonzero;"/>
        </g>
        <g transform="matrix(1,0,0,1,323.507,145.001)">
            <path d="M0,-19.496C-1.768,-21.263 -3.077,-21.851 -5.563,-21.851C-10.273,-21.851 -13.281,-18.122 -13.281,-13.215L-13.281,6.543L-17.993,6.543L-17.993,-25.646L-13.281,-25.646L-13.281,-21.721C-11.516,-24.403 -7.983,-26.039 -4.255,-26.039C-1.177,-26.039 1.178,-25.319 3.467,-23.03L0,-19.496Z" style="fill:#0d9534;fill-rule:nonzero;"/>
        </g>
        <g transform="matrix(1,0,0,1,351.442,118.961)">
            <path d="M0,32.583L0,12.758C0,7.067 -3.075,4.187 -7.917,4.187C-12.759,4.187 -15.898,7.132 -15.898,12.758L-15.898,32.583L-20.608,32.583L-20.608,0.393L-15.898,0.393L-15.898,3.926C-13.608,1.309 -10.468,0 -6.87,0C-3.4,0 -0.589,1.047 1.375,3.01C3.664,5.234 4.71,8.245 4.71,11.973L4.71,32.583L0,32.583Z" style="fill:#0d9534;fill-rule:nonzero;"/>
        </g>
        <g transform="matrix(1,0,0,1,383.631,134.204)">
            <path d="M0,2.488L-9.027,2.488C-13.869,2.488 -16.226,4.451 -16.226,8.18C-16.226,11.909 -13.936,13.676 -8.831,13.676C-6.085,13.676 -3.664,13.479 -1.635,11.517C-0.522,10.469 0,8.637 0,5.957L0,2.488ZM0,17.341L0,14.265C-2.616,16.882 -4.97,17.731 -9.29,17.731C-13.739,17.731 -16.355,16.882 -18.384,14.788C-19.954,13.218 -20.806,10.798 -20.806,8.246C-20.806,2.619 -16.882,-1.045 -9.684,-1.045L0,-1.045L0,-4.119C0,-8.831 -2.354,-11.186 -8.246,-11.186C-12.364,-11.186 -14.461,-10.204 -16.355,-7.522L-19.562,-10.467C-16.684,-14.195 -13.411,-15.243 -8.179,-15.243C0.459,-15.243 4.712,-11.513 4.712,-4.513L4.712,17.341L0,17.341Z" style="fill:#0d9534;fill-rule:nonzero;"/>
        </g>
    </g>
</svg>
