<?xml version="1.0" encoding="utf-8"?>
<!-- Generator: Adobe Illustrator 27.1.1, SVG Export Plug-In . SVG Version: 6.00 Build 0)  -->
<svg version="1.1" id="Vrstva_1" xmlns="http://www.w3.org/2000/svg" xmlns:xlink="http://www.w3.org/1999/xlink" x="0px" y="0px"
	 viewBox="0 0 1129.7 241" style="enable-background:new 0 0 1129.7 241;" xml:space="preserve">
<style type="text/css">
	.st0{fill:#1369A8;}
	.st1{fill:#084D86;}
	.st2{fill:#FFFFFF;}
	.st3{fill:#DB1418;}
	.st4{fill:#1A61A1;}
	.st5{fill:#DEA35B;}
</style>
<ellipse class="st0" cx="317.5" cy="118.8" rx="2" ry="99.5"/>
<g>
	<g>
		<path class="st1" d="M410.1,20.6h83v28.5h-51.6v55.6h40.5v28.5h-40.5v87h-31.4V20.6z"/>
		<path class="st1" d="M514.4,20.6h42.5l32.5,199.6h-31.4l-5.7-39.6v0.6h-35.6l-5.7,39.1h-29.1L514.4,20.6z M548.7,154l-14-98.6
			h-0.6L520.4,154H548.7z"/>
		<path class="st1" d="M595.7,20.6H635l30.5,119.5h0.6V20.6h27.9v199.6h-32.2L624.2,74.5h-0.6v145.7h-27.9V20.6z"/>
		<path class="st1" d="M714.9,210.1c-7.8-8.6-11.7-21-11.7-37.2v-11.4h29.7v13.7c0,12.9,5.4,19.4,16.3,19.4c5.3,0,9.4-1.6,12.1-4.7
			c2.8-3.1,4.1-8.2,4.1-15.3c0-8.4-1.9-15.7-5.7-22.1c-3.8-6.4-10.8-14-21.1-23c-12.9-11.4-22-21.7-27.1-30.9
			c-5.1-9.2-7.7-19.6-7.7-31.2c0-15.8,4-28,12-36.6c8-8.6,19.6-13,34.8-13c15,0,26.4,4.3,34.1,13c7.7,8.7,11.5,21.1,11.5,37.2v8.3
			h-29.7V65.9c0-6.8-1.3-11.8-4-15c-2.7-3.1-6.6-4.7-11.7-4.7c-10.5,0-15.7,6.4-15.7,19.1c0,7.2,1.9,14,5.8,20.2
			c3.9,6.3,11,13.9,21.2,22.8c13.1,11.4,22.1,21.8,27.1,31.1c4.9,9.3,7.4,20.2,7.4,32.8c0,16.3-4,28.9-12.1,37.6
			c-8.1,8.7-19.8,13.1-35.2,13.1C734.2,223,722.7,218.7,714.9,210.1z"/>
		<path class="st1" d="M805.8,20.6h31.4v81.3h33.6V20.6h31.4v199.6h-31.4v-89.8h-33.6v89.8h-31.4V20.6z"/>
		<path class="st1" d="M926.7,209.9c-8.2-8.7-12.3-21.1-12.3-37.1V67.9c0-16,4.1-28.3,12.3-37.1c8.2-8.7,20-13.1,35.4-13.1
			c15.4,0,27.2,4.4,35.4,13.1c8.2,8.7,12.3,21.1,12.3,37.1v104.9c0,16-4.1,28.3-12.3,37.1c-8.2,8.7-20,13.1-35.4,13.1
			C946.7,223,934.9,218.7,926.7,209.9z M978.3,174.9V65.9c0-13.1-5.4-19.7-16.3-19.7s-16.3,6.6-16.3,19.7v108.9
			c0,13.1,5.4,19.7,16.3,19.7S978.3,188,978.3,174.9z"/>
		<path class="st1" d="M1021.9,20.6h46.2c15.6,0,27.3,4.2,35.1,12.5c7.8,8.4,11.7,20.6,11.7,36.8v19.7c0,16.2-3.9,28.4-11.7,36.8
			c-7.8,8.4-19.5,12.5-35.1,12.5h-14.8v81.3h-31.4V20.6z M1068.1,110.4c5.1,0,9-1.4,11.5-4.3c2.6-2.9,3.8-7.7,3.8-14.5V67.9
			c0-6.8-1.3-11.7-3.8-14.5c-2.6-2.9-6.4-4.3-11.5-4.3h-14.8v61.3H1068.1z"/>
	</g>
</g>
<g>
	<path class="st2" d="M74.1,188.4c-6.8-6.4-11.7-12.8-15-19.8c-1-2.2-1.9-4.3-2.7-6.4l-0.3-0.9L188.7,32.8L212.6,56L75.1,189.3
		L74.1,188.4z"/>
	<path class="st3" d="M54.2,155.4c-3.2-11.3-3.5-21.9-3.8-31.2c-0.6-18.8-1.2-38.3-22.1-61.1l-0.9-1l36.4-35.3l0.9,0.6
		c17.6,10.6,37.8,16.2,58.4,16.2s40.8-5.6,58.4-16.2l0.9-0.6l3.7,3.6L54.9,157.7L54.2,155.4z"/>
	<path class="st4" d="M122.5,220.1c-15.3-8.5-31.2-17.3-43.6-27.5l-1.2-1L215.1,58.4l3.9,3.7l-0.9,1c-20.9,22.8-21.5,42.2-22.1,61.1
		c-0.4,13.6-0.9,27.7-8.7,44.3c-10.5,22.4-36.2,36.6-63.4,51.6l-0.7,0.4L122.5,220.1z"/>
	<g>
		<path class="st4" d="M76.2,166.2l3.7,3.8l1.3-1.2c1.1-1.1,0.5-2.2-0.5-3.3c-1.2-1.3-2.3-1.4-3.3-0.5L76.2,166.2z M74.4,164.4
			l0.8-0.8c1-1,1.3-1.8-0.1-3.2c-1.4-1.4-2-1.1-3,0l-0.8,0.8L74.4,164.4z M71.2,157.6c2.3-2.2,4.2-1.6,5.8,0c1.7,1.8,1.8,3,1.2,4.4
			c1.4-1.1,2.9-0.6,4.7,1.1c1.9,2,2.8,4.6,0.6,6.7l-4.3,4.2l-12.1-12.5L71.2,157.6z"/>
		<path class="st4" d="M84.3,151.3l-2.1-1.7l0,0l1.7,2.1l3.2,5l2-1.9L84.3,151.3z M82.6,146.6l14.9,9.8l-2.5,2.4l-3.6-2.6l-2.7,2.6
			l2.4,3.8l-2.4,2.4l-9.2-15.4L82.6,146.6z"/>
		<path class="st4" d="M90,139.5l8.2,3.8l4.7,2.5c-2.8-2.5-5.2-4.6-7.1-6.5l-2.7-2.8l2.3-2.3l12.1,12.5l-2.4,2.3l-8.4-3.7l-4.3-2.3
			c1.4,1.3,4.9,4.4,6.4,5.9l3.1,3.2l-2.3,2.3l-12.1-12.5L90,139.5z"/>
		<path class="st4" d="M101,128.8l12.1,12.5l-2.3,2.3l-12.1-12.5L101,128.8z M99.9,123.2l-0.1,4.8l-1.7,1.7l-0.7-4L99.9,123.2z"/>
		<path class="st4" d="M106.4,123.5l5.4,5.6l0,0c-1.1-2.7-1.7-5.5-2.5-8.3l2.6-2.5l2.2,8.4l10.1,4l-2.6,2.5l-7-2.8l0.5,2.2l3.5,3.5
			l-2.3,2.3l-12.1-12.6L106.4,123.5z"/>
		<path class="st4" d="M129.9,117.3c1.5,1.6,2.9,1.8,4.1,0.7c0.9-0.8,1.1-2.2-0.7-4l-4.2-4.3c-0.5-0.5-2.5-2.5-4.1-1
			c-1.2,1.2-0.9,2.6,0.6,4.1L129.9,117.3z M135.8,119.9c-4.1,4-6.9,1-9.2-1.2c0,0-0.2-0.2-0.3-0.3l-1.5-1.6c0,0-0.1-0.1-0.3-0.2
			c-0.8-0.9-3.3-3.6-3.5-5.4c-0.2-2.5,0.9-3.6,1.9-4.6c3.9-3.8,7.4-0.5,9.7,1.8l1.9,2C137.2,113.3,139.6,116.2,135.8,119.9"/>
		<path class="st4" d="M135.4,98.6c-0.7,0.6-0.8,1.7-0.1,2.4c0.5,0.5,1.3,0.7,2.3,0.6c2.8-0.5,6.4-1.7,8.5,0
			c0.2,0.2,0.5,0.5,0.7,0.6c2.4,2.5,1.7,5.1,0.1,6.8c-0.1,0.1-0.3,0.2-0.4,0.4c-2.1,2-4.6,3.1-7.6,0c-0.2-0.3-0.5-0.6-0.7-0.9
			l2.3-2.3c0.3,0.3,0.5,0.5,0.7,0.8c1.4,1.5,2.7,1.4,3.5,0.6c0.2-0.3,0.4-0.5,0.6-0.8c0.3-0.4,0.1-1.3-0.6-2c-0.6-0.6-1.5-1-2.9-0.7
			c-3,0.6-6.3,1.7-8.7-0.9c-1.8-2-1.6-4.1,0.4-6.3c2.4-2.4,4.9-2.9,7.5-0.2c0.1,0.1,0.3,0.3,0.4,0.4l-2.2,2.2
			C137.2,97.7,136.2,97.8,135.4,98.6"/>
		<polygon class="st4" points="146.6,88.2 156.9,98.8 154.6,101 144.2,90.4 141.5,93.1 139.8,91.2 147.5,83.7 149.3,85.5 		"/>
		<path class="st4" d="M153.9,81.1l3.3,3.5l1.6-1.6c1.1-1.1,0.8-2.3-0.1-3.2c-1.2-1.2-2-1.4-3.1-0.3L153.9,81.1z M154.3,77.1
			c2.5-2.4,4.6-2,6.2-0.5c1.8,1.8,2.3,3.7,1.1,5.1c2.3-1.7,3.7,0.2,4.7,1.2c1.2,1.2,3.3,3.2,3.8,2.7l0.2,0.2
			c-0.9,0.9-1.8,1.7-2.7,2.6c-1-0.8-1.8-1.8-2.9-2.5c-0.3-0.3-0.6-0.6-0.8-0.8c-1-1-1.9-1.6-3.6,0.1l-1.2,1.2l5.2,5.3l-2.3,2.3
			l-12.1-12.5L154.3,77.1z"/>
		<path class="st4" d="M167.8,70.4l-2.1-1.7l0,0l1.7,2.1l3.2,5l2-1.9L167.8,70.4z M166,65.7l14.9,9.8l-2.5,2.4l-3.6-2.6L172,78
			l2.4,3.8l-2.4,2.4l-9.2-15.3L166,65.7z"/>
		<polygon class="st4" points="183.1,66.9 175.7,56.4 178.2,53.9 187.6,69 184.5,72 169.6,62.3 172.1,59.8 182.6,67.3 184.9,69.3 		
			"/>
		<path class="st4" d="M186.9,51.9l-2.1-1.7l0,0l1.7,2.1l3.2,5l2-1.9L186.9,51.9z M185.1,47.2L200,57l-2.5,2.4l-3.6-2.6l-2.7,2.6
			l2.4,3.8l-2.4,2.4l-9.2-15.3L185.1,47.2z"/>
	</g>
	<g>
		<polygon class="st5" points="74.6,72.5 76.4,74.2 72.1,78.4 75.2,81.6 79.2,77.7 81,79.5 77,83.4 82.4,89.1 80.1,91.3 68,78.9 		
			"/>
		<path class="st5" d="M82.5,67.8c-1.5,1.4-0.4,2.9,0.6,3.9l4.1,4.3c1.9,1.9,3.2,2.2,4.1,1.3c1.2-1.1,0.4-2.3-1.4-4.2l2.3-2.3
			c1.2,1.3,4.7,4.7,1.1,8.2c-3.1,3-5.5,2.5-9.2-1.3l-2-2.1c-4-4.1-4.6-6.6-1.7-9.4c2.9-2.9,5.4-1.8,7.7,0.6L85.9,69
			C84.4,67.5,83.3,67.2,82.5,67.8"/>
	</g>
	<path class="st5" d="M183.2,20.6c-17.2,11.4-37.8,18-60,18s-42.8-6.6-60-18L20.5,62c40.4,39.7,14,65.8,34.2,108.6
		c11.6,24.6,39.7,39.5,68.5,55.4c28.7-15.9,56.8-30.9,68.4-55.4c20.2-42.8-6.2-69,34.2-108.6L183.2,20.6z M64,28.6
		C81.9,39.3,102.2,45,123.2,45s41.3-5.6,59.1-16.3l1.8,1.8L55.6,155.1c-3.1-11-3.5-21-3.7-30.9c-0.6-19.1-1.2-38.9-22.5-62L64,28.6z
		 M60.4,168c-1-2.1-1.8-4.2-2.6-6.3l130.9-127L210.6,56L75.1,187.3C68.9,181.5,63.8,175.2,60.4,168z M185.9,168
		c-10.3,21.9-35.8,36-62.8,50.9c-15.9-8.8-31.3-17.4-43.4-27.4L215.1,60.4l1.8,1.8c-21.2,23.2-21.9,42.9-22.5,62
		C194.1,137.7,193.7,151.7,185.9,168z"/>
</g>
</svg>
