<svg xmlns="http://www.w3.org/2000/svg" viewBox="0 0 66.988 29.553">
  <g id="k2_atmitec" transform="translate(929.1 554.6)">
    <path id="Path_34" data-name="Path 34" d="M165.342,185.807V171.322h.137l8.639,14.485H188.6l-10.389-15.54,9.992-13.467H174.49l-9.011,13.256h-.137V156.8H151.9v29.007Z" transform="translate(-1081 -710.854)" fill="#0e2947" fill-rule="evenodd"/>
    <path id="Path_36" data-name="Path 36" d="M459.4,176.579c6.119-3.835,13.33-9.222,13.33-13.306,0-2.085-1.874-3.761-5.548-3.761a15.613,15.613,0,0,0-7.137,1.874v-7.348a52.124,52.124,0,0,1,12.536-1.638c10.227,0,14.7,4.369,14.7,8.775,0,5.424-5.623,9.669-10.873,13.43h11.816v7.348H459.4" transform="translate(-1350.333 -707)" fill="#0e2947" fill-rule="evenodd"/>
  </g>
</svg>
