<svg version="1.2" xmlns="http://www.w3.org/2000/svg" viewBox="0 0 194 50" width="194" height="50">
	<title>logo (1)-svg</title>
	<style>
		.s0 { fill: #3c3c3b } 
		.s1 { fill: #ed1c24 } 
	</style>
	<g id="Layer">
		<g id="Layer">
			<g id="Layer">
				<g id="Layer">
					<g id="Layer">
						<g id="Layer">
							<path id="Layer" fill-rule="evenodd" class="s0" d="m109.2 35c-0.8 0-2.7-0.1-3.4-2.1l-5.4-15.2-6.4 17.3h-9.7l8.5-22.9c1.1-2.9 4.1-5.2 7-5.2 0.1 0 1.4 0 1.4 0 0 0 1.5 0 2.1 0 0.5 0 2.6-0.2 3.6 2.4 0.2 0.6 0.5 1.5 0.5 1.5l4.7 13.5 6.5-17.4h9.3l-8.5 23c-1.1 2.7-4.2 5.1-7.2 5.1zm28.7-28.1h8.8l-10.5 28.1h-8.8zm-80.1 18.8l-3.5 9.4h-10.1l8.4-22.7c1.3-3.5 4.7-5.4 7.1-5.4h20.2c3.6 0 4 2.9 3.2 5.2l-8.5 22.9h-9.6l3.5-9.4zm12.9-6.3l1.3-3.3c0.6-1.7-0.3-3-1.9-3-0.1 0-1.9 0-2 0 0 0-2.5 0-2.6 0-1.6 0-3.5 1.2-4.1 2.9l-1.3 3.4zm-55.8 15.7c-3.1 0-4.2-2.5-3.2-5.1 0.1-0.2 3.2-8.6 3.2-8.8 0.1-0.1 3.4-8.9 3.4-9.1 1.3-3.4 5-5.2 7.1-5.2h21.9l-2.2 6.1h-14.3c-1.7 0-3.6 1.6-4.2 3-0.1 0.4-1.9 5.1-1.9 5.1 0 0-1.7 4.8-1.8 4.9-0.8 2.1 0.9 3 1.9 3h14.3l-2.2 6.1z"/>
						</g>
					</g>
				</g>
				<g id="Layer">
					<g id="Layer">
						<g id="Layer">
							<path id="Layer" fill-rule="evenodd" class="s1" d="m1.8 46.7l2.9-7.6h157.4c2.4 0 3.7-2.1 4.1-3.1 0-0.1 0.8-2 1.1-2.8 0.3-0.9 0.5-2.8-1.3-2.8-1.9 0-12.7 0-15 0-2.2 0-3.7-2.8-2.9-5.1 0 0 4.9-13.5 4.9-13.5 0.9-2.4 3.7-5.4 7.4-5.4h27.8l-2.8 7.8h-17.3c-1.7 0-3.6 1.1-4.3 3.1 0 0-1.2 3-1.2 3.1-0.4 1.1 0.2 2.3 1.5 2.3 1.3 0 13.2 0.1 15 0.1 1.8 0 2.4 1.1 1.1 4.7-0.5 1.5-4.9 13.8-5 13.9-1.1 3.1-4.4 5.3-7.1 5.3z"/>
						</g>
					</g>
				</g>
			</g>
		</g>
	</g>
</svg>