<?xml version="1.0" encoding="utf-8"?>
<!-- Generator: Adobe Illustrator 26.0.3, SVG Export Plug-In . SVG Version: 6.00 Build 0)  -->
<svg version="1.1" id="Vrstva_1" xmlns="http://www.w3.org/2000/svg" xmlns:xlink="http://www.w3.org/1999/xlink" x="0px" y="0px"
	 viewBox="0 0 438 410" style="enable-background:new 0 0 438 410;" xml:space="preserve">
<style type="text/css">
	.st0{fill:none;stroke:#009B3E;stroke-width:17.0524;stroke-linecap:round;stroke-linejoin:round;stroke-miterlimit:10;}
</style>
<g id="icon">
	<path id="XMLID_4265_" class="st0" d="M211.2,325.2c0,24.9-20.8,45.1-46.6,45.1h-54.5C96.8,370.3,86,359.9,86,347l-9.4-56.9
		c-0.6-4.4-3.9-8.1-8.3-9.3l-21.8-5.9c-6.7-1.8-10.2-8.9-7.5-15.1c4.8-11,12.2-27.9,18.3-41.9c5.9-13.6,9.5-28.2,9.1-43
		c-0.1-6.1,0.1-12.2,0.7-18.4c5.4-54.5,41.1-101,90.1-123.7c20.5-9.4,43.3-14.7,67.5-14.7C312.2,18,384,86.8,384,171.6
		c0,32.3-10.3,62.3-27.9,87c-9,12.7-13.6,27.8-13.6,43.2l0,83"/>
	<path id="XMLID_4264_" class="st0" d="M167.9,115.9c-0.3-2-0.4-4.1-0.4-6.2c0-27.2,22.8-49.3,51-49.3c20.8,0,38.7,12.5,46.6,29.8"
		/>
	<path id="XMLID_4263_" class="st0" d="M265,90.2c2.2-0.3,4.5-0.5,6.8-0.5c24.4,0,44.2,19.2,44.2,42.8c0,8.3-2.4,16.1-6.7,22.6"/>
	<path id="XMLID_4262_" class="st0" d="M161.5,187.2c-24.4,0-44.2-19.2-44.2-42.8s19.8-42.8,44.2-42.8c2,0,4,0.1,5.9,0.4"/>
	<path id="XMLID_4260_" class="st0" d="M314.5,143.4c12.2,5.8,20.6,17.9,20.6,31.9c0,19.6-16.4,35.5-36.6,35.5
		c-20.2,0-36.6-15.9-36.6-35.5"/>
	<path id="XMLID_4259_" class="st0" d="M277.7,145.4c1.7,8.9-1.8,18.3-9.8,24.1c-11.2,8-27,5.7-35.3-5.2"/>
	<path id="XMLID_4258_" class="st0" d="M200.2,118.9c5.3-7.4,14.7-11.7,24.5-10.3c13.8,2,23.2,14.5,21.2,27.8"/>
	<path id="XMLID_4257_" class="st0" d="M195.9,159.8c-15.7,0-28.5,12.3-28.5,27.6v0c0,15.2,12.7,27.6,28.5,27.6h18.6h0
		c16.4,0,29.7,12.9,29.7,28.7v23.7"/>
</g>
</svg>
