<?xml version="1.0" encoding="utf-8"?>
<!-- Generator: Adobe Illustrator 26.5.0, SVG Export Plug-In . SVG Version: 6.00 Build 0)  -->
<svg version="1.1" id="Vrstva_1" xmlns="http://www.w3.org/2000/svg" xmlns:xlink="http://www.w3.org/1999/xlink" x="0px" y="0px"
	 viewBox="0 0 438 410" style="enable-background:new 0 0 438 410;" xml:space="preserve">
<style type="text/css">
	.st0{fill:#009B3E;}
	.st1{fill-rule:evenodd;clip-rule:evenodd;fill:#009B3E;stroke:#FFFFFF;stroke-width:1.2683;stroke-miterlimit:10;}
	.st2{fill-rule:evenodd;clip-rule:evenodd;fill:#FFFFFF;}
</style>
<g>
	<path class="st0" d="M66.4,281.9c0,50,40.5,90.6,90.6,90.6c50,0,90.6-40.5,90.6-90.6c0-50-82.3-128.1-90.6-209.3
		C148.7,153.7,66.4,231.8,66.4,281.9z M98.2,243c1.9-2.1,3.9-4.1,6-5.9c-19.4,28-15.4,66.7,10.7,90c26.1,23.3,17,37.7-11.2,12.6
		C75.5,314.4,73,271.2,98.2,243z"/>
</g>
<g>
	<path class="st0" d="M186.5,114.7c0,25.9,21,46.9,46.9,46.9c25.9,0,46.9-21,46.9-46.9c0-25.9-42.7-66.4-46.9-108.5
		C229.1,48.3,186.5,88.8,186.5,114.7z M202.9,94.5c1-1.1,2-2.1,3.1-3.1c-10.1,14.5-8,34.6,5.5,46.6c13.5,12.1,8.8,19.5-5.8,6.5
		C191.2,131.6,189.9,109.2,202.9,94.5z"/>
</g>
<g>
	<path class="st1" d="M159.8,186.5c27.8-28,73-28.1,100.9-0.3c26.4,26.2,28,67.9,4.8,96.1l-0.3,0.3c2.9-1.5,6.5-1,8.9,1.4
		c1.4,1.4,5.4,6.6,9,12c6.2-0.8,13.8,2.8,17.1,6.1l67.4,59.7c8.2,8.1,9.4,20.1,2.7,26.8l-10.1,10.1c-6.7,6.7-18.7,5.5-26.9-2.7
		l-59.5-66.7c-5.1-5.1-8.6-13-6.5-19c-5.2-3.6-10-7.4-11.3-8.8c-2.3-2.4-2.7-5.8-1.3-8.6c-27.9,22.2-68.7,20.4-94.6-5.3
		C132.2,259.6,132.1,214.4,159.8,186.5z"/>
	<path class="st2" d="M359.9,366.9c0.5-0.7-0.4-2.5-2-4l-50.2-48.8c-1.6-1.5-3.2-2.2-3.7-1.6c-0.5,0.7,0.4,2.5,2,4l50.2,48.8
		C357.8,366.8,359.4,367.5,359.9,366.9z"/>
	<path class="st2" d="M351.6,379.8c1-1,0.6-2.9-0.7-4.2l-50.3-50c-1.4-1.4-3.3-1.7-4.3-0.7c-1,1-0.6,2.9,0.7,4.2l50.3,50
		C348.7,380.4,350.6,380.8,351.6,379.8z"/>
	<path class="st2" d="M285.8,335.9l49,50c1.5,1.6,3.3,2.5,4,2c0.7-0.5,0-2.1-1.6-3.7l-49-50c-1.5-1.6-3.3-2.5-4-2
		C283.6,332.7,284.2,334.3,285.8,335.9z"/>
	<path class="st2" d="M172.8,274.7c21,20.8,54.9,20.7,75.7-0.3c20.8-21,20.7-54.9-0.3-75.7c-21-20.8-54.9-20.7-75.7,0.3
		C151.7,220,151.8,253.9,172.8,274.7z"/>
</g>
</svg>
