<?xml version="1.0" encoding="utf-8"?>
<!-- Generator: Adobe Illustrator 26.5.0, SVG Export Plug-In . SVG Version: 6.00 Build 0)  -->
<svg version="1.1" id="Vrstva_1" xmlns="http://www.w3.org/2000/svg" xmlns:xlink="http://www.w3.org/1999/xlink" x="0px" y="0px"
	 viewBox="0 0 438 410" style="enable-background:new 0 0 438 410;" xml:space="preserve">
<style type="text/css">
	.st0{fill:#009B3E;}
</style>
<g>
	<path class="st0" d="M206.3,247.8c-8.8,1.3-14.6-0.2-22.4-1.2c-7.8-1-11.8,0.8-11.8,0.8s10.5,9.3,28,10c17.6,0.7,20.9-2.6,25.6-7.6
		c4.8-5,9.7-5.8,9.7-5.8c3.3-1.5-2.7-6.6-6.5-9c-3.8-2.4-9-10.4-12.9-12.9c-3.8-2.4-8.7-3.6-14.9-2.9c-6.2,0.7-6.8-0.3-14-1.2
		c-7.1-0.9-12.6,6-21,11.9c-8.4,5.9-13.6,13.8-9,14c4.6,0.2,14.3-6.3,21.1-7.3c6.9-1,17.3-0.3,28.6,1.4c11.3,1.7,14.8,4.2,14.1,6.4
		C220.4,246.7,215.2,246.5,206.3,247.8z M190.9,225.6c-1,0.5-1.9-0.5-2.3-0.7c-0.4-0.2-1.6-0.5-3.7,0.1c-2.2,0.6-5.2,1.8-6.4,2.4
		c-1.2,0.6-2.5-0.5-2.5-0.5s2-0.8,3.1-1c1.1-0.2-1.6-1-1.6-1s9.2-3,12.9-2.2C194,223.6,190.9,225.6,190.9,225.6z M202.3,226.1
		c-0.5,0.3-1-0.4-0.7-1.2c0.3-0.9,3.3-0.9,3.3-0.9S202.8,225.8,202.3,226.1z M206.2,227c-1.2,0-1.3-0.3-0.9-1.2c0.4-0.9,3.1-1,3.1-1
		c0.3,0.1,0.4,0.1,0.4,0.3c-0.1,0.1-0.4,0.3-0.9,0.5c-0.4,0.2-0.2,0.4,0.9,0.2c1.1-0.2,1.8,0.5,1.8,1
		C210.4,227.3,207.4,227.1,206.2,227z"/>
	<path class="st0" d="M176.8,193.9c-0.9,2.2-0.4,4.7,2.4,5.9s5.4,0.1,7.1-1.6c0,0,1-0.4,2.6,0.9c0,0,1-5.8-3.3-8.1
		C181.4,188.7,177.7,191.8,176.8,193.9z"/>
	<path class="st0" d="M198.2,204.7c3.6-0.5,9.3,3.5,15.4,4.3c6.1,0.8,8.2-4.9,5.1-9.5c-3.1-4.6-8.4-10.5-9.8-12.3
		c-1.4-1.8-2.8-0.4-5.3,3.4s-5.5,6-8.8,6.1c-3.3,0.1-5,6.3-2.8,8.6C194.2,207.6,198.2,204.7,198.2,204.7z M207.6,202.1
		c2-1.7,4.8-1.1,4.8-1.1c2,3.2-1.4,4-3.4,4.1C207,205.3,205.6,203.9,207.6,202.1z"/>
	<path class="st0" d="M178.4,131c-6-4.3-14.3-6.1-20.1-6c-8.8-0.5-16.4,3-16.4,3c4.2-1.1,8.9-1,13.1-0.4c3.3,0.8,8.4,2.2,12.5,4.6
		c0.7,0.9,1.4,2,1.9,3c1.3,2.7,5.3,10.7,12.4,8.1C181.8,143.3,183.1,134.4,178.4,131z"/>
	<path class="st0" d="M239.5,122.2c-0.5-1.1-3.4-0.4-7.9-0.1c-4.5,0.4-9.8,4.8-11.2,9.3c-2.1,6.6-1,8.7-1,8.7s0.3-1.3,1.7-2.7
		c1.4-1.4,3-2,3-2s-1.7,4.8-2.5,7.2c-1,2.8,0.1,4.9,0.1,4.9s1.2-2.6,4.7-3.2c2.3-0.4,3.7-4.3,4.8-7.1c1.7-4.5,8.9-5.6,8.9-5.6
		c12.1-2.2,17.4,0.6,21.6,3.9c2.1,2.1,4.4,3.5,5.5,6.4c-4.1-0.7-7-1.1-13.6-1c-6.1,0.1-11,2.2-14.9,3.4c-2.7,0.7-5.3,2-9.1,4.4
		c0,0-1.9,1.6-3.8,2.2c-2,0.7-3.7,1.7-3.2,2.8c0.2,0.4,0.4,0.6,0.9,0.7c0.7,0.5,1.9,0.9,3.4,1.1c1.8,0.2,4.5,2.3,7.2,4.1
		c2.7,1.7,8.3,6.7,17.4,7.8s32.9-0.3,37.6-7c0-0.1,0.1-0.1,0.1-0.2c0.1-0.1,0.1-0.1,0.1-0.2c1.4-2.5,0.3-5.4-1.6-8.2
		c-1.7-3-5.3-7.4-10.7-12.5c-9.8-9.2-30.4-12.6-34.3-13C238.6,125.9,240,123.4,239.5,122.2z M257.1,150.8c0.2,0.1,0.4,0.1,0.6,0.2
		c0.1,0.3,0.3,0.6,0.4,1c-0.2,1.4-0.7,2.8-1.6,4c-0.3,0.2-0.6,0.3-0.9,0.3c-0.5-0.9-1-1.7-1.4-2.2
		C256.2,153.1,256.9,151.9,257.1,150.8z M253.5,154.4c0.3,0.5,0.7,1.1,0.9,1.7c-0.5-0.1-0.9,0-1.2,0.2c-0.2-0.6-0.4-1.1-0.6-1.5
		C253,154.7,253.2,154.6,253.5,154.4z M251.3,155c0.1,0,0.1,0,0.2,0c0.2,0,0.4,0,0.6-0.1c0.2,0.6,0.4,1.2,0.6,1.9
		c-0.2,0.2-0.4,0.5-0.6,0.7c-0.8,0.9-1.2,0.5-2.6-0.2c-0.5-0.2-0.9-0.4-1.3-0.5c0.4-0.7,0.6-1.3,0.7-1.8
		C249.6,155.2,250.4,155.2,251.3,155z M248.3,154.8c-0.2,0.6-0.6,1.2-1,1.8c-0.6,0-1.3,0.1-2.2,0.3c-0.4,0.1-0.7,0.1-1,0
		c0,0-0.1-0.1-0.1-0.1c1.1-1.1,1.9-2.1,2.4-2.9C246.9,154.3,247.6,154.6,248.3,154.8z M245.9,153.5c-0.8,1.1-1.9,2.1-2.5,2.6
		c-0.4-0.5-0.7-1-0.9-1.5c1-0.8,1.8-1.6,2.3-2.2C245.1,152.9,245.5,153.2,245.9,153.5z M241.4,149.1c0.2,0,0.4,0,0.7,0
		c0.6,0.9,1.4,2.1,2.4,3.1c-0.6,0.7-1.6,1.4-2.2,1.9c-0.8-1.9-0.9-3.8-0.9-4.9C241.3,149.2,241.3,149.2,241.4,149.1z M233.5,151.5
		c1.6-0.9,3.6-1.8,6.1-2.2c0.1,2.4,0.9,6.8,4.9,9.2c0.4,0.2,0.7,0.4,1.1,0.6l-0.9,0c-5.1-1-10.1-2.6-14.2-3.6
		C230.9,154.8,231.9,153.1,233.5,151.5z"/>
	<path class="st0" d="M132.2,159.9c0,0,0-0.1,0-0.2c1.3,0.2,2.6,0.4,3.9,0.5c0,0,0,0.1,0.1,0.1c0,0,0,0,0-0.1
		c1.6,0.1,3.2,0.2,4.8,0.1c2.9-0.1,5.8-0.5,8.4-1c0,0,0,0.1,0.1,0.1c0,0,0,0,0-0.1c5.4-1,9.9-2.6,12.5-3.8c0.8-0.4,1.6-0.8,2.6-1.2
		c4.1-1.4,7-2.1,8.8-2.4c2,0,2.4,0.1,2.9-0.6c0.6-1-0.9-2.2-2.9-3.1c-1.7-0.8-3.5-2.6-3.5-2.6c-4.7-3.7-7.5-5.3-11.2-6.2
		c-1.2-0.4-2.9-0.8-5.4-1.3c-7.6-1.5-20.2-0.4-25.8,3c1.4-3.3,3.7-6.9,3.7-6.9c-2.1,0.5-4.4,1.2-6.6,2.3c-0.2,0.1-0.3,0.1-0.5,0.2
		c-3.9,1.6-10,7.7-11.1,10.4s0.9,4.7,4.6,7.6c2.5,2,8.4,4.1,14.7,5.1C132.2,159.8,132.2,159.9,132.2,159.9z M157.2,144.3
		c0.2,0,0.4,0.1,0.7,0.1c0,0,0.1,0.1,0.1,0.1c-0.1,1.1-0.5,3-1.5,4.8c-0.6-0.5-1.4-1.4-2-2.1C155.6,146.2,156.5,145.2,157.2,144.3z
		 M154.1,147.4c0.4,0.6,1.1,1.5,2,2.4c-0.3,0.5-0.7,0.9-1.1,1.3c-0.5-0.6-1.5-1.8-2.1-2.9C153.3,148,153.7,147.7,154.1,147.4z
		 M152.4,148.6c0.4,0.8,1.1,2,2,3.2c0,0-0.1,0.1-0.1,0.1c-0.3,0-0.7,0-1-0.1c-0.9-0.3-1.5-0.5-2.1-0.5c-0.3-0.6-0.6-1.3-0.8-1.9
		C151,149.2,151.7,148.9,152.4,148.6z M147.2,149.1c0.1,0,0.1,0,0.2,0.1c0.8,0.3,1.6,0.3,2.4,0.3c0.1,0.4,0.2,1.1,0.5,1.8
		c-0.5,0-0.9,0.2-1.4,0.3c-1.4,0.5-1.9,0.9-2.6-0.1c-0.2-0.3-0.4-0.6-0.6-0.8c0.2-0.6,0.5-1.2,0.8-1.8
		C146.7,149,147,149,147.2,149.1z M146,148.7c-0.2,0.4-0.5,0.9-0.8,1.4c-0.3-0.2-0.7-0.4-1.2-0.3c0.3-0.5,0.7-1.1,1.1-1.6
		C145.4,148.5,145.7,148.6,146,148.7z M141.1,145l1-0.2c0.2,1,0.9,2.1,2.6,3.1c-0.5,0.5-1.1,1.1-1.7,2c-0.3,0-0.6-0.2-0.9-0.4
		c-0.7-1.3-1.1-2.7-1.1-4.1C141,145.3,141,145.1,141.1,145z M139.2,145.8c0,2.5,1.1,6,4.7,7.6c0.4,0.3,1,0.5,2.1,0.7
		c-0.7,0-1.3-0.1-2-0.2c-4.1-0.5-7.1-1.8-9.3-3.1C135.4,149.6,136.6,147.5,139.2,145.8z"/>
	<path class="st0" d="M228.9,23.4c0,0-15.5-1-23.8,1.4c0,0,9.5,1.2,12.7,3c0,0-11,1.7-30.6,8.4c0,0,7.9-2.2,13.4-1.2
		c0,0-45.3,6.2-63.2,27.7c0,0,50.7-24,85.2-19.6s43.5,9.8,52.4,7.8c0,0-4.5-13.3-20.2-23.3c-15.7-10-30.5-14.3-46.6-14.2
		c0,0,8.2,1.2,12.3,3.4c0,0-22.7-1.3-37.1,2.6C183.4,19.4,210.8,15.3,228.9,23.4z"/>
	<path class="st0" d="M148,49.6c0,0-6.5,0.3-21.4,15.1c0,0,13.3-16.9,23.3-25.1c0,0-10.2,1.4-24.2,13.3c0,0,15.8-14.1,32.5-22
		c0,0-8.6,3.1-20.9,9.5c0,0,14.1-13.1,33.6-18.4c0,0-51.8,8.8-71.9,64.9c0,0,3.7-6.7,11.4-12.6c0,0-2.2,4.9-3.7,10.7
		c0,0,7.7-11.9,13.7-14.5c0,0-38.9,35.9-27.1,112.8c0,0,0.2-6.1,4.4-11.4c4.2-5.3,5.2-12.1,4.1-21.3c-1.1-9.2,2.4-27.3,5.6-41.2
		C110.7,95.5,123,68.8,148,49.6z"/>
	<path class="st0" d="M89,182.2c-3.9-0.1-1.2,4.7-1.7,6.3c-0.4,1.6-2.9,5.2-2.1,8.7c0,0,2.8-6.8,8.8-8.3
		C94,188.9,92.9,182.3,89,182.2z"/>
	<path class="st0" d="M92.2,194.6c-2.6,3.3-1.8,8.2,2,10.1c0,0,5.4-6.7,2.4-11.3C96.7,193.4,94.9,191.4,92.2,194.6z"/>
	<path class="st0" d="M269,292.1c5.8-5.1,10.4-12.3,12.2-16.5c3.3-6.2,7.5-16.9,11.8-27.7c0,0,19,1.6,24.2-12.3
		c5.2-13.9,14.1-50.1,9-55.2c-2.3-2.3-4.4-3.3-6.1-3.8c0.9-4.9,1.6-15.9,0.4-40c-0.8-17.6-3.9-30.8-7.5-40.5
		c-3.2-13.3-16.5-29.3-23.6-32.2c0,0,4.2,10.4,6.6,17.6l-0.1,0.3c-0.9-1.8-3-5.2-6.8-7.5c0,0,3.6,4.3,5.9,12.4l-0.1,0.7
		c-0.6-1-1.7-2.4-2.9-2.6c0,0,1.8,15.7,6.8,31.2s3.6,22.7,3.3,28.1c-0.1,1.6,0.4,6.6,1.2,12.7l-3,5.1c0,0,0,16.6,4.8,27.2
		c1.7,3.8,1.1,7.3-0.5,11c-4.7,5.6-13,10.1-17.5,19.7c-5.2,11.1-9,21-13.6,32.5c-4.6,11.5-9.8,25.9-28.9,36
		c-3.1,1.6-7.1,3.1-11.7,4.4c-24.6,6.2-62.2,16.1-112-24.5c0,0,11.1,16.7,31.2,29c0.5,3.5,4,28.1,12,54
		c-10.6,10.6-25.1,21.6-44,28.5c0,0,24.6,1.4,46.8-13.1c1.2,11.9,1.2,24.6-0.8,36.5c0,0,4.4-7.7,8.6-24.2
		c3.2,6.8,6.9,13.1,10.9,18.5c0,0-20.5-64.1,48.5-64.8c41.1-0.4,79.3,57.3,109.8,50.9C343.9,383.1,281.6,349.8,269,292.1z"/>
</g>
</svg>
