<?xml version="1.0" encoding="utf-8"?>
<!-- Generator: Adobe Illustrator 26.5.0, SVG Export Plug-In . SVG Version: 6.00 Build 0)  -->
<svg version="1.1" id="Vrstva_1" xmlns="http://www.w3.org/2000/svg" xmlns:xlink="http://www.w3.org/1999/xlink" x="0px" y="0px"
	 viewBox="0 0 438 410" style="enable-background:new 0 0 438 410;" xml:space="preserve">
<style type="text/css">
	.st0{fill:#009B3E;}
</style>
<g>
	<g>
		<path class="st0" d="M372,42.2C356.6,27.9,336.7,21,317.1,21c-19.6,0-39.2,7.1-54.5,21c-16.9,15.3-26.3,37.3-26.3,59.8
			c0,17.2-4.6,33.5-13.2,46.8c0,0.3-0.3,0.5-0.3,0.5l0,0c-1.4,1.9-2.4,3.8-4,5.3c-19.3,24.4-40.6,25.8-47.5,26c-1.4,0-2.1,1-2.4,1.5
			c-0.5,1-0.5,2.1,0,3.3c13.4,26.7,17.5,30.6,25.8,38.9c8.1,8.1,12.4,12.4,38.9,25.8c1,0.5,2.1,0.5,3.3,0c0.5-0.3,1.4-1,1.5-2.4
			c0.3-7.1,1.5-28.2,26-47.5c1.9-1.4,3.4-2.8,5.3-4c0,0,0,0,0.3,0s0.3-0.3,0.5-0.3l0,0c13.4-8.6,29.2-13.2,46.8-13.2h0.3
			c21.5,0,42-8.3,57.3-23.6c15.6-15.6,24.2-36.5,23.6-58.8C397.6,77.6,388.5,57.1,372,42.2z M365.1,140.7c-0.9,0.9-1.9,1.4-3.3,1.4
			c-1,0-2.4-0.5-3.3-1.4c-1.5-1.9-1.5-4.6,0-6.2c30.3-29.7-0.3-72.1-1.5-73.6c-1.4-1.9-1-4.8,0.9-6.2s4.8-1,6.2,0.9
			C364.7,55.7,400.7,105.4,365.1,140.7z"/>
		<path class="st0" d="M269.6,206.7c-19.1,15.3-22,31-22.9,41.1c-0.3,4-2.4,7.6-5.8,9.6c-1.9,1-4,1.5-6.2,1.5
			c-1.9,0-3.8-0.5-5.7-1.4c-27.9-14.3-32.2-18.6-41.1-27.3c-8.9-8.8-13.2-13.2-27.3-41.1c-1.9-3.8-1.9-8.1,0.3-11.9
			c2.1-3.4,5.7-5.7,9.6-5.8c10.5-0.5,26-3.4,41.1-22.9c0.5-0.5,0.9-1,1.4-1.9c-55.9-43.8-112.5-58.5-136.2-35.3
			c-13.4,13.4-14.8,37.8-3.4,69c2.1,6.2,5.2,12.6,8.1,19.1l0,0c0,0.3,0.3,0.5,0.3,0.9l0,0c3.8,7.7,8.3,15.6,13.2,23.4l0,0
			c0.3,0.3,0.3,0.5,0.5,0.9l0,0c11.9,18.2,26.7,36.5,43.8,53.7c17.2,17.2,35.3,32,53.7,43.8l0,0c0.3,0.3,0.5,0.3,0.9,0.5l0,0
			c7.7,5.2,15.6,9.5,23.4,13.4l0,0c0.3,0,0.5,0.3,0.9,0.3l0,0c6.4,3.3,12.9,5.8,19.1,8.1c31,11.3,55.5,10,69-3.4
			c23.4-23.4,8.6-80.3-35.3-136.2C270.8,205.9,270.2,206.2,269.6,206.7z"/>
		<path class="st0" d="M134.1,357.2c-2.4,0.3-5.2,0.3-7.6,0.3c-18.6,0-35.3-6.4-46.9-18.2c-13.4-13.4-19.9-33-18.1-54.5
			c1.9-20.1,10.7-40.6,24.9-57.8c-3.4-5.7-6.7-11-9.6-16.7c-40.2,45.9-45.4,107.5-10.5,142c15.6,15.6,36.5,23.4,59.2,23.4
			c27.7,0,57.8-11.5,83.1-33.9c-5.7-2.9-11-6.2-16.7-9.6C174.5,346.3,154.3,355.3,134.1,357.2z"/>
	</g>
</g>
</svg>
