<?xml version="1.0" encoding="utf-8"?>
<!-- Generator: Adobe Illustrator 26.0.3, SVG Export Plug-In . SVG Version: 6.00 Build 0)  -->
<svg version="1.1" id="Vrstva_1" xmlns="http://www.w3.org/2000/svg" xmlns:xlink="http://www.w3.org/1999/xlink" x="0px" y="0px"
	 viewBox="0 0 438 410" style="enable-background:new 0 0 438 410;" xml:space="preserve">
<style type="text/css">
	.st0{fill:#009B3E;}
	.st1{fill:#FFFFFF;}
	.st2{fill:#009B3E;stroke:#FFFFFF;stroke-width:2.2676;stroke-miterlimit:10;}
</style>
<g>
	<path class="st0" d="M168.9,304.1l0.3,0.2c22.9,15.9,50.7,20.4,75.7,12.4l14.5-4.6l1.7-0.6l3.2-1l1.7-0.6l14.5-4.6
		c25.2-8,45.1-27.8,54.6-54l0.1-0.5c9.3-25.7,9.4-54.6,0.5-81.5l-52.4-121l-13.9-26.2c-7.4-13.7-21.8-21.4-35.9-18.9l-38.2,7.3
		c-21.2,3.6-41.7,10.2-61.1,19.5l-25.7,13c-12.9,6.2-20.3,20.9-18.3,36.3l3.7,29.4l27.3,129.3C129.6,265.1,146.5,288.6,168.9,304.1z
		"/>
	<path class="st1" d="M126.3,75.3l111.5-35.6c14.5-4.6,25.6,3.3,29.8,16.1l18.8,63.8c3.1,13.7-6.2,28-21.4,32.9l-96,30.6
		c-15.3,4.9-31.3-1.5-36.5-14.6l-21-62.8C107.2,92.9,111.8,79.9,126.3,75.3z"/>
	<path class="st0" d="M134.2,83.1l101.5-32.4c9.9-3.2,20.6,3.1,24,13.9l16.3,51c3.5,10.9-1.7,22.2-11.6,25.3L163,173.4
		c-9.9,3.2-20.6-3.1-24-13.9l-16.3-51C119.3,97.5,124.5,86.2,134.2,83.1z"/>
	<path class="st1" d="M256.8,291.7c-17.9,5.7-30.4,17.9-30.2,28.6c6.2-0.5,12.5-1.7,18.5-3.6l14.5-4.6l1.7-0.6l3.2-1l1.7-0.6
		l14.5-4.6c6-1.9,11.8-4.5,17.1-7.7C291.9,288.8,274.7,286.1,256.8,291.7z"/>
	
		<rect x="234.7" y="304.5" transform="matrix(0.9527 -0.304 0.304 0.9527 -81.1771 94.0928)" class="st0" width="53.9" height="6.5"/>
	<path class="st1" d="M247.8,185.2l34.2,8.6c15.1,3.9,19.2,16.6,9.1,28.5l-22.9,27c-4.9,5.7-16,6.3-17.7,1l-17.7-55.6
		C231.1,189.2,240.6,183.3,247.8,185.2z"/>
	<path class="st1" d="M222.7,263.7l-34.2-8.6c-15.1-3.9-19.2-16.6-9.1-28.5l22.9-26.9c4.9-5.7,16-6.3,17.7-1l17.7,55.6
		C239.4,259.6,229.9,265.5,222.7,263.7z"/>
	
		<rect x="257.4" y="306" transform="matrix(0.9527 -0.304 0.304 0.9527 -89.7404 98.3948)" class="st0" width="27.6" height="62.8"/>
	
		<rect x="255.7" y="329.9" transform="matrix(0.9527 -0.304 0.304 0.9527 -88.1806 97.6243)" class="st1" width="27.6" height="4.2"/>
	<g>
		<path class="st1" d="M169.6,144.5l0.8-2.3c3.6,2.5,8.2,4.8,14.5,2.7c6-1.9,9.4-9.8,6.6-18.7s-9-13-15.9-10.9
			c-3.4,1.1-5.3,3.3-7.1,6.3l-2.2-0.8l-6.2-25.1l19.6-6.2l0.8,2.4l-17.7,5.7l5,20.9c1.8-2.5,3.9-4.5,7.3-5.7
			c7.4-2.4,15,0.9,18.6,12.5c3.6,11.3-1.2,19.8-8,22C178.4,149.6,173.3,146.9,169.6,144.5z"/>
		<path class="st1" d="M206.1,137.2c-0.7-2.2,0.2-3.7,1.4-4.1c1.2-0.3,2.8,0.3,3.5,2.5c0.7,2-0.2,3.5-1.5,4
			C208.4,140,206.8,139.2,206.1,137.2z"/>
		<path class="st1" d="M216.2,129.6l0.8-2.3c3.6,2.5,8.2,4.8,14.5,2.7c6-1.9,9.4-9.8,6.6-18.7c-2.8-9-9-13-15.9-10.9
			c-3.4,1.1-5.3,3.3-7.1,6.3l-2.2-0.8L206.7,81l19.6-6.2l0.8,2.4l-17.7,5.7l5,20.9c1.8-2.5,3.9-4.5,7.3-5.7
			c7.4-2.4,15,0.9,18.6,12.5c3.6,11.3-1.2,19.8-8,22C225,134.7,220.1,132.1,216.2,129.6z"/>
	</g>
	<g>
		<path class="st2" d="M275.8,349.6c0,0-10.3,32.2-6.6,44.1c3.3,10.3,14.4,16,24.7,12.7c10.3-3.3,16-14.4,12.7-24.7
			C303.8,372.8,275.8,349.6,275.8,349.6z"/>
		<path class="st1" d="M291.4,397.4c-7.7,2.5-16.1-1.8-18.6-9.5c-0.5-1.4-0.7-3.2-0.7-5.1c-0.3,2.4-0.7,4.6-0.8,6.8
			c0.1,0.9,0.2,1.6,0.5,2.3c2.5,7.7,11.9,12,19.7,9.5c5.6-1.8,8.3-6.6,9-12.1c0-0.1,0-0.2-0.1-0.3
			C298.9,392.9,295.7,396,291.4,397.4z"/>
	</g>
</g>
</svg>
