<?xml version="1.0" encoding="utf-8"?>
<!-- Generator: Adobe Illustrator 26.0.3, SVG Export Plug-In . SVG Version: 6.00 Build 0)  -->
<svg version="1.1" id="Vrstva_1" xmlns="http://www.w3.org/2000/svg" xmlns:xlink="http://www.w3.org/1999/xlink" x="0px" y="0px"
	 viewBox="0 0 438 410" style="enable-background:new 0 0 438 410;" xml:space="preserve">
<style type="text/css">
	.st0{fill:#009B3E;}
	.st1{fill:#009B3E;stroke:#FFFFFF;stroke-width:3;stroke-miterlimit:10;}
	.st2{fill:#FFFFFF;}
</style>
<g>
	<path class="st0" d="M212.2,363.2c0,8.2,6.6,14.8,14.8,14.8c8.2,0,14.8-6.6,14.8-14.8v-45c-9.9,2.2-19.7,3.4-29.7,3.5V363.2z"/>
	<path class="st0" d="M172.9,363.2c0,8.2,6.6,14.8,14.8,14.8c8.2,0,14.8-6.6,14.8-14.8v-41.6c-10.1-0.5-19.9-2-29.7-4.5V363.2z"/>
</g>
<g>
	<path class="st0" d="M207.3,112.3c28.8,0,52.2-23.4,52.2-52.2S236.1,7.8,207.3,7.8S155,31.2,155,60
		C155,88.8,178.5,112.3,207.3,112.3z"/>
	<path class="st0" d="M299.1,276.4c7.3,11.4,22.5,14.8,34,7.5c11.4-7.3,14.8-22.5,7.5-34l-75.5-118l0,0c-0.5-0.7-1-1.3-1.5-2l0,0
		c-4.6-5.7-11.4-9.3-19.2-9.3h-74c-6.8,0-13.2,2.9-17.6,7.5l0,0c-0.5,0.7-1.1,1.1-1.6,1.8c0,0,0,0,0,0.2c-0.5,0.7-1,1.3-1.3,2l0,0
		l-75.5,118c-7.3,11.4-3.9,26.7,7.5,34c11.4,7.3,26.7,3.9,34-7.5l30.1-47.2v105.1c16.9,6.8,34.8,10.9,52.9,12.2v-14.6
		c0-4.7,3.9-8.6,8.6-8.6c4.7,0,8.6,3.9,8.6,8.6v15c17.7-0.5,35.6-3.7,52.9-9.9V229.4L299.1,276.4z"/>
</g>
<g>
	<g>
		<path class="st1" d="M353.7,299.8c49.6-42.6,55.4-117.2,12.7-166.9c-42.6-49.6-117.2-55.4-166.9-12.7
			c-47.1,40.4-54.6,109.7-18.9,159.1l-16.2,13.9c-6.1-2-13.1-0.8-18.4,3.6l-79.9,68.6c-8,6.9-8.9,18.9-2,27c6.9,8,18.9,8.9,27,2
			l79.9-68.6c5.3-4.5,7.4-11.2,6.4-17.7l16.1-13.8C236.9,337.1,306.6,340.2,353.7,299.8z M211.7,134.3
			c41.8-35.8,104.7-31,140.5,10.7c35.8,41.8,31,104.7-10.8,140.6s-104.7,31-140.5-10.7C165.1,233.1,170,170.2,211.7,134.3z"/>
		<path class="st2" d="M352.3,145c-35.8-41.8-98.8-46.6-140.5-10.7c-41.8,35.8-46.6,98.8-10.7,140.5c35.8,41.8,98.8,46.6,140.5,10.7
			C383.3,249.8,388.1,186.8,352.3,145z M203.4,272.8c-34.7-40.5-30.1-101.4,10.4-136c40.5-34.7,101.4-30.1,136,10.4
			c34.7,40.4,30.1,101.3-10.4,136C299,317.9,238.1,313.2,203.4,272.8z"/>
	</g>
</g>
<circle class="st2" cx="251.5" cy="162.9" r="8.4"/>
<circle class="st2" cx="230" cy="185.1" r="9.3"/>
<circle class="st2" cx="220.7" cy="214.1" r="9.3"/>
<circle class="st2" cx="241.1" cy="204.8" r="8.4"/>
<circle class="st2" cx="187.7" cy="73" r="3.4"/>
<circle class="st2" cx="181" cy="78" r="1.6"/>
<circle class="st2" cx="237.2" cy="149" r="5.8"/>
</svg>
