<?xml version="1.0" encoding="utf-8"?>
<!-- Generator: Adobe Illustrator 26.0.3, SVG Export Plug-In . SVG Version: 6.00 Build 0)  -->
<svg version="1.1" id="Vrstva_1" xmlns="http://www.w3.org/2000/svg" xmlns:xlink="http://www.w3.org/1999/xlink" x="0px" y="0px"
	 viewBox="0 0 438 410" style="enable-background:new 0 0 438 410;" xml:space="preserve">
<style type="text/css">
	.st0{fill:#009A3E;}
</style>
<g>
	
		<rect x="345.3" y="199.7" transform="matrix(-1 -1.224647e-16 1.224647e-16 -1 705.4467 414.0966)" class="st0" width="14.8" height="14.8"/>
	
		<rect x="345.3" y="184.9" transform="matrix(-1 -1.224647e-16 1.224647e-16 -1 705.4467 384.6478)" class="st0" width="14.8" height="14.8"/>
	
		<rect x="345.3" y="170.2" transform="matrix(-1 -1.224647e-16 1.224647e-16 -1 705.4467 355.199)" class="st0" width="14.8" height="14.8"/>
	
		<rect x="345.3" y="229.2" transform="matrix(-1 -1.224647e-16 1.224647e-16 -1 705.4467 473.1292)" class="st0" width="14.8" height="14.8"/>
	
		<rect x="345.3" y="214.4" transform="matrix(-1 -1.224647e-16 1.224647e-16 -1 705.4097 443.6129)" class="st0" width="14.8" height="14.8"/>
	
		<rect x="345.3" y="243.9" transform="matrix(-1 -1.224647e-16 1.224647e-16 -1 705.4097 502.6454)" class="st0" width="14.8" height="14.8"/>
	
		<rect x="330.6" y="199.7" transform="matrix(-1 -1.224647e-16 1.224647e-16 -1 675.998 414.0966)" class="st0" width="14.8" height="14.8"/>
	
		<rect x="330.6" y="170.2" transform="matrix(-1 -1.224647e-16 1.224647e-16 -1 675.998 355.199)" class="st0" width="14.8" height="14.8"/>
	
		<rect x="330.6" y="243.9" transform="matrix(-1 -1.224647e-16 1.224647e-16 -1 675.961 502.6454)" class="st0" width="14.8" height="14.8"/>
	
		<rect x="315.9" y="229.2" transform="matrix(-1 -1.224647e-16 1.224647e-16 -1 646.5492 473.1292)" class="st0" width="14.8" height="14.8"/>
	
		<rect x="315.9" y="214.4" transform="matrix(-1 -1.224647e-16 1.224647e-16 -1 646.5122 443.6129)" class="st0" width="14.8" height="14.8"/>
	
		<rect x="315.9" y="243.9" transform="matrix(-1 -1.224647e-16 1.224647e-16 -1 646.5122 502.6454)" class="st0" width="14.8" height="14.8"/>
	
		<rect x="301.2" y="199.7" transform="matrix(-1 -1.224647e-16 1.224647e-16 -1 617.1003 414.0966)" class="st0" width="14.8" height="14.8"/>
	
		<rect x="301.2" y="243.9" transform="matrix(-1 -1.224647e-16 1.224647e-16 -1 617.0634 502.6454)" class="st0" width="14.8" height="14.8"/>
	
		<rect x="286.4" y="229.2" transform="matrix(-1 -1.224647e-16 1.224647e-16 -1 587.6516 473.1292)" class="st0" width="14.8" height="14.8"/>
	
		<rect x="286.4" y="214.4" transform="matrix(-1 -1.224647e-16 1.224647e-16 -1 587.6146 443.6129)" class="st0" width="14.8" height="14.8"/>
	
		<rect x="404.2" y="184.9" transform="matrix(-1 -1.224647e-16 1.224647e-16 -1 823.2419 384.6478)" class="st0" width="14.8" height="14.8"/>
	
		<rect x="404.2" y="229.2" transform="matrix(-1 -1.224647e-16 1.224647e-16 -1 823.2419 473.1292)" class="st0" width="14.8" height="14.8"/>
	
		<rect x="404.2" y="243.9" transform="matrix(-1 -1.224647e-16 1.224647e-16 -1 823.205 502.6454)" class="st0" width="14.8" height="14.8"/>
	
		<rect x="389.5" y="199.7" transform="matrix(-1 -1.224647e-16 1.224647e-16 -1 793.7932 414.0966)" class="st0" width="14.8" height="14.8"/>
	
		<rect x="374.8" y="229.2" transform="matrix(-1 -1.224647e-16 1.224647e-16 -1 764.3443 473.1292)" class="st0" width="14.8" height="14.8"/>
	
		<rect x="360.1" y="229.2" transform="matrix(-1 -1.224647e-16 1.224647e-16 -1 734.8956 473.1292)" class="st0" width="14.8" height="14.8"/>
	
		<rect x="330.6" y="155.5" transform="matrix(-1 -1.224647e-16 1.224647e-16 -1 675.998 325.6827)" class="st0" width="14.8" height="14.8"/>
	
		<rect x="301.2" y="155.5" transform="matrix(-1 -1.224647e-16 1.224647e-16 -1 617.1003 325.6827)" class="st0" width="14.8" height="14.8"/>
	
		<rect x="286.4" y="155.5" transform="matrix(-1 -1.224647e-16 1.224647e-16 -1 587.6516 325.6827)" class="st0" width="14.8" height="14.8"/>
	
		<rect x="360.1" y="155.5" transform="matrix(-1 -1.224647e-16 1.224647e-16 -1 734.8956 325.6827)" class="st0" width="14.8" height="14.8"/>
	
		<rect x="212.8" y="214.4" transform="matrix(-1 -1.224647e-16 1.224647e-16 -1 440.3336 443.5117)" class="st0" width="14.8" height="14.8"/>
	
		<rect x="212.8" y="170.1" transform="matrix(-1 -1.224647e-16 1.224647e-16 -1 440.3336 355.0304)" class="st0" width="14.8" height="14.8"/>
	
		<rect x="212.8" y="184.9" transform="matrix(-1 -1.224647e-16 1.224647e-16 -1 440.2966 384.5467)" class="st0" width="14.8" height="14.8"/>
	
		<rect x="212.8" y="155.4" transform="matrix(-1 -1.224647e-16 1.224647e-16 -1 440.2966 325.5141)" class="st0" width="14.8" height="14.8"/>
	
		<rect x="198.1" y="214.4" transform="matrix(-1 -1.224647e-16 1.224647e-16 -1 410.8849 443.5117)" class="st0" width="14.8" height="14.8"/>
	
		<rect x="198.1" y="229.1" transform="matrix(-1 -1.224647e-16 1.224647e-16 -1 410.8849 472.9605)" class="st0" width="14.8" height="14.8"/>
	
		<rect x="198.1" y="170.1" transform="matrix(-1 -1.224647e-16 1.224647e-16 -1 410.8849 355.0304)" class="st0" width="14.8" height="14.8"/>
	
		<rect x="198.1" y="184.9" transform="matrix(-1 -1.224647e-16 1.224647e-16 -1 410.9403 384.5467)" class="st0" width="14.8" height="14.8"/>
	
		<rect x="183.3" y="229.1" transform="matrix(-1 -1.224647e-16 1.224647e-16 -1 381.436 472.9605)" class="st0" width="14.8" height="14.8"/>
	
		<rect x="183.3" y="170.1" transform="matrix(-1 -1.224647e-16 1.224647e-16 -1 381.436 355.0304)" class="st0" width="14.8" height="14.8"/>
	
		<rect x="183.3" y="155.4" transform="matrix(-1 -1.224647e-16 1.224647e-16 -1 381.399 325.5141)" class="st0" width="14.8" height="14.8"/>
	
		<rect x="183.3" y="140.7" transform="matrix(-1 -1.224647e-16 1.224647e-16 -1 381.399 296.0652)" class="st0" width="14.8" height="14.8"/>
	
		<rect x="168.6" y="199.7" transform="matrix(-1 -1.224647e-16 1.224647e-16 -1 351.9873 414.0629)" class="st0" width="14.8" height="14.8"/>
	
		<rect x="168.6" y="214.4" transform="matrix(-1 -1.224647e-16 1.224647e-16 -1 351.9873 443.5117)" class="st0" width="14.8" height="14.8"/>
	
		<rect x="168.6" y="170.1" transform="matrix(-1 -1.224647e-16 1.224647e-16 -1 351.9873 355.0304)" class="st0" width="14.8" height="14.8"/>
	
		<rect x="153.9" y="199.7" transform="matrix(-1 -1.224647e-16 1.224647e-16 -1 322.5385 414.0966)" class="st0" width="14.8" height="14.8"/>
	
		<rect x="153.9" y="214.4" transform="matrix(-1 -1.224647e-16 1.224647e-16 -1 322.5015 443.6129)" class="st0" width="14.8" height="14.8"/>
	
		<rect x="153.9" y="243.9" transform="matrix(-1 -1.224647e-16 1.224647e-16 -1 322.5015 502.6454)" class="st0" width="14.8" height="14.8"/>
	
		<rect x="271.7" y="199.7" transform="matrix(-1 -1.224647e-16 1.224647e-16 -1 558.1288 414.0629)" class="st0" width="14.8" height="14.8"/>
	
		<rect x="271.7" y="170.1" transform="matrix(-1 -1.224647e-16 1.224647e-16 -1 558.1288 355.0304)" class="st0" width="14.8" height="14.8"/>
	
		<rect x="257" y="199.7" transform="matrix(-1 -1.224647e-16 1.224647e-16 -1 528.6799 414.0629)" class="st0" width="14.8" height="14.8"/>
	
		<rect x="257" y="229.1" transform="matrix(-1 -1.224647e-16 1.224647e-16 -1 528.6799 472.9605)" class="st0" width="14.8" height="14.8"/>
	
		<rect x="256.9" y="140.7" transform="matrix(-1 -1.224647e-16 1.224647e-16 -1 528.6429 296.0652)" class="st0" width="14.8" height="14.8"/>
	
		<rect x="242.2" y="199.7" transform="matrix(-1 -1.224647e-16 1.224647e-16 -1 499.2313 414.0629)" class="st0" width="14.8" height="14.8"/>
	
		<rect x="242.2" y="214.4" transform="matrix(-1 -1.224647e-16 1.224647e-16 -1 499.2313 443.5117)" class="st0" width="14.8" height="14.8"/>
	
		<rect x="242.2" y="155.4" transform="matrix(-1 -1.224647e-16 1.224647e-16 -1 499.1943 325.5141)" class="st0" width="14.8" height="14.8"/>
	
		<rect x="227.5" y="184.9" transform="matrix(-1 -1.224647e-16 1.224647e-16 -1 469.7454 384.5467)" class="st0" width="14.8" height="14.8"/>
	
		<rect x="227.5" y="155.4" transform="matrix(-1 -1.224647e-16 1.224647e-16 -1 469.7454 325.5141)" class="st0" width="14.8" height="14.8"/>
	
		<rect x="212.8" y="243.9" transform="matrix(-1 -1.224647e-16 1.224647e-16 -1 440.3336 502.4768)" class="st0" width="14.8" height="14.8"/>
	
		<rect x="198.1" y="258.6" transform="matrix(-1 -1.224647e-16 1.224647e-16 -1 410.8849 531.9255)" class="st0" width="14.8" height="14.8"/>
	
		<rect x="168.6" y="258.6" transform="matrix(-1 -1.224647e-16 1.224647e-16 -1 351.9873 531.9255)" class="st0" width="14.8" height="14.8"/>
	
		<rect x="257" y="243.9" transform="matrix(-1 -1.224647e-16 1.224647e-16 -1 528.6799 502.4768)" class="st0" width="14.8" height="14.8"/>
	
		<rect x="257" y="258.6" transform="matrix(-1 -1.224647e-16 1.224647e-16 -1 528.6799 531.9255)" class="st0" width="14.8" height="14.8"/>
	
		<rect x="227.5" y="258.6" transform="matrix(-1 -1.224647e-16 1.224647e-16 -1 469.7824 531.9255)" class="st0" width="14.8" height="14.8"/>
	
		<rect x="80.2" y="170.2" transform="matrix(-1 -1.224647e-16 1.224647e-16 -1 175.2205 355.199)" class="st0" width="14.8" height="14.8"/>
	
		<rect x="80.2" y="214.4" transform="matrix(-1 -1.224647e-16 1.224647e-16 -1 175.1835 443.6129)" class="st0" width="14.8" height="14.8"/>
	
		<rect x="65.5" y="229.2" transform="matrix(-1 -1.224647e-16 1.224647e-16 -1 145.7717 473.1292)" class="st0" width="14.8" height="14.8"/>
	
		<rect x="65.5" y="243.9" transform="matrix(-1 -1.224647e-16 1.224647e-16 -1 145.7347 502.6454)" class="st0" width="14.8" height="14.8"/>
	
		<rect x="65.5" y="258.7" transform="matrix(-1 -1.224647e-16 1.224647e-16 -1 145.7347 532.0942)" class="st0" width="14.8" height="14.8"/>
	
		<rect x="50.8" y="170.2" transform="matrix(-1 -1.224647e-16 1.224647e-16 -1 116.3229 355.199)" class="st0" width="14.8" height="14.8"/>
	
		<rect x="50.8" y="229.2" transform="matrix(-1 -1.224647e-16 1.224647e-16 -1 116.3229 473.1292)" class="st0" width="14.8" height="14.8"/>
	
		<rect x="36.1" y="184.9" transform="matrix(-1 -1.224647e-16 1.224647e-16 -1 86.8741 384.6478)" class="st0" width="14.8" height="14.8"/>
	
		<rect x="36" y="243.9" transform="matrix(-1 -1.224647e-16 1.224647e-16 -1 86.8371 502.6454)" class="st0" width="14.8" height="14.8"/>
	
		<rect x="36" y="258.7" transform="matrix(-1 -1.224647e-16 1.224647e-16 -1 86.8371 532.0942)" class="st0" width="14.8" height="14.8"/>
	
		<rect x="21.3" y="199.7" transform="matrix(-1 -1.224647e-16 1.224647e-16 -1 57.4253 414.0966)" class="st0" width="14.8" height="14.8"/>
	
		<rect x="21.3" y="229.2" transform="matrix(-1 -1.224647e-16 1.224647e-16 -1 57.4253 473.1292)" class="st0" width="14.8" height="14.8"/>
	
		<rect x="21.3" y="214.4" transform="matrix(-1 -1.224647e-16 1.224647e-16 -1 57.3883 443.6129)" class="st0" width="14.8" height="14.8"/>
	
		<rect x="21.3" y="258.7" transform="matrix(-1 -1.224647e-16 1.224647e-16 -1 57.3883 532.0942)" class="st0" width="14.8" height="14.8"/>
	
		<rect x="139.1" y="184.9" transform="matrix(-1 -1.224647e-16 1.224647e-16 -1 293.0156 384.6478)" class="st0" width="14.8" height="14.8"/>
	
		<rect x="139.1" y="229.2" transform="matrix(-1 -1.224647e-16 1.224647e-16 -1 293.0156 473.1292)" class="st0" width="14.8" height="14.8"/>
	
		<rect x="124.4" y="199.7" transform="matrix(-1 -1.224647e-16 1.224647e-16 -1 263.5669 414.0966)" class="st0" width="14.8" height="14.8"/>
	
		<rect x="124.4" y="258.7" transform="matrix(-1 -1.224647e-16 1.224647e-16 -1 263.5298 532.0942)" class="st0" width="14.8" height="14.8"/>
	
		<rect x="109.7" y="229.2" transform="matrix(-1 -1.224647e-16 1.224647e-16 -1 234.1181 473.1292)" class="st0" width="14.8" height="14.8"/>
	
		<rect x="109.7" y="214.4" transform="matrix(-1 -1.224647e-16 1.224647e-16 -1 234.0811 443.6129)" class="st0" width="14.8" height="14.8"/>
	
		<rect x="94.9" y="258.7" transform="matrix(-1 -1.224647e-16 1.224647e-16 -1 204.6322 532.0942)" class="st0" width="14.8" height="14.8"/>
	
		<rect x="80.2" y="155.5" transform="matrix(-1 -1.224647e-16 1.224647e-16 -1 175.2205 325.6827)" class="st0" width="14.8" height="14.8"/>
	
		<rect x="65.5" y="155.5" transform="matrix(-1 -1.224647e-16 1.224647e-16 -1 145.7717 325.6827)" class="st0" width="14.8" height="14.8"/>
	
		<rect x="36.1" y="155.5" transform="matrix(-1 -1.224647e-16 1.224647e-16 -1 86.8741 325.6827)" class="st0" width="14.8" height="14.8"/>
	
		<rect x="139.1" y="155.5" transform="matrix(-1 -1.224647e-16 1.224647e-16 -1 293.0156 325.6827)" class="st0" width="14.8" height="14.8"/>
	
		<rect x="124.4" y="155.5" transform="matrix(-1 -1.224647e-16 1.224647e-16 -1 263.5669 325.6827)" class="st0" width="14.8" height="14.8"/>
	
		<rect x="109.7" y="155.5" transform="matrix(-1 -1.224647e-16 1.224647e-16 -1 234.1181 325.6827)" class="st0" width="14.8" height="14.8"/>
	
		<rect x="95" y="155.5" transform="matrix(-1 -1.224647e-16 1.224647e-16 -1 204.6692 325.6827)" class="st0" width="14.8" height="14.8"/>
	<rect x="345.3" y="317.7" class="st0" width="14.8" height="14.8"/>
	<rect x="345.3" y="332.5" class="st0" width="14.8" height="14.8"/>
	<rect x="345.3" y="302.9" class="st0" width="14.8" height="14.8"/>
	<rect x="360.1" y="317.7" class="st0" width="14.8" height="14.8"/>
	<rect x="360.1" y="391.4" class="st0" width="14.8" height="14.8"/>
	<rect x="374.8" y="332.4" class="st0" width="14.8" height="14.8"/>
	<rect x="374.8" y="317.7" class="st0" width="14.8" height="14.8"/>
	<rect x="374.8" y="361.9" class="st0" width="14.8" height="14.8"/>
	<rect x="374.8" y="347.1" class="st0" width="14.8" height="14.8"/>
	<rect x="389.5" y="317.7" class="st0" width="14.8" height="14.8"/>
	<rect x="389.5" y="361.9" class="st0" width="14.8" height="14.8"/>
	<rect x="389.5" y="347.1" class="st0" width="14.8" height="14.8"/>
	<rect x="389.5" y="376.7" class="st0" width="14.8" height="14.8"/>
	<rect x="404.2" y="332.4" class="st0" width="14.8" height="14.8"/>
	<rect x="404.2" y="302.9" class="st0" width="14.8" height="14.8"/>
	<rect x="404.2" y="376.7" class="st0" width="14.8" height="14.8"/>
	<rect x="286.4" y="332.4" class="st0" width="14.8" height="14.8"/>
	<rect x="286.4" y="317.7" class="st0" width="14.8" height="14.8"/>
	<rect x="286.4" y="302.9" class="st0" width="14.8" height="14.8"/>
	<rect x="286.4" y="361.9" class="st0" width="14.8" height="14.8"/>
	<rect x="301.2" y="332.4" class="st0" width="14.8" height="14.8"/>
	<rect x="301.2" y="347.1" class="st0" width="14.8" height="14.8"/>
	<rect x="301.2" y="391.4" class="st0" width="14.8" height="14.8"/>
	<rect x="315.9" y="332.4" class="st0" width="14.8" height="14.8"/>
	<rect x="315.9" y="302.9" class="st0" width="14.8" height="14.8"/>
	<rect x="315.9" y="376.7" class="st0" width="14.8" height="14.8"/>
	<rect x="315.9" y="391.4" class="st0" width="14.8" height="14.8"/>
	<rect x="330.6" y="332.4" class="st0" width="14.8" height="14.8"/>
	<rect x="330.6" y="376.7" class="st0" width="14.8" height="14.8"/>
	<rect x="345.3" y="288.2" class="st0" width="14.8" height="14.8"/>
	<rect x="345.3" y="273.5" class="st0" width="14.8" height="14.8"/>
	<rect x="389.5" y="288.2" class="st0" width="14.8" height="14.8"/>
	<rect x="404.2" y="288.2" class="st0" width="14.8" height="14.8"/>
	<rect x="286.4" y="288.2" class="st0" width="14.8" height="14.8"/>
	<rect x="286.4" y="273.5" class="st0" width="14.8" height="14.8"/>
	<rect x="301.2" y="273.5" class="st0" width="14.8" height="14.8"/>
	<rect x="315.9" y="273.5" class="st0" width="14.8" height="14.8"/>
	<rect x="330.6" y="273.5" class="st0" width="14.8" height="14.8"/>
	<rect x="212.7" y="66.9" class="st0" width="14.8" height="14.8"/>
	<rect x="212.7" y="37.4" class="st0" width="14.8" height="14.8"/>
	<rect x="242.2" y="44.4" class="st0" width="14.8" height="14.8"/>
	<rect x="227.5" y="81.7" class="st0" width="14.8" height="14.8"/>
	<rect x="227.5" y="52.2" class="st0" width="14.8" height="14.8"/>
	<rect x="242.2" y="37.4" class="st0" width="14.8" height="14.8"/>
	<rect x="242.2" y="52.2" class="st0" width="14.8" height="14.8"/>
	<rect x="242.2" y="7.9" class="st0" width="14.8" height="14.8"/>
	<rect x="256.9" y="66.9" class="st0" width="14.8" height="14.8"/>
	<rect x="256.9" y="37.4" class="st0" width="14.8" height="14.8"/>
	<rect x="256.9" y="7.9" class="st0" width="14.8" height="14.8"/>
	<rect x="271.6" y="96.4" class="st0" width="14.8" height="14.8"/>
	<rect x="271.6" y="37.4" class="st0" width="14.8" height="14.8"/>
	<rect x="271.7" y="7.9" class="st0" width="14.8" height="14.8"/>
	<rect x="168.6" y="66.9" class="st0" width="14.8" height="14.8"/>
	<rect x="168.6" y="81.7" class="st0" width="14.8" height="14.8"/>
	<rect x="168.6" y="96.4" class="st0" width="14.8" height="14.8"/>
	<rect x="168.6" y="37.4" class="st0" width="14.8" height="14.8"/>
	<rect x="168.6" y="52.2" class="st0" width="14.8" height="14.8"/>
	<rect x="168.6" y="22.7" class="st0" width="14.8" height="14.8"/>
	<rect x="168.6" y="7.9" class="st0" width="14.8" height="14.8"/>
	<rect x="183.3" y="66.9" class="st0" width="14.8" height="14.8"/>
	<rect x="183.3" y="37.4" class="st0" width="14.8" height="14.8"/>
	<rect x="183.3" y="7.9" class="st0" width="14.8" height="14.8"/>
	<rect x="198" y="37.4" class="st0" width="14.8" height="14.8"/>
	<rect x="198" y="22.7" class="st0" width="14.8" height="14.8"/>
	<rect x="212.7" y="111.1" class="st0" width="14.8" height="14.8"/>
	<rect x="212.7" y="125.9" class="st0" width="14.8" height="14.8"/>
	<rect x="168.6" y="111.1" class="st0" width="14.8" height="14.8"/>
	<rect x="183.3" y="125.9" class="st0" width="14.8" height="14.8"/>
	<rect x="198" y="125.9" class="st0" width="14.8" height="14.8"/>
	<rect x="212.8" y="347.2" class="st0" width="14.8" height="14.8"/>
	<rect x="212.8" y="376.6" class="st0" width="14.8" height="14.8"/>
	<rect x="212.8" y="317.7" class="st0" width="14.8" height="14.8"/>
	<rect x="212.8" y="302.9" class="st0" width="14.8" height="14.8"/>
	<rect x="227.5" y="361.9" class="st0" width="14.8" height="14.8"/>
	<rect x="242.2" y="347.2" class="st0" width="14.8" height="14.8"/>
	<rect x="242.2" y="317.7" class="st0" width="14.8" height="14.8"/>
	<rect x="242.2" y="288.2" class="st0" width="14.8" height="14.8"/>
	<rect x="256.9" y="347.2" class="st0" width="14.8" height="14.8"/>
	<rect x="256.9" y="361.9" class="st0" width="14.8" height="14.8"/>
	<rect x="256.9" y="376.6" class="st0" width="14.8" height="14.8"/>
	<rect x="256.9" y="317.7" class="st0" width="14.8" height="14.8"/>
	<rect x="257" y="332.4" class="st0" width="14.8" height="14.8"/>
	<rect x="257" y="302.9" class="st0" width="14.8" height="14.8"/>
	<rect x="168.6" y="347.2" class="st0" width="14.8" height="14.8"/>
	<rect x="168.6" y="361.9" class="st0" width="14.8" height="14.8"/>
	<rect x="168.6" y="376.6" class="st0" width="14.8" height="14.8"/>
	<rect x="168.6" y="317.7" class="st0" width="14.8" height="14.8"/>
	<rect x="168.6" y="288.2" class="st0" width="14.8" height="14.8"/>
	<rect x="183.3" y="361.9" class="st0" width="14.8" height="14.8"/>
	<rect x="183.3" y="317.7" class="st0" width="14.8" height="14.8"/>
	<rect x="198" y="317.7" class="st0" width="14.8" height="14.8"/>
	<rect x="198.1" y="288.2" class="st0" width="14.8" height="14.8"/>
	<rect x="212.8" y="391.4" class="st0" width="14.8" height="14.8"/>
	<rect x="256.9" y="391.4" class="st0" width="14.8" height="14.8"/>
	<rect x="168.6" y="391.4" class="st0" width="14.8" height="14.8"/>
	<rect x="212.7" y="273.4" class="st0" width="14.8" height="14.8"/>
	<rect x="242.2" y="273.4" class="st0" width="14.8" height="14.8"/>
	<g>
		<rect x="21.3" y="273.4" class="st0" width="14.8" height="14.8"/>
		<rect x="36.1" y="273.4" class="st0" width="14.8" height="14.8"/>
		<rect x="50.8" y="273.4" class="st0" width="14.8" height="14.8"/>
		<rect x="65.6" y="273.4" class="st0" width="14.8" height="14.8"/>
		<rect x="80.3" y="273.4" class="st0" width="14.8" height="14.8"/>
		<rect x="95.1" y="273.4" class="st0" width="14.8" height="14.8"/>
		<rect x="109.8" y="273.4" class="st0" width="14.8" height="14.8"/>
		<rect x="124.6" y="273.4" class="st0" width="14.8" height="14.8"/>
		<rect x="139.4" y="273.4" class="st0" width="14.8" height="14.8"/>
		<rect x="21.3" y="288.2" class="st0" width="14.8" height="14.8"/>
		<rect x="139.4" y="288.2" class="st0" width="14.8" height="14.8"/>
		<rect x="21.3" y="303" class="st0" width="14.8" height="14.8"/>
		<rect x="139.4" y="303" class="st0" width="14.8" height="14.8"/>
		<rect x="21.3" y="317.7" class="st0" width="14.8" height="14.8"/>
		<rect x="65.6" y="317.7" class="st0" width="14.8" height="14.8"/>
		<rect x="80.3" y="317.7" class="st0" width="14.8" height="14.8"/>
		<rect x="95.1" y="317.7" class="st0" width="14.8" height="14.8"/>
		<rect x="139.4" y="317.7" class="st0" width="14.8" height="14.8"/>
		<rect x="21.3" y="332.5" class="st0" width="14.8" height="14.8"/>
		<rect x="65.6" y="332.5" class="st0" width="14.8" height="14.8"/>
		<rect x="80.3" y="332.5" class="st0" width="14.8" height="14.8"/>
		<rect x="95.1" y="332.5" class="st0" width="14.8" height="14.8"/>
		<rect x="139.4" y="332.5" class="st0" width="14.8" height="14.8"/>
		<rect x="21.3" y="347.2" class="st0" width="14.8" height="14.8"/>
		<rect x="65.6" y="347.2" class="st0" width="14.8" height="14.8"/>
		<rect x="80.3" y="347.2" class="st0" width="14.8" height="14.8"/>
		<rect x="95.1" y="347.2" class="st0" width="14.8" height="14.8"/>
		<rect x="139.4" y="347.2" class="st0" width="14.8" height="14.8"/>
		<rect x="21.3" y="362" class="st0" width="14.8" height="14.8"/>
		<rect x="139.4" y="362" class="st0" width="14.8" height="14.8"/>
		<rect x="21.3" y="376.7" class="st0" width="14.8" height="14.8"/>
		<rect x="139.4" y="376.7" class="st0" width="14.8" height="14.8"/>
		<rect x="21.3" y="391.5" class="st0" width="14.8" height="14.8"/>
		<rect x="36.1" y="391.5" class="st0" width="14.8" height="14.8"/>
		<rect x="50.8" y="391.5" class="st0" width="14.8" height="14.8"/>
		<rect x="65.6" y="391.5" class="st0" width="14.8" height="14.8"/>
		<rect x="80.3" y="391.5" class="st0" width="14.8" height="14.8"/>
		<rect x="95.1" y="391.5" class="st0" width="14.8" height="14.8"/>
		<rect x="109.8" y="391.5" class="st0" width="14.8" height="14.8"/>
		<rect x="124.6" y="391.5" class="st0" width="14.8" height="14.8"/>
		<rect x="139.4" y="391.5" class="st0" width="14.8" height="14.8"/>
	</g>
	<g>
		<rect x="21.3" y="7.9" class="st0" width="14.8" height="14.8"/>
		<rect x="36.1" y="7.9" class="st0" width="14.8" height="14.8"/>
		<rect x="50.8" y="7.9" class="st0" width="14.8" height="14.8"/>
		<rect x="65.6" y="7.9" class="st0" width="14.8" height="14.8"/>
		<rect x="80.3" y="7.9" class="st0" width="14.8" height="14.8"/>
		<rect x="95.1" y="7.9" class="st0" width="14.8" height="14.8"/>
		<rect x="109.8" y="7.9" class="st0" width="14.8" height="14.8"/>
		<rect x="124.6" y="7.9" class="st0" width="14.8" height="14.8"/>
		<rect x="139.4" y="7.9" class="st0" width="14.8" height="14.8"/>
		<rect x="21.3" y="22.7" class="st0" width="14.8" height="14.8"/>
		<rect x="139.4" y="22.7" class="st0" width="14.8" height="14.8"/>
		<rect x="21.3" y="37.4" class="st0" width="14.8" height="14.8"/>
		<rect x="139.4" y="37.4" class="st0" width="14.8" height="14.8"/>
		<rect x="21.3" y="52.2" class="st0" width="14.8" height="14.8"/>
		<rect x="65.6" y="52.2" class="st0" width="14.8" height="14.8"/>
		<rect x="80.3" y="52.2" class="st0" width="14.8" height="14.8"/>
		<rect x="95.1" y="52.2" class="st0" width="14.8" height="14.8"/>
		<rect x="139.4" y="52.2" class="st0" width="14.8" height="14.8"/>
		<rect x="21.3" y="66.9" class="st0" width="14.8" height="14.8"/>
		<rect x="65.6" y="66.9" class="st0" width="14.8" height="14.8"/>
		<rect x="80.3" y="66.9" class="st0" width="14.8" height="14.8"/>
		<rect x="95.1" y="66.9" class="st0" width="14.8" height="14.8"/>
		<rect x="139.4" y="66.9" class="st0" width="14.8" height="14.8"/>
		<rect x="21.3" y="81.7" class="st0" width="14.8" height="14.8"/>
		<rect x="65.6" y="81.7" class="st0" width="14.8" height="14.8"/>
		<rect x="80.3" y="81.7" class="st0" width="14.8" height="14.8"/>
		<rect x="95.1" y="81.7" class="st0" width="14.8" height="14.8"/>
		<rect x="139.4" y="81.7" class="st0" width="14.8" height="14.8"/>
		<rect x="21.3" y="96.5" class="st0" width="14.8" height="14.8"/>
		<rect x="139.4" y="96.5" class="st0" width="14.8" height="14.8"/>
		<rect x="21.3" y="111.2" class="st0" width="14.8" height="14.8"/>
		<rect x="139.4" y="111.2" class="st0" width="14.8" height="14.8"/>
		<rect x="21.3" y="126" class="st0" width="14.8" height="14.8"/>
		<rect x="36.1" y="126" class="st0" width="14.8" height="14.8"/>
		<rect x="50.8" y="126" class="st0" width="14.8" height="14.8"/>
		<rect x="65.6" y="126" class="st0" width="14.8" height="14.8"/>
		<rect x="80.3" y="126" class="st0" width="14.8" height="14.8"/>
		<rect x="95.1" y="126" class="st0" width="14.8" height="14.8"/>
		<rect x="109.8" y="126" class="st0" width="14.8" height="14.8"/>
		<rect x="124.6" y="126" class="st0" width="14.8" height="14.8"/>
		<rect x="139.4" y="126" class="st0" width="14.8" height="14.8"/>
	</g>
	<g>
		<rect x="286.1" y="7.9" class="st0" width="14.8" height="14.8"/>
		<rect x="300.9" y="7.9" class="st0" width="14.8" height="14.8"/>
		<rect x="315.7" y="7.9" class="st0" width="14.8" height="14.8"/>
		<rect x="330.4" y="7.9" class="st0" width="14.8" height="14.8"/>
		<rect x="345.2" y="7.9" class="st0" width="14.8" height="14.8"/>
		<rect x="359.9" y="7.9" class="st0" width="14.8" height="14.8"/>
		<rect x="374.7" y="7.9" class="st0" width="14.8" height="14.8"/>
		<rect x="389.4" y="7.9" class="st0" width="14.8" height="14.8"/>
		<rect x="404.2" y="7.9" class="st0" width="14.8" height="14.8"/>
		<rect x="286.1" y="22.7" class="st0" width="14.8" height="14.8"/>
		<rect x="404.2" y="22.7" class="st0" width="14.8" height="14.8"/>
		<rect x="286.1" y="37.4" class="st0" width="14.8" height="14.8"/>
		<rect x="404.2" y="37.4" class="st0" width="14.8" height="14.8"/>
		<rect x="286.1" y="52.2" class="st0" width="14.8" height="14.8"/>
		<rect x="330.4" y="52.2" class="st0" width="14.8" height="14.8"/>
		<rect x="345.2" y="52.2" class="st0" width="14.8" height="14.8"/>
		<rect x="359.9" y="52.2" class="st0" width="14.8" height="14.8"/>
		<rect x="404.2" y="52.2" class="st0" width="14.8" height="14.8"/>
		<rect x="286.1" y="66.9" class="st0" width="14.8" height="14.8"/>
		<rect x="330.4" y="66.9" class="st0" width="14.8" height="14.8"/>
		<rect x="345.2" y="66.9" class="st0" width="14.8" height="14.8"/>
		<rect x="359.9" y="66.9" class="st0" width="14.8" height="14.8"/>
		<rect x="404.2" y="66.9" class="st0" width="14.8" height="14.8"/>
		<rect x="286.1" y="81.7" class="st0" width="14.8" height="14.8"/>
		<rect x="330.4" y="81.7" class="st0" width="14.8" height="14.8"/>
		<rect x="345.2" y="81.7" class="st0" width="14.8" height="14.8"/>
		<rect x="359.9" y="81.7" class="st0" width="14.8" height="14.8"/>
		<rect x="404.2" y="81.7" class="st0" width="14.8" height="14.8"/>
		<rect x="286.1" y="96.5" class="st0" width="14.8" height="14.8"/>
		<rect x="404.2" y="96.5" class="st0" width="14.8" height="14.8"/>
		<rect x="286.1" y="111.2" class="st0" width="14.8" height="14.8"/>
		<rect x="404.2" y="111.2" class="st0" width="14.8" height="14.8"/>
		<rect x="286.1" y="126" class="st0" width="14.8" height="14.8"/>
		<rect x="300.9" y="126" class="st0" width="14.8" height="14.8"/>
		<rect x="315.7" y="126" class="st0" width="14.8" height="14.8"/>
		<rect x="330.4" y="126" class="st0" width="14.8" height="14.8"/>
		<rect x="345.2" y="126" class="st0" width="14.8" height="14.8"/>
		<rect x="359.9" y="126" class="st0" width="14.8" height="14.8"/>
		<rect x="374.7" y="126" class="st0" width="14.8" height="14.8"/>
		<rect x="389.4" y="126" class="st0" width="14.8" height="14.8"/>
		<rect x="404.2" y="126" class="st0" width="14.8" height="14.8"/>
	</g>
</g>
</svg>
