<?xml version="1.0" encoding="utf-8"?>
<!-- Generator: Adobe Illustrator 26.5.0, SVG Export Plug-In . SVG Version: 6.00 Build 0)  -->
<svg version="1.1" id="Vrstva_1" xmlns="http://www.w3.org/2000/svg" xmlns:xlink="http://www.w3.org/1999/xlink" x="0px" y="0px"
	 viewBox="0 0 438 410" style="enable-background:new 0 0 438 410;" xml:space="preserve">
<style type="text/css">
	.st0{fill:#009B3E;}
</style>
<g>
	<path class="st0" d="M126.5,376.9l261.7-261.7c7.6-7.6,8-19.5,1-26.6L338,37.5c-3.2-3.2-7.6-5-12.4-5c-5.2,0-10.4,2.2-14.2,6
		L49.8,300.2c-7.6,7.6-8,19.5-1,26.6l51.2,51.2c3.2,3.2,7.6,5,12.4,5C117.5,382.9,122.7,380.8,126.5,376.9z M80.3,317.7
		c0,3-1.2,5.7-3.2,7.8c-2.1,2.1-4.9,3.2-7.8,3.2s-5.7-1.2-7.8-3.2c-4.3-4.3-4.3-11.3,0-15.6c2.1-2.1,4.9-3.2,7.8-3.2
		s5.7,1.2,7.8,3.2C79.1,312,80.3,314.8,80.3,317.7z M98.6,347.1c2.1-2.1,4.9-3.2,7.8-3.2s5.7,1.2,7.8,3.2c2.1,2.1,3.2,4.9,3.2,7.8
		s-1.2,5.7-3.2,7.8c-2.1,2.1-4.9,3.2-7.8,3.2s-5.7-1.2-7.8-3.2C94.3,358.4,94.3,351.4,98.6,347.1z M100.7,307.2
		c2.1-2.1,4.9-3.3,7.9-3.3c3,0,5.8,1.2,7.9,3.3c2.1,2.1,3.3,4.9,3.3,7.9c0,3-1.2,5.8-3.3,7.9c-2.1,2.1-4.9,3.3-7.9,3.3
		c-3,0-5.8-1.2-7.9-3.3c-2.1-2.1-3.3-4.9-3.3-7.9C97.5,312.1,98.6,309.3,100.7,307.2z M114.5,261.2c3,0,5.8,1.2,7.9,3.3
		c4.3,4.3,4.3,11.4,0,15.7c-2.1,2.1-4.9,3.3-7.9,3.3c-3,0-5.8-1.2-7.9-3.3c-4.3-4.3-4.3-11.4,0-15.7
		C108.7,262.4,111.5,261.2,114.5,261.2z M291.5,111c-2.1,2.1-4.9,3.3-7.9,3.3c-3,0-5.8-1.2-7.9-3.3c-4.3-4.3-4.3-11.4,0-15.7
		c2.1-2.1,4.9-3.3,7.9-3.3c3,0,5.8,1.2,7.9,3.3C295.9,99.6,295.9,106.7,291.5,111z M358.3,87.4c2.1-2.1,4.9-3.2,7.8-3.2
		s5.7,1.2,7.8,3.2c2.1,2.1,3.2,4.9,3.2,7.8c0,3-1.2,5.7-3.2,7.8c-2.1,2.1-4.9,3.2-7.8,3.2s-5.7-1.2-7.8-3.2
		C353.9,98.7,353.9,91.7,358.3,87.4z M336.7,65.9c-2.1,2.1-4.9,3.2-7.8,3.2c-3,0-5.7-1.2-7.8-3.2c-4.3-4.3-4.3-11.3,0-15.6
		c2.1-2.1,4.9-3.2,7.8-3.2c3,0,5.7,1.2,7.8,3.2C341,54.5,341,61.5,336.7,65.9z M334.3,105.1c-2.1,2.1-4.9,3.3-7.9,3.3
		c-3,0-5.8-1.2-7.9-3.3c-2.1-2.1-3.3-4.9-3.3-7.9c0-3,1.2-5.8,3.3-7.9c2.1-2.1,4.9-3.3,7.9-3.3c3,0,5.8,1.2,7.9,3.3
		C338.6,93.8,338.6,100.8,334.3,105.1z M320.8,151.4c-3,0-5.8-1.2-7.9-3.3c-4.3-4.3-4.3-11.4,0-15.7c2.1-2.1,4.9-3.3,7.9-3.3
		c3,0,5.8,1.2,7.9,3.3c4.3,4.3,4.3,11.4,0,15.7C326.6,150.3,323.8,151.4,320.8,151.4z M246.6,110.9c1.4-1.4,3.3-2.2,5.4-2.2
		c2,0,3.9,0.8,5.4,2.2l59.5,59.5c3,3,3,7.8,0,10.7c-1.4,1.4-3.3,2.2-5.4,2.2c-2,0-3.9-0.8-5.4-2.2l-59.5-59.5
		C243.6,118.7,243.6,113.9,246.6,110.9z M181.7,305.5L122.2,246c-1.4-1.4-2.2-3.3-2.2-5.4c0-2,0.8-3.9,2.2-5.4
		c1.4-1.4,3.3-2.2,5.4-2.2c2,0,3.9,0.8,5.4,2.2l59.5,59.5c3,3,3,7.8,0,10.7c-1.4,1.4-3.3,2.2-5.4,2.2S183.1,306.9,181.7,305.5z
		 M140.5,309.5c0-3,1.2-5.8,3.3-7.9c2.1-2.1,4.9-3.3,7.9-3.3c3,0,5.8,1.2,7.9,3.3c2.1,2.1,3.3,4.9,3.3,7.9s-1.2,5.8-3.3,7.9
		c-2.1,2.1-4.9,3.3-7.9,3.3c-3,0-5.8-1.2-7.9-3.3C141.6,315.3,140.5,312.5,140.5,309.5z M134.5,200.9l76.8-76.8l-84.8-84.8
		c-3.8-3.8-9-6-14.2-6c-4.7,0-9.1,1.8-12.4,5L48.8,89.5c-7,7-6.6,19,1,26.6L134.5,200.9z M75.7,105.8c-2.1,2.1-4.9,3.2-7.8,3.2
		c-3,0-5.7-1.2-7.8-3.2c-4.3-4.3-4.3-11.3,0-15.6c2.1-2.1,4.9-3.2,7.8-3.2c3,0,5.7,1.2,7.8,3.2C80,94.4,80,101.5,75.7,105.8z
		 M116.1,60.8c0,3-1.2,5.7-3.2,7.8c-2.1,2.1-4.9,3.2-7.8,3.2c-3,0-5.7-1.2-7.8-3.2c-2.1-2.1-3.2-4.9-3.2-7.8c0-3,1.2-5.7,3.2-7.8
		c2.1-2.1,4.9-3.2,7.8-3.2c3,0,5.7,1.2,7.8,3.2S116.1,57.8,116.1,60.8z M119.7,101.2c0,3-1.2,5.8-3.3,7.9s-4.9,3.3-7.9,3.3
		c-3,0-5.8-1.2-7.9-3.3s-3.3-4.9-3.3-7.9c0-3,1.2-5.8,3.3-7.9s4.9-3.3,7.9-3.3c3,0,5.8,1.2,7.9,3.3
		C118.5,95.4,119.7,98.2,119.7,101.2z M122.3,151.8c-2.1,2.1-4.9,3.3-7.9,3.3c-3,0-5.8-1.2-7.9-3.3c-4.3-4.3-4.3-11.4,0-15.7
		c2.1-2.1,4.9-3.3,7.9-3.3c3,0,5.8,1.2,7.9,3.3C126.7,140.4,126.7,147.4,122.3,151.8z M162.7,106.8c0,3-1.2,5.8-3.3,7.9
		c-2.1,2.1-4.9,3.3-7.9,3.3c-3,0-5.8-1.2-7.9-3.3c-2.1-2.1-3.3-4.9-3.3-7.9c0-3,1.2-5.8,3.3-7.9c2.1-2.1,4.9-3.3,7.9-3.3
		c3,0,5.8,1.2,7.9,3.3C161.6,101,162.7,103.8,162.7,106.8z M192.4,121.5L133,181c-1.4,1.4-3.3,2.2-5.4,2.2c-2,0-3.9-0.8-5.4-2.2
		c-3-3-3-7.8,0-10.7l59.5-59.5c1.4-1.4,3.3-2.2,5.4-2.2s3.9,0.8,5.4,2.2C195.4,113.8,195.4,118.6,192.4,121.5z M302.6,215.4
		l-76.8,76.8l85.6,85.6c3.8,3.8,9,6,14.2,6l0,0c4.7,0,9.1-1.8,12.4-5l51.2-51.2c7-7,6.6-19-1-26.6L302.6,215.4z M358.2,314
		c2.1-2.1,4.9-3.2,7.8-3.2s5.7,1.2,7.8,3.2c4.3,4.3,4.3,11.3,0,15.6c-2.1,2.1-4.9,3.2-7.8,3.2s-5.7-1.2-7.8-3.2
		C353.9,325.3,353.9,318.3,358.2,314z M321,351.1c2.1-2.1,4.9-3.2,7.8-3.2c3,0,5.7,1.2,7.8,3.2c2.1,2.1,3.2,4.9,3.2,7.8
		s-1.2,5.7-3.2,7.8c-2.1,2.1-4.9,3.2-7.8,3.2c-3,0-5.7-1.2-7.8-3.2C316.7,362.5,316.7,355.4,321,351.1z M315.3,319
		c0-3,1.2-5.8,3.3-7.9c2.1-2.1,4.9-3.3,7.9-3.3c3,0,5.8,1.2,7.9,3.3c4.3,4.3,4.3,11.4,0,15.7c-2.1,2.1-4.9,3.3-7.9,3.3
		c-3,0-5.8-1.2-7.9-3.3C316.4,324.7,315.3,322,315.3,319z M312.9,268.1c2.1-2.1,4.9-3.3,7.9-3.3c3,0,5.8,1.2,7.9,3.3
		c4.3,4.3,4.3,11.4,0,15.7c-2.1,2.1-4.9,3.3-7.9,3.3c-3,0-5.8-1.2-7.9-3.3C308.6,279.5,308.6,272.4,312.9,268.1z M275.8,305.2
		c2.1-2.1,4.9-3.3,7.9-3.3c3,0,5.8,1.2,7.9,3.3c4.3,4.3,4.3,11.4,0,15.7c-2.1,2.1-4.9,3.3-7.9,3.3c-3,0-5.8-1.2-7.9-3.3
		C271.5,316.6,271.5,309.6,275.8,305.2z M246.6,294.6l59.5-59.5c1.4-1.4,3.3-2.2,5.4-2.2c2,0,3.9,0.8,5.4,2.2c3,3,3,7.8,0,10.7
		l-59.5,59.5c-1.4,1.4-3.3,2.2-5.4,2.2c-2,0-3.9-0.8-5.4-2.2C243.6,302.4,243.6,297.6,246.6,294.6z"/>
</g>
</svg>
