<?xml version="1.0" encoding="utf-8"?>
<!-- Generator: Adobe Illustrator 26.0.3, SVG Export Plug-In . SVG Version: 6.00 Build 0)  -->
<svg version="1.1" id="Vrstva_1" xmlns="http://www.w3.org/2000/svg" xmlns:xlink="http://www.w3.org/1999/xlink" x="0px" y="0px"
	 viewBox="0 0 438 410" style="enable-background:new 0 0 438 410;" xml:space="preserve">
<style type="text/css">
	.st0{fill:#009A3E;stroke:#FFFFFF;stroke-width:6.0108;stroke-miterlimit:10;}
	.st1{fill:#009A3E;}
	.st2{fill:#FFFFFF;}
</style>
<g>
	<g>
		<path class="st0" d="M287.3,56.6v18.5c-7.3-2.6-15.3-4-23.5-4h-81.6c-8.2,0-16.2,1.4-23.5,4V56.6H287.3z"/>
		<path class="st1" d="M309.4,60.7H136.6c-6.9,0-12.5-5.6-12.5-12.5V16.6c0-6.9,5.6-12.5,12.5-12.5h172.7c6.9,0,12.5,5.6,12.5,12.5
			v31.7C321.8,55.1,316.3,60.7,309.4,60.7z"/>
		<path class="st1" d="M334,141.2V368c0,20.1-16.3,36.4-36.4,36.4H148.4c-20.1,0-36.4-16.3-36.4-36.4V141.2
			c0-30.5,19.4-56.4,46.7-66.2c7.3-2.6,15.3-4,23.5-4h81.6c8.2,0,16.2,1.4,23.5,4C314.5,84.7,334,110.7,334,141.2z"/>
	</g>
	<g>
		<path class="st2" d="M214.8,115.7c16.3,12.9,26.3,40.5,26.3,40.5s-28.4-4.5-44.6-17.4s-19.4-22.7-14.3-29.2
			C187.2,103.2,198.5,102.8,214.8,115.7z"/>
		<path class="st2" d="M239.9,177.6c17.9,4.9,35.8,24.2,35.8,24.2s-24.9,6-42.8,1.1c-17.9-4.9-23.8-12.1-21.9-19.1
			C212.8,177,222,172.7,239.9,177.6z"/>
		<path class="st2" d="M265.7,240.6c11.9,7.3,20.7,25,20.7,25s-19.3-0.9-31.1-8.1c-11.8-7.2-14.7-13.7-11.8-18.4
			C246.4,234.4,253.9,233.2,265.7,240.6z"/>
		<path class="st2" d="M266.9,310.7c8.8,7.1,14.2,22.3,14.2,22.3s-15.5-2.6-24.2-9.8c-8.8-7.1-10.5-12.6-7.6-16
			C252.1,303.8,258.1,303.5,266.9,310.7z"/>
		<path class="st2" d="M310.7,210.4c-8.7,10.6-27.1,16.8-27.1,16.8s3.4-18.7,12.2-29.3c8.7-10.6,15.3-12.5,19.4-9
			C319.2,192.4,319.3,199.9,310.7,210.4z"/>
		<path class="st2" d="M316.1,289.7c-11.6,7.3-31,7.6-31,7.6s9-16.7,20.6-24s18.4-7.1,21.3-2.6C329.9,275.3,327.8,282.4,316.1,289.7
			z"/>
		<g>
			<path class="st2" d="M288.1,287.2c-2.1,31.2-9.4,66.4-21.6,105h-3.1c31.3-97.7,24.2-156,11.8-188.5
				c-7.8-20.5-18.7-33.2-26.3-40.1c-8.3-7.5-14.9-10.4-15-10.4l1.1-2.7c0.3,0.1,6.9,2.9,15.6,10.8c7.9,7.1,19.1,20.1,27.1,41.1
				C286.8,225.8,290.3,254.4,288.1,287.2z"/>
		</g>
	</g>
	<path class="st2" d="M192.4,391.8c-3.6,1.2-5.5-0.1-7.3-3c-8.2-13.4-16-26.9-21.1-42c-7.9-23.3-7.4-46.4,1.2-69.5
		c4.4-11.9,8-24,6.4-38.3c-1.1,16.2-6.5,30-12.3,43.5c-10.5,24.9-9.1,49.5,1.1,74c0.6,1.4,1,2.8,1.5,4.2c-0.5,0.3-1,0.7-1.5,1
		c-4.6-5.6-9.9-10.9-13.9-16.9c-7.3-11-12.7-22.9-13.7-36.3c-1-12.4,2.3-23.9,7-35.1c3.8-9.2,8.2-18.3,12.3-27.4
		c5.7-13.2,8.8-26.5,2-41.4c2.7,0.7,4.5,1,6.3,1.7c13.8,5.5,24.1,15.5,33,27c12.1,15.7,20,33.1,19.9,53.3
		c-0.1,12.8-4,24.5-10.8,35.4c-4.8,7.9-10.2,15.6-15,23.5c-7.6,12.6-7.8,25.2,0.1,37.8c0.3,0.5,0.6,0.9,1.7,2.2
		c4-24.2,15.6-41.9,38.9-50.6c-0.3-0.3-0.7-0.7-1-1c-5.1,2.7-10.6,4.8-15.3,8.1c-4.8,3.3-9.6,7.2-13.3,11.8
		c-3.6,4.5-5.9,10.2-8.7,15.3c-3.1-9.7,2.1-26.4,11.1-33.4c4.8-3.8,10.7-6.4,16.2-9.3c3.6-1.9,7.4-3.2,11.2-4.9
		c5.9-2.7,10.5-6.8,12.7-13.2c0.5,0,1-0.1,1.4-0.1c1.2,3.8,3,7.5,3.5,11.5c1.7,11.8,0.2,23.2-5.9,33.7c-5.4,9.5-14.1,14.4-24.3,16.9
		c-3.5,0.8-7,1.6-10.6,2.7C196.2,376,192,381.9,192.4,391.8z"/>
</g>
</svg>
