<?xml version="1.0" encoding="utf-8"?>
<!-- Generator: Adobe Illustrator 26.5.0, SVG Export Plug-In . SVG Version: 6.00 Build 0)  -->
<svg version="1.1" id="Vrstva_1" xmlns="http://www.w3.org/2000/svg" xmlns:xlink="http://www.w3.org/1999/xlink" x="0px" y="0px"
	 viewBox="0 0 438 410" style="enable-background:new 0 0 438 410;" xml:space="preserve">
<style type="text/css">
	.st0{fill:#009B3E;}
</style>
<g>
	<path class="st0" d="M119.9,368.9l53-134.2v-77.5h-6.4c-4.6,0-8.4-3.8-8.4-8.4c0-4.6,3.7-8.4,8.4-8.4h14.8c4.6,0,8.4,3.8,8.4,8.4
		v86.6c0,0.3,0,0.7-0.1,1l-0.1,0.5c0,0.9-0.2,1.8-0.6,2.7L157,320.4h111.2l-30.8-80.8c-0.4-0.9-0.6-2.3-0.6-3.3
		c-0.1-0.5-0.1-1-0.1-1.4v-85.9c0-4.6,3.7-8.4,8.4-8.4h14.4c4.6,0,8.4,3.8,8.4,8.4c0,4.6-3.7,8.4-8.4,8.4h-6v76.9
		c0,0.2,0.1,0.4,0.1,0.6L304.7,369c0.4,1,0.6,2,0.6,3c0,10.5-8.6,19.1-19.1,19.1H138.4c-10.5,0-19.1-8.6-19.1-19.1
		C119.3,370.9,119.5,369.9,119.9,368.9z M205.5,88.6c-13.8,0-25,11.2-25,25c0,13.8,11.2,25,25,25c13.8,0,25-11.2,25-25
		C230.5,99.8,219.3,88.6,205.5,88.6z M228.8,292.6c0-6.8-5.5-12.3-12.3-12.3c-6.8,0-12.3,5.5-12.3,12.3c0,6.8,5.5,12.3,12.3,12.3
		C223.3,304.9,228.8,299.4,228.8,292.6z M206.1,255.3c6.8,0,12.3-5.5,12.3-12.3c0-6.8-5.5-12.3-12.3-12.3c-6.8,0-12.3,5.5-12.3,12.3
		C193.8,249.8,199.3,255.3,206.1,255.3z M218,199.3c6.8,0,12.3-5.5,12.3-12.3s-5.5-12.3-12.3-12.3c-6.8,0-12.3,5.5-12.3,12.3
		S211.2,199.3,218,199.3z M272.1,42.6c0-16.9-13.7-30.6-30.6-30.6C224.6,12,211,25.7,211,42.6s13.7,30.6,30.6,30.6
		C258.4,73.1,272.1,59.5,272.1,42.6z"/>
</g>
</svg>
