<?xml version="1.0" encoding="utf-8"?>
<!-- Generator: Adobe Illustrator 26.0.3, SVG Export Plug-In . SVG Version: 6.00 Build 0)  -->
<svg version="1.1" id="Vrstva_1" xmlns="http://www.w3.org/2000/svg" xmlns:xlink="http://www.w3.org/1999/xlink" x="0px" y="0px"
	 viewBox="0 0 400 400" style="enable-background:new 0 0 400 400;" xml:space="preserve">
<style type="text/css">
	.st0{fill:none;stroke:#009534;stroke-width:19;stroke-miterlimit:10;}
	.st1{fill:#009534;stroke:#009534;stroke-width:4;stroke-miterlimit:10;}
</style>
<g>
	<path class="st0" d="M111.15,152.77H50.98L23,359.76l22.29,27.15h310.43L378,359.76l-27.98-206.99h-63.67"/>
	<path class="st0" d="M254.72,152.77H142.7"/>
</g>
<path class="st1" d="M243.12,16.53c-27.75-11.78-61.31-11.78-88.95,0c-12.53,5.34-22.78,12.41-30.68,21.17
	c-38.61,42.82-6.18,108.04-4.82,110.72c1.34,2.66,4.56,4.29,7.91,4.29c0.98,0,1.97-0.14,2.92-0.43c4.25-1.29,6.31-5.12,4.59-8.56
	c-0.29-0.6-29.77-60.89,3.35-97.24c10.81-11.86,27.29-19.93,49.17-24.13c7.89-1.51,16.2-1.51,24.1,0
	c21.91,4.2,38.46,12.26,49.37,24.13c33.41,36.35,4.41,96.65,4.13,97.24c-1.69,3.43,0.4,7.27,4.66,8.56
	c0.95,0.29,1.95,0.43,2.92,0.43c3.35,0,6.56-1.63,7.89-4.29c1.33-2.69,33.23-67.9-5.71-110.72
	C265.99,28.93,255.69,21.87,243.12,16.53z"/>
</svg>
