<?xml version="1.0" encoding="utf-8"?>
<!-- Generator: Adobe Illustrator 26.0.3, SVG Export Plug-In . SVG Version: 6.00 Build 0)  -->
<svg version="1.1" id="Vrstva_1" xmlns="http://www.w3.org/2000/svg" xmlns:xlink="http://www.w3.org/1999/xlink" x="0px" y="0px"
	 viewBox="0 0 438 410" style="enable-background:new 0 0 438 410;" xml:space="preserve">
<style type="text/css">
	.st0{fill:#009B3E;}
	.st1{fill:#FFFFFF;}
	.st2{fill:#009B3E;stroke:#FFFFFF;stroke-width:2.9827;stroke-miterlimit:10;}
	.st3{enable-background:new    ;}
</style>
<g>
	<path class="st0" d="M238.6,117.5c-10.9,14.2-12.8,30.1-12.8,47c0,17.4,0,48.7,0,66.1c0,5.4,0,10.7,0,16.1c0,1.7,0,3.5,0,5.2
		c0,25.2,0,50.4,0,75.6c0,21.5,8.4,41.6,27,54.5c11.7,8.2,25.6,12.2,40.1,12.2c11.9,0,23.6,0.3,35.1-3.2
		c26.9-8.3,44.6-33.1,45.1-59.7c0-26.5,0-52.9,0-79.4c0-1.6,0-3.4,0-5.2c0-20.1,0-50,0-68.2c0-10.9,0.9-22.3-0.8-33.1
		c-4.8-30.7-32.8-53.2-65.1-53.7c-10.3-0.2-20.8-0.4-31,1.7C261.4,96.5,247.6,105.7,238.6,117.5z"/>
	<path class="st1" d="M240.1,246.7c-0.2-28.8-1.2-68.6,0.2-95.8c0.8-15,10.1-28.9,22.9-37.3c11.4-7.4,23.9-8.3,37.1-8.3
		c13.7,0,25.6,1.7,37.3,9.3c13,8.5,20.6,23.3,21.4,38.1c1.4,26.6,0.3,65.8,0.1,94L240.1,246.7L240.1,246.7z"/>
</g>
<g>
	<path class="st2" d="M50.4,300.6c0.2,53.4,43.9,96.7,97.3,96.5c53.4-0.2,96.7-43.9,96.4-97.3c-0.2-53.4-43.9-96.7-97.3-96.5
		C93.5,203.5,50.2,247.2,50.4,300.6z"/>
	<path class="st1" d="M155.3,216.2c42.6,4,76.2,39.9,76.4,83.6c0.2,43.7-33,79.9-75.6,84.3L155.3,216.2z"/>
	<path class="st1" d="M63,300.6c-0.2-43.7,33-79.9,75.6-84.3l0.8,167.9C96.7,380.1,63.2,344.3,63,300.6z"/>
</g>
<g class="st3">
	<path class="st0" d="M235.6,102.6c-10.4,11.3-21.4,26.2-21.4,37.4v10.1h-32.9v-11c0-14.9,10.1-31,20-40.8
		c10.1-9.8,20.3-24.2,20.3-37.4c0-12.4-9-23.6-25.6-23.6c-16.6,0-27,14.1-28.1,30.1l-31.8-4.5c3.1-18,10.4-31.8,21.9-41.6
		c11.5-9.8,25.3-14.9,40.8-14.9c17.7,0,31.8,5.1,42.2,15.2c10.7,9.8,16,22.8,16,38.3C257,74.4,246,91.3,235.6,102.6z M214.2,203.3
		H181v-31.8h33.2V203.3z"/>
</g>
</svg>
