<svg xmlns="http://www.w3.org/2000/svg" width="93" height="28"><defs><filter id="a" width="125%" height="185%" x="-12.5%" y="-30%" filterUnits="objectBoundingBox"><feOffset dy="2" in="SourceAlpha" result="shadowOffsetOuter1"/><feGaussianBlur in="shadowOffsetOuter1" result="shadowBlurOuter1" stdDeviation="2"/><feColorMatrix in="shadowBlurOuter1" result="shadowMatrixOuter1" values="0 0 0 0 0 0 0 0 0 0 0 0 0 0 0 0 0 0 0.2 0"/><feMerge><feMergeNode in="shadowMatrixOuter1"/><feMergeNode in="SourceGraphic"/></feMerge></filter></defs><g fill="none" fill-rule="evenodd" filter="url(#a)" transform="translate(7 3)"><path fill="#FFF" stroke="#FFF" stroke-width="5" d="M14.14 3.62c.96.49 1.85.88 2.3 1.97.45 1.07-.47 5.58-.46 8.6v.43c.04 1.08-.39 3.18-1.3 2.69-.3-.16-.72-1.06-1.07-2.08-.55-1.65-.1-5.73-.56-5.81a21.6 21.6 0 0 1-3.38 2.87c-1.26.81-1.66-.3-1.88-1.04a13.85 13.85 0 0 0-1.53-3.03c-.15-.12-.17.05-.2.16-.07.26-.47 3-.9 4.5-.47 1.61-1.56 4.27-2.07 4.9-.51.62-2.63 1.15-3.06 1.17-.28.06 1.5-3.56 1.91-5.09.6-1.57 1.5-5.2 1.62-7.64.1-1.6-.04-3.1-.06-3.53 0-.58.6-.9.93-.96.38-.08 1.21-.24 2.07.72C7 3 7.78 4.87 8 5.33c.26.58 1.39 3.19 1.56 3.8.56-.4 1.4-1.22 2.24-2.14.91-.99 1.92-2.64 2.04-3.47.1-.03.2.04.3.1zm27.23 11.2s-.45-3.05-.46-3.29c-.5-.2-1.12-1.2-1.24-2.26-.2-1.83.03-2.88.87-3.78.42-.46.8-.17.73.49-.06.63-.1 1.65-.1 2.05.14 2.9 5.9.6 7.22-1.17 1.17-1.54 1.74-1.49 1.94-.78.17.62.05 1.76-.2 2.76a3.9 3.9 0 0 1-1.22 2.15 9.44 9.44 0 0 1-5.12 1.7c.21 1.3.02 3.79.02 3.79-.32 2.42-1.12 1.69-1.39 1.48-.86-.5-1.05-3.13-1.05-3.13zm-2.84-2.89c-1.14 1.25-4.75.87-4.7 1.46.04.4.43 3.21-.13 3.73s-.52.35-1.74-.36c-.8-.46-.9-1.96-.87-3.38-1.48.13-3.04.3-3.16.33-.2.05-.49.06-.63.22-.18.2-.08.54.02.76.12.26.26.53.4.78.25.46.57 1 .45 1.56-.08.37-.3.58-.7.43-.42-.16-2.73-2.8-3-3.02-.23-.19-.75-.13-1.04-.1-.74.07-2.97.24-3.34.27-1.02.08-.97.28-1.72 1.35-.17.24-.88 1.67-.96 1.47-.13-.34-.83-.69-.85-1.22-.01-.54.3-.91.44-1.13.15-.24.18-.71-.1-.78-.28-.06-.26-.44-.25-.66.01-.29.06-.59.11-.88.06-.34.17-.66.54-.75.3-.07.6-.03.9-.11.33-.09.43-.31.58-.59.1-.2 2.67-5.09 2.8-5.75.05-.25.44-.4.73-.19.5.37 2.83 4.4 3.06 4.75.67 1.01.8 1.04 1.56 1.03l4.3-.07c.09-1.3.25-1.83.8-1.94.57-.12 1.44.52 2 1.9.77-.06 2.3-.1 2.47-.79.38-1.54-7.74-3.34-9.38-1.77-.86.81-2.23-1.65-1.53-2.07 2.87-1.7 7.9-.5 10.67.78 2.77 1.3 3 3.95 2.27 4.74zm34.4 1.75a43.14 43.14 0 0 0 2.55-.25 8 8 0 0 1 3.88.34c.2.08.4.17.57.28-.3.34-.79.8-1.57 1.17-1.67.7-2.94 1.04-4.48 1.23-.6.07-1.2.15-1.82.2a27.33 27.33 0 0 1-6.37-.08 2.58 2.58 0 0 1-1.81-.91c-.16-.18-.24-.4-.39-.59-.05-.07-.98.45-1.06.5-.44.24-.9.38-1.36.56-.44.18-.86.3-1.34.39a4.9 4.9 0 0 1-3.38-.58 4.75 4.75 0 0 1-1.8-2 5.67 5.67 0 0 1 .28-5.33c.2-.32.43-.62.69-.89a8.14 8.14 0 0 1 6.17-2.45c.48 0 .94.09 1.34.34.36.22.76.67.74 1.13 0 .37-.42.67-.73.83-.1.04-1.07.45-1.1.38l-.2-.34a8.85 8.85 0 0 0-2.95 1.03 6.87 6.87 0 0 0-2.1 1.75c-.5.68-.93 1.66-.17 2.36.35.32 1.03.3 1.47.3.89-.05 1.77-.07 2.65-.14l1.3-.11 1.32-.14.21.15c.45-.27.9-.54 1.37-.76 1.04-.5 2.11-.9 3.17-1.34 1.14-.46 2.32-.8 3.46-1.28.3-.12 1.8-.6 1.23-1.1-.46-.4-1.2-.27-1.75-.22-.76.08-1.51.21-2.27.29-.55.05-1.28.23-1.73-.2-.42-.4.08-1.3.2-1.73.2-.86 1.7-.9 2.39-.98a13.27 13.27 0 0 1 4.7.2c1.28.39 2.93 1.1 2.84 2.68-.07 1.3-2.54 1.9-2.54 1.9s-2.63.74-3.93 1.2c-.46.16-4.22 1.4-3.15 2.08.37.24 1.12.28 1.55.32 1.34.12 2.6-.1 3.91-.2zm-19.65 2.11c-.02.48-.22.9-.5 1.23-.58.68-1.63.68-2.13-.16a2.54 2.54 0 0 1-.11-1.9c.09-.25.28-.53.45-.7.33-.31.8-.4 1.2-.32.43.1.87.62 1.02 1.14a2 2 0 0 1 .07.71zm-29.97-4.43c.04-.05-.01-.15-.01-.15l-.79-1.98s-.03-.1-.12-.1c-.1 0-.17.17-.17.17l-1.16 1.97-.01.07v.05l.01.05.03.04.04.03.06.02.08.01h.74l1.13-.12s.12 0 .17-.06z"/><path fill="#C8232A" d="M14.14 3.62c.96.49 1.85.88 2.3 1.97.45 1.07-.47 5.58-.46 8.6v.43c.04 1.08-.39 3.18-1.3 2.69-.3-.16-.72-1.06-1.07-2.08-.55-1.65-.1-5.73-.56-5.81a21.6 21.6 0 0 1-3.38 2.87c-1.26.81-1.66-.3-1.88-1.04a13.85 13.85 0 0 0-1.53-3.03c-.15-.12-.17.05-.2.16-.07.26-.47 3-.9 4.5-.47 1.61-1.56 4.27-2.07 4.9-.51.62-2.63 1.15-3.06 1.17-.28.06 1.5-3.56 1.91-5.09.6-1.57 1.5-5.2 1.62-7.64.1-1.6-.04-3.1-.06-3.53 0-.58.6-.9.93-.96.38-.08 1.21-.24 2.07.72C7 3 7.78 4.87 8 5.33c.26.58 1.39 3.19 1.56 3.8.56-.4 1.4-1.22 2.24-2.14.91-.99 1.92-2.64 2.04-3.47.1-.03.2.04.3.1"/><path fill="#000" d="M41.37 14.83s-.45-3.06-.46-3.3c-.5-.2-1.12-1.2-1.24-2.26-.2-1.83.03-2.88.87-3.78.42-.46.8-.17.73.49-.06.63-.1 1.65-.1 2.05.14 2.9 5.9.6 7.22-1.17 1.17-1.54 1.74-1.49 1.94-.78.17.62.05 1.76-.2 2.76a3.9 3.9 0 0 1-1.22 2.15 9.44 9.44 0 0 1-5.12 1.7c.21 1.3.02 3.79.02 3.79-.32 2.42-1.12 1.69-1.39 1.48-.86-.5-1.05-3.13-1.05-3.13zm-2.84-2.9c-1.14 1.25-4.75.87-4.7 1.46.04.4.43 3.21-.13 3.73s-.52.35-1.74-.36c-.8-.46-.9-1.96-.87-3.38-1.48.13-3.04.3-3.16.33-.2.05-.49.06-.63.22-.18.2-.08.54.02.76.12.26.26.53.4.78.25.46.57 1 .45 1.56-.08.37-.3.58-.7.43-.42-.16-2.73-2.8-3-3.02-.23-.19-.75-.13-1.04-.1-.74.07-2.97.24-3.34.27-1.02.08-.97.28-1.72 1.35-.17.24-.88 1.67-.96 1.47-.13-.34-.83-.69-.85-1.22-.01-.54.3-.91.44-1.13.15-.24.18-.71-.1-.78-.28-.06-.26-.44-.25-.66.01-.29.06-.59.11-.88.06-.34.17-.66.54-.75.3-.07.6-.03.9-.11.33-.09.43-.31.58-.59.1-.2 2.67-5.09 2.8-5.75.05-.25.44-.4.73-.19.5.37 2.83 4.4 3.06 4.75.67 1.01.8 1.04 1.56 1.03l4.3-.07c.09-1.3.25-1.83.8-1.94.57-.12 1.44.52 2 1.9.77-.06 2.3-.1 2.47-.79.38-1.54-7.74-3.34-9.38-1.77-.86.81-2.23-1.65-1.53-2.07 2.87-1.7 7.9-.5 10.67.78 2.77 1.3 3 3.95 2.27 4.74zm34.4 1.75a43.14 43.14 0 0 0 2.55-.25 8 8 0 0 1 3.88.34c.2.08.4.17.57.28-.3.34-.79.8-1.57 1.17-1.67.7-2.94 1.04-4.48 1.23-.6.07-1.2.15-1.82.2a27.33 27.33 0 0 1-6.37-.08 2.58 2.58 0 0 1-1.81-.91c-.16-.18-.24-.4-.39-.59-.05-.07-.98.45-1.06.5-.44.24-.9.38-1.36.56-.44.18-.86.3-1.34.39a4.9 4.9 0 0 1-3.38-.58 4.75 4.75 0 0 1-1.8-2 5.67 5.67 0 0 1 .28-5.33c.2-.32.43-.62.69-.89a8.14 8.14 0 0 1 6.17-2.45c.48 0 .94.09 1.34.34.36.22.76.67.74 1.13 0 .37-.42.67-.73.83-.1.04-1.07.45-1.1.38l-.2-.34a8.85 8.85 0 0 0-2.95 1.03 6.87 6.87 0 0 0-2.1 1.75c-.5.68-.93 1.66-.17 2.36.35.32 1.03.3 1.47.3.89-.05 1.77-.07 2.65-.14l1.3-.11 1.32-.14.21.15c.45-.27.9-.54 1.37-.76 1.04-.5 2.11-.9 3.17-1.34 1.14-.46 2.32-.8 3.46-1.28.3-.12 1.8-.6 1.23-1.1-.46-.4-1.2-.27-1.75-.22-.76.08-1.51.21-2.27.29-.55.05-1.28.23-1.73-.2-.42-.4.08-1.3.2-1.73.2-.86 1.7-.9 2.39-.98a13.27 13.27 0 0 1 4.7.2c1.28.39 2.93 1.1 2.84 2.68-.07 1.3-2.54 1.9-2.54 1.9s-2.63.74-3.93 1.2c-.46.16-4.22 1.4-3.15 2.08.37.24 1.12.28 1.55.32 1.34.12 2.6-.1 3.91-.2zm-19.65 2.11c-.02.48-.22.9-.5 1.23-.58.68-1.63.68-2.13-.16a2.54 2.54 0 0 1-.11-1.9c.09-.25.28-.53.45-.7.33-.31.8-.4 1.2-.32.43.1.87.62 1.02 1.14a2 2 0 0 1 .07.71zm-29.97-4.43c.04-.05-.01-.15-.01-.15l-.79-1.98s-.03-.1-.12-.1c-.1 0-.17.17-.17.17l-1.16 1.97-.01.07v.05l.01.05.03.04.04.03.06.02.08.01h.74l1.13-.12s.12 0 .17-.06z"/></g></svg>
