<?xml version="1.0" encoding="utf-8"?>
<!-- Generator: Adobe Illustrator 26.0.3, SVG Export Plug-In . SVG Version: 6.00 Build 0)  -->
<svg version="1.1" id="Vrstva_1" xmlns="http://www.w3.org/2000/svg" xmlns:xlink="http://www.w3.org/1999/xlink" x="0px" y="0px"
	 viewBox="0 0 438 410" style="enable-background:new 0 0 438 410;" xml:space="preserve">
<style type="text/css">
	
		.st0{clip-path:url(#SVGID_00000108272456001521663870000018232040738841487260_);fill:none;stroke:#009A3E;stroke-width:19.6021;stroke-miterlimit:10;}
	.st1{fill:#009A3E;}
	.st2{fill:#FFFFFF;}
</style>
<g>
	<g>
		<defs>
			<rect id="SVGID_1_" x="26.4" y="19.3" width="386.3" height="377.9"/>
		</defs>
		<clipPath id="SVGID_00000090273488039335435100000014322295571951602080_">
			<use xlink:href="#SVGID_1_"  style="overflow:visible;"/>
		</clipPath>
		
			<path style="clip-path:url(#SVGID_00000090273488039335435100000014322295571951602080_);fill:none;stroke:#009A3E;stroke-width:19.6021;stroke-miterlimit:10;" d="
			M219.5,376.6c0,0,176.1-120,176.1-230.2C395.6,14.5,275,38,275,38s-55.6,11.8-55.6,64.1c0-52.3-55.6-64.1-55.6-64.1
			S43.4,14.4,43.4,146.3C43.4,255.7,219.5,376.6,219.5,376.6z"/>
	</g>
</g>
<circle class="st1" cx="118.2" cy="279.5" r="95"/>
<polygon class="st2" points="42.2,302.3 42.2,256.7 95.5,256.7 95.5,203.4 141.1,203.4 141.1,256.7 194.4,256.7 194.4,302.3 
	141.1,302.3 141.1,355.6 95.5,355.6 95.5,302.3 "/>
</svg>
