<?xml version="1.0" encoding="utf-8"?>
<!-- Generator: Adobe Illustrator 26.1.0, SVG Export Plug-In . SVG Version: 6.00 Build 0)  -->
<svg version="1.1" id="Vrstva_1" xmlns="http://www.w3.org/2000/svg" xmlns:xlink="http://www.w3.org/1999/xlink" x="0px" y="0px"
	 viewBox="0 0 438 410" style="enable-background:new 0 0 438 410;" xml:space="preserve">
<style type="text/css">
	.st0{fill:#009B3E;}
</style>
<path class="st0" d="M293.7,88.7c-31.6,0-42.8,45.5-46.8,77.1l-14-14v-119c0-8.8-7.1-15.9-15.9-15.9c-8.8,0-15.9,7.1-15.9,15.9
	v120.2l-12.9,12.9c-4-31.5-15.3-77.1-46.8-77.1c-17.3-1.6-163.9,44.8-122.7,269.9c2.2,12,8.8,32.1,34.5,34.5
	c25.7,2.4,134.7-45.7,137-104.7c1.1-29.6,0.6-73.6,0.4-88.2l27-27l27,27c-0.2,14.6-0.8,58.7,0.4,88.2c2.3,59,111.3,107.1,137,104.7
	c25.7-2.4,32.3-22.5,34.5-34.5C457.6,133.5,311,87.1,293.7,88.7z"/>
</svg>
