<?xml version="1.0" encoding="utf-8"?>
<!-- Generator: Adobe Illustrator 26.1.0, SVG Export Plug-In . SVG Version: 6.00 Build 0)  -->
<svg version="1.1" id="Vrstva_1" xmlns="http://www.w3.org/2000/svg" xmlns:xlink="http://www.w3.org/1999/xlink" x="0px" y="0px"
	 viewBox="0 0 438 410" style="enable-background:new 0 0 438 410;" xml:space="preserve">
<style type="text/css">
	
		.st0{clip-path:url(#SVGID_00000064345111789204703690000018202390409999831202_);fill:none;stroke:#009A3E;stroke-width:19.6021;stroke-miterlimit:10;}
	.st1{fill:none;stroke:#009A3E;stroke-width:17.5387;stroke-linecap:round;stroke-linejoin:round;stroke-miterlimit:10;}
</style>
<g>
	<defs>
		<rect id="SVGID_1_" x="25.4" y="18.5" width="386.3" height="377.9"/>
	</defs>
	<clipPath id="SVGID_00000054265253533965861260000007172564861086693565_">
		<use xlink:href="#SVGID_1_"  style="overflow:visible;"/>
	</clipPath>
	
		<path style="clip-path:url(#SVGID_00000054265253533965861260000007172564861086693565_);fill:none;stroke:#009A3E;stroke-width:19.6021;stroke-miterlimit:10;" d="
		M218.5,375.8c0,0,176.1-120,176.1-230.2c0-131.9-120.6-108.4-120.6-108.4s-55.6,11.8-55.6,64.1c0-52.3-55.6-64.1-55.6-64.1
		S42.4,13.6,42.4,145.5C42.4,254.9,218.5,375.8,218.5,375.8z"/>
</g>
<g>
	<polyline class="st1" points="14.7,200.5 121.3,200.5 182.5,139.3 204.1,244.3 224.8,164.1 232.9,200.5 241.6,196.6 248.1,204.4 
		253.3,200.5 422.3,200.5 	"/>
</g>
</svg>
