<?xml version="1.0" encoding="utf-8"?>
<!-- Generator: Adobe Illustrator 26.0.3, SVG Export Plug-In . SVG Version: 6.00 Build 0)  -->
<svg version="1.1" id="Vrstva_1" xmlns="http://www.w3.org/2000/svg" xmlns:xlink="http://www.w3.org/1999/xlink" x="0px" y="0px"
	 viewBox="0 0 438 410" style="enable-background:new 0 0 438 410;" xml:space="preserve">
<style type="text/css">
	.st0{fill:none;stroke:#009534;stroke-width:17.7653;stroke-miterlimit:10;}
	.st1{fill:none;stroke:#009A3E;stroke-width:13.3239;stroke-miterlimit:10;}
	.st2{fill:none;stroke:#009A3E;stroke-width:23.687;stroke-miterlimit:10;}
	.st3{fill:#009A3E;}
</style>
<g>
	<line class="st0" x1="419" y1="256.5" x2="419" y2="303.3"/>
	<g>
		<path class="st0" d="M246.2,10.5c-5-1.9-66.8,26.9-35.2,78.6c1.4,2.3,3,4.7,5.2,6.4c22.4,16.8,42.1,18.4,46.3,38.2
			c3,17.1,9.4,37.1,47.4,38.7c27.4,1.4,68.6,1.2,75.4,20.2c0.7,1.7,0.8,3.5,0.8,5.3v20.5"/>
		<path class="st1" d="M360.7,305.6H21.9c0,0-7.5-0.8-7.5-13.6v-30.7c0,0,0-6.4,7.5-6.4h338.8v20.7"/>
		<line class="st0" x1="391.3" y1="256.5" x2="391.3" y2="303.3"/>
		<path class="st0" d="M271.7,37.9c0,0,61.3,2.8,56.8,52.5c-1.8,19,11.9,35.9,30.8,38.3c29.8,3.8,58.6,15.9,58.6,57.8v31.8"/>
		<line class="st2" x1="37.4" y1="111.9" x2="391.3" y2="397.9"/>
		<rect x="14.5" y="254.9" class="st3" width="118.5" height="50.7"/>
	</g>
</g>
</svg>
