<?xml version="1.0" encoding="utf-8"?>
<!-- Generator: Adobe Illustrator 26.0.3, SVG Export Plug-In . SVG Version: 6.00 Build 0)  -->
<svg version="1.1" id="Vrstva_1" xmlns="http://www.w3.org/2000/svg" xmlns:xlink="http://www.w3.org/1999/xlink" x="0px" y="0px"
	 viewBox="0 0 400 400" style="enable-background:new 0 0 400 400;" xml:space="preserve">
<style type="text/css">
	.st0{fill:#009534;}
	.st1{fill:#FFFFFF;stroke:#009534;stroke-width:5.5442;stroke-miterlimit:10;}
</style>
<g>
	<g>
		<path class="st0" d="M365.8,123.1h-16.4c1.7,8.7-0.8,18-7.5,24.7c-5.2,5.2-12.1,8-19.4,8c-7.3,0-14.2-2.9-19.4-8l-24.7-24.7H123.9
			l-24.7,24.7c-5.2,5.2-12.1,8-19.4,8c-7.3,0-14.2-2.9-19.4-8c-5.2-5.2-8-12.1-8-19.4c0-1.8,0.2-3.6,0.5-5.3H33.2
			c-11.7,0-21.2,9.5-21.2,21.2c0,11.7,9.5,21.2,21.2,21.2h0.8L80.5,324c2.3,8.3,10.1,14.4,19,14.4h202.4c8.9,0,16.7-6.1,19-14.4
			l44.5-158.5h0.5c11.7,0,21.2-9.5,21.2-21.2C387,132.6,377.5,123.1,365.8,123.1z"/>
		<path class="st0" d="M177,15.2C185,23.2,185,36,177,44l-82.8,98.8c-7.9,7.9-20.8,7.9-28.7,0l0,0c-7.9-7.9-7.9-20.8,0-28.7
			l82.8-98.8C156.2,7.3,169.1,7.3,177,15.2L177,15.2z"/>
		<path class="st0" d="M225.4,15.2c-7.9,7.9-7.9,20.8,0,28.7l82.8,98.8c7.9,7.9,20.8,7.9,28.7,0l0,0c7.9-7.9,7.9-20.8,0-28.7
			l-82.8-98.8C246.2,7.3,233.3,7.3,225.4,15.2L225.4,15.2z"/>
	</g>
</g>
<path class="st1" d="M228.5,329.4l21.8-26.4c2.4-2.9,5.5-6.6,8.6-10.4l75,59.5c0,0,0,0,0,0l27.1-32.8l-75-59.5
	c3.1-3.8,6.2-7.5,8.6-10.4l21.8-26.4c4.7-5.7,1.5-11.1-7-12.1l-117.7-12.6c-4.3-0.5-7.7,0.8-9.7,3.2c-2,2.4-2.6,6-1.3,10.1
	l34.7,113.2C217.9,333.1,223.8,335.1,228.5,329.4z"/>
</svg>
