<?xml version="1.0" encoding="utf-8"?>
<!-- Generator: Adobe Illustrator 26.0.3, SVG Export Plug-In . SVG Version: 6.00 Build 0)  -->
<svg version="1.1" id="Vrstva_1" xmlns="http://www.w3.org/2000/svg" xmlns:xlink="http://www.w3.org/1999/xlink" x="0px" y="0px"
	 viewBox="0 0 438 410" style="enable-background:new 0 0 438 410;" xml:space="preserve">
<style type="text/css">
	.st0{fill:#009534;}
	.st1{font-family:'MyriadPro-Black';}
	.st2{font-size:104.4084px;}
</style>
<g>
	<path class="st0" d="M344.5,100.5h39C341.7,37.8,279.1,1.7,211.3,1.7c-39.8,0-78.2,12.5-112.1,36.3L90.3,8.6L49.8,112.3l91.9-38.4
		L121.1,63C148.7,45.4,179.5,36,211.3,36C261.9,35.9,309.2,59.3,344.5,100.5z"/>
	<path class="st0" d="M82.3,307.9h-39c41.7,62.7,104.4,98.8,172.2,98.8c39.8,0,78.2-12.5,112.1-36.3l8.9,29.4L377,296.2l-91.9,38.4
		l20.6,10.8c-27.6,17.6-58.4,27.1-90.2,27.1C164.9,372.6,117.6,349.3,82.3,307.9z"/>
	<text transform="matrix(1 0 0 1 43.2988 238.8338)" class="st0 st1 st2">PO - NE</text>
</g>
</svg>
