<?xml version="1.0" encoding="utf-8"?>
<!-- Generator: Adobe Illustrator 26.5.0, SVG Export Plug-In . SVG Version: 6.00 Build 0)  -->
<svg version="1.1" id="Vrstva_1" xmlns="http://www.w3.org/2000/svg" xmlns:xlink="http://www.w3.org/1999/xlink" x="0px" y="0px"
	 viewBox="0 0 438 410" style="enable-background:new 0 0 438 410;" xml:space="preserve">
<style type="text/css">
	.st0{fill:#009B3E;}
	.st1{fill-rule:evenodd;clip-rule:evenodd;fill:#009B3E;}
</style>
<path class="st0" d="M23.4,48.4v311.1c0,23.3,18.9,42.2,42.2,42.2h311.1c23.3,0,42.2-18.9,42.2-42.2V48.4
	c0-23.3-18.9-42.2-42.2-42.2H65.6C42.3,6.2,23.4,25.1,23.4,48.4z M65.6,37.3h311.1c6.1,0,11.1,5,11.1,11.1v311.1
	c0,6.1-5,11.1-11.1,11.1H65.6c-6.1,0-11.1-5-11.1-11.1V48.4C54.5,42.3,59.5,37.3,65.6,37.3z M86.6,60.8L78.9,62l17.6,115.6l7.7-1.2
	c38.4-5.8,77.7-8.8,116.9-8.8c39.2,0,78.5,3,116.9,8.8l7.7,1.2L363.4,62l-7.7-1.2c-44.2-6.7-89.4-10.1-134.5-10.1
	C176,50.7,130.8,54.1,86.6,60.8z M205.6,152.2c-32.1,0.6-64.3,3.2-96,7.7L96.7,75.1c40.9-5.9,82.8-8.8,124.5-8.8
	c41.7,0,83.5,3,124.5,8.8l-12.9,84.8c-31.7-4.5-63.9-7.1-96-7.7c-2.2-7.2-4.5-14.3-6.9-21.4c-2.8-8.5-5.7-17-8.7-25.4
	c-3,8.5-5.9,16.9-8.7,25.4C210.1,137.9,207.8,145,205.6,152.2z M324,88l-4.1,33.7l-9.8-0.9l4.1-33.7L324,88z M296,85.7l-2.9,33.8
	l-9.8-0.6l2.9-33.8L296,85.7z M268,84.1l-1.8,33.8l-9.9-0.4l1.8-33.8L268,84.1z M239.9,83.3l-0.6,33.9l-9.9-0.1l0.6-33.9L239.9,83.3
	z M212.4,117.1l-9.9,0.2L202,83.4l9.9-0.2L212.4,117.1z M185.5,117.8l-9.9,0.4L174,84.4l9.9-0.4L185.5,117.8z M158.7,119.2l-9.8,0.7
	L146,86.1l9.8-0.7L158.7,119.2z M131.9,121.2l-9.8,0.9l-4-33.7l9.8-0.9L131.9,121.2z"/>
<g>
	<path class="st1" d="M129.2,215.2c9.4,16.8,4.5,8.8,13.1,22.8c0.9,1.5,1.7,3.2,2.3,4.9c1,2.6,8.5,19.4,12.7,14.4
		c0.8-3-1.5-5.5-2.9-8.1c-2.1-3.8-3.6-7.7-3.8-12.1c1.8,2.3,3.4,4.8,5.1,7.1c1.7,2.3,3.6,4.4,5.4,6.7c1.5,1.9,2.9,3.9,4.8,5.5
		c1.5,1.3,3.4,3.2,5.2,1.4c1.6-1.4,0.4-3.1-0.4-4.5c-1.2-2.1-2.7-4-4.1-6c-3-4.1-5.9-8.1-8.1-12.7l0.6-0.5c3.4,3.2,6.8,6.3,10.1,9.5
		c1.5,1.4,3,2.8,4.5,4.2c1,1,2,2,3,2.9c1.5,1.2,3.1,3.1,5.1,2.1l1-0.9c0.8-2.3-0.4-3.8-1.9-5.4c-1.8-2-3.6-4.1-5.3-6.2
		c-3.6-4.3-7.7-8.2-11.4-12.4c0.3-0.3,0.7-0.5,1-0.7c4.3,1.8,8.3,4.4,12,7.1c2,1.5,4.3,2.7,6.1,4.4c4.5,4,6.6,1.4,6.6,1.4
		c1.3-2.8-2.6-6.1-4.4-7.7c-0.6-0.6-7.5-6.2-12.8-9.7c-4.5-3-9-7.2-10.1-12.6l0.1-0.1c6.5-3.4,10.8-1.7,15-3.7
		c4.7-1.8,1.5-4.1,1.3-4.2c-4.1-0.1-8.3,0.1-12.4-0.2c-4.2-0.3-8.4-0.5-12.7-1.2c-3.9-0.6-9,0.5-12.1-0.5c-0.6-0.1-1.3-0.5-2.2-1
		c0.2-0.2,0.4-0.4,0.6-0.6c10.8-9.9,24-14.9,39.6-14.9c20.6,0,34.9,8.8,43,26.4c8.1-17.6,22.4-26.4,43-26.4c15.5,0,28.7,5,39.6,14.9
		c11.3,10.4,17,23.3,17,38.6c0,25.4-12.3,48.4-28.2,67.6c-15.2-23.2-7.3-12.2-22.9-34c-1.8-2.5-3.3-5.2-4.6-8
		c-2-4.3-16.9-32-23.3-22.9c-1,5.3,3.3,9.2,5.9,13.4c4,6.3,7.1,12.8,7.9,20.1c-3.3-3.7-6.3-7.7-9.6-11.5c-3.2-3.7-6.7-7.1-10-10.7
		c-2.8-3.1-5.4-6.3-8.8-8.8c-2.6-2-6.2-5.1-9-1.8c-2.5,2.5-0.4,5.3,1.2,7.7c2.3,3.4,5,6.5,7.6,9.7c5.5,6.6,11,13.2,15.4,20.6l-1,0.9
		c-6.1-5-12.3-10-18.4-14.9c-2.7-2.2-5.5-4.4-8.2-6.7c-1.8-1.5-3.6-3.1-5.5-4.5c-2.6-1.9-5.6-4.9-8.9-3l-1.5,1.7
		c-1.2,4,1.1,6.4,3.8,9c3.3,3.2,6.5,6.6,9.8,9.9c6.7,6.9,14.1,13,20.9,19.8c-0.5,0.5-1.1,1-1.7,1.4c-7.5-2.5-14.6-6.4-21.2-10.7
		c-3.6-2.3-7.6-4.1-10.9-6.7c-8.2-6.3-11.4-1.6-11.4-1.6c-1.9,4.9,5.1,10,8.4,12.7c1.2,0.9,13.5,9.7,22.9,15
		c8,4.5,16.3,11.1,18.6,20.3l-0.1,0.1c-10.7,6.6-18.2,4.1-25.1,8.1c-7.9,3.7-2,7.1-1.7,7.3c7-0.3,14-1.2,21.1-1.2
		c7.3,0.1,14.4-0.1,21.7,0.5c2.1,0.2,4.4,0.1,6.7-0.1c-19.9,16-37.5,25.5-39.6,26.1c-4.9-1.5-99.5-54.1-99.5-124.6
		c0-8.4,1.7-16,5.1-22.9C128.8,214.6,129.1,215,129.2,215.2z"/>
</g>
</svg>
