<?xml version="1.0" encoding="utf-8"?>
<!-- Generator: Adobe Illustrator 26.1.0, SVG Export Plug-In . SVG Version: 6.00 Build 0)  -->
<svg version="1.1" id="Vrstva_1" xmlns="http://www.w3.org/2000/svg" xmlns:xlink="http://www.w3.org/1999/xlink" x="0px" y="0px"
	 viewBox="0 0 438 410" style="enable-background:new 0 0 438 410;" xml:space="preserve">
<style type="text/css">
	.st0{clip-path:url(#SVGID_00000098940096052051661140000006679139936719044761_);fill:#009B3E;}
	
		.st1{clip-path:url(#SVGID_00000098940096052051661140000006679139936719044761_);fill:none;stroke:#FFFFFF;stroke-width:2.5479;stroke-miterlimit:10;}
</style>
<g>
	<defs>
		<rect id="SVGID_1_" x="3.8" y="28.9" width="427.6" height="308.8"/>
	</defs>
	<clipPath id="SVGID_00000027564056448648847800000008606284579457637795_">
		<use xlink:href="#SVGID_1_"  style="overflow:visible;"/>
	</clipPath>
	<path style="clip-path:url(#SVGID_00000027564056448648847800000008606284579457637795_);fill:#009B3E;" d="M217.6,317.1
		c-101.7,0-173.5-83.8-190.9-106.3c12.1-15.6,50.3-60.8,106.7-87c-16.8,19.5-27,44.8-27,72.5c0,61.3,49.8,111.1,111.1,111.1
		s111.1-49.8,111.1-111.1c0-27.6-10.2-52.9-26.9-72.4c56.3,26.2,94.6,71.3,106.7,86.9C391.1,233.3,319.5,317.1,217.6,317.1
		 M168.7,118.7c4.2,6,11.2,9.9,19.1,9.9c12.9,0,23.4-10.5,23.4-23.4l0-0.4c2.1-0.2,4.3-0.3,6.5-0.3c3.5,0,6.9,0.2,10.2,0.6
		c3.8,8.1,11.9,13.7,21.4,13.7c4.4,0,8.4-1.2,11.9-3.3c28.7,15.5,48.2,45.9,48.2,80.8c0,50.6-41.2,91.8-91.8,91.8
		s-91.8-41.2-91.8-91.8C125.8,163.7,142.9,135,168.7,118.7 M428.5,205.4c-2.8-4.2-60.9-87.3-155.7-112.8
		c-1.3-11.8-11.3-21.1-23.5-21.1c-9.6,0-17.9,5.7-21.6,14c-1.3-0.1-2.7-0.1-4.1-0.1c-2-0.1-4-0.2-6-0.2c-2,0-4,0.1-6,0.2
		c-3.6,0.1-7.1,0.3-10.6,0.6c-3.8-2.6-8.3-4.1-13.2-4.1c-7.5,0-14.2,3.6-18.5,9.1C70.4,114.1,9.7,201.1,6.7,205.4
		c-2.2,3.3-2.2,7.6,0,10.9c3.4,4.9,83.8,120.1,210.9,120.1s207.5-115.2,210.9-120.1C430.7,213,430.7,208.6,428.5,205.4"/>
	
		<path style="clip-path:url(#SVGID_00000027564056448648847800000008606284579457637795_);fill:none;stroke:#FFFFFF;stroke-width:2.5479;stroke-miterlimit:10;" d="
		M217.6,317.1c-101.7,0-173.5-83.8-190.9-106.3c12.1-15.6,50.3-60.8,106.7-87c-16.8,19.5-27,44.8-27,72.5
		c0,61.3,49.8,111.1,111.1,111.1s111.1-49.8,111.1-111.1c0-27.6-10.2-52.9-26.9-72.4c56.3,26.2,94.6,71.3,106.7,86.9
		C391.1,233.3,319.5,317.1,217.6,317.1 M168.7,118.7c4.2,6,11.2,9.9,19.1,9.9c12.9,0,23.4-10.5,23.4-23.4l0-0.4
		c2.1-0.2,4.3-0.3,6.5-0.3c3.5,0,6.9,0.2,10.2,0.6c3.8,8.1,11.9,13.7,21.4,13.7c4.4,0,8.4-1.2,11.9-3.3
		c28.7,15.5,48.2,45.9,48.2,80.8c0,50.6-41.2,91.8-91.8,91.8s-91.8-41.2-91.8-91.8C125.8,163.7,142.9,135,168.7,118.7 M428.5,205.4
		c-2.8-4.2-60.9-87.3-155.7-112.8c-1.3-11.8-11.3-21.1-23.5-21.1c-9.6,0-17.9,5.7-21.6,14c-1.3-0.1-2.7-0.1-4.1-0.1
		c-2-0.1-4-0.2-6-0.2c-2,0-4,0.1-6,0.2c-3.6,0.1-7.1,0.3-10.6,0.6c-3.8-2.6-8.3-4.1-13.2-4.1c-7.5,0-14.2,3.6-18.5,9.1
		C70.4,114.1,9.7,201.1,6.7,205.4c-2.2,3.3-2.2,7.6,0,10.9c3.4,4.9,83.8,120.1,210.9,120.1s207.5-115.2,210.9-120.1
		C430.7,213,430.7,208.6,428.5,205.4"/>
	<path style="clip-path:url(#SVGID_00000027564056448648847800000008606284579457637795_);fill:#009B3E;" d="M217.6,249.5
		c29.3,0,53.1-23.8,53.1-53.1c0-3.4-0.4-6.6-1-9.8c-4.6,5.3-11.1,9-18.4,10c-1.4,0.2-2.8,0.3-4.3,0.3c-16.6,0-30.1-13.5-30.1-30.1
		c0-1.5,0.1-2.9,0.3-4.3c1.1-7.3,4.7-13.8,10-18.4c-3.2-0.6-6.5-0.9-9.8-0.9c-29.3,0-53.1,23.8-53.1,53.1
		C164.5,225.6,188.3,249.5,217.6,249.5"/>
	
		<path style="clip-path:url(#SVGID_00000027564056448648847800000008606284579457637795_);fill:none;stroke:#FFFFFF;stroke-width:2.5479;stroke-miterlimit:10;" d="
		M217.6,249.5c29.3,0,53.1-23.8,53.1-53.1c0-3.4-0.4-6.6-1-9.8c-4.6,5.3-11.1,9-18.4,10c-1.4,0.2-2.8,0.3-4.3,0.3
		c-16.6,0-30.1-13.5-30.1-30.1c0-1.5,0.1-2.9,0.3-4.3c1.1-7.3,4.7-13.8,10-18.4c-3.2-0.6-6.5-0.9-9.8-0.9
		c-29.3,0-53.1,23.8-53.1,53.1C164.5,225.6,188.3,249.5,217.6,249.5"/>
	<path style="clip-path:url(#SVGID_00000027564056448648847800000008606284579457637795_);fill:#009B3E;" d="M255.9,167.3
		c8.7,0,15.8-7.1,15.8-15.8c0-8.7-7.1-15.8-15.8-15.8c-8.7,0-15.8,7.1-15.8,15.8C240.1,160.2,247.2,167.3,255.9,167.3"/>
	
		<path style="clip-path:url(#SVGID_00000027564056448648847800000008606284579457637795_);fill:none;stroke:#FFFFFF;stroke-width:2.5479;stroke-miterlimit:10;" d="
		M255.9,167.3c8.7,0,15.8-7.1,15.8-15.8c0-8.7-7.1-15.8-15.8-15.8c-8.7,0-15.8,7.1-15.8,15.8C240.1,160.2,247.2,167.3,255.9,167.3"
		/>
	<path style="clip-path:url(#SVGID_00000027564056448648847800000008606284579457637795_);fill:#009B3E;" d="M291.1,80
		c7.3,0,13.3-5.9,13.3-13.3c0-7.3-5.9-13.3-13.3-13.3c-7.3,0-13.3,6-13.3,13.3C277.8,74.1,283.8,80,291.1,80"/>
	
		<path style="clip-path:url(#SVGID_00000027564056448648847800000008606284579457637795_);fill:none;stroke:#FFFFFF;stroke-width:2.5479;stroke-miterlimit:10;" d="
		M291.1,80c7.3,0,13.3-5.9,13.3-13.3c0-7.3-5.9-13.3-13.3-13.3c-7.3,0-13.3,6-13.3,13.3C277.8,74.1,283.8,80,291.1,80"/>
	<path style="clip-path:url(#SVGID_00000027564056448648847800000008606284579457637795_);fill:#009B3E;" d="M218.6,62.6
		c9,0,16.3-7.3,16.3-16.3c0-9-7.3-16.3-16.3-16.3c-9,0-16.3,7.3-16.3,16.3C202.4,55.4,209.7,62.6,218.6,62.6"/>
	
		<path style="clip-path:url(#SVGID_00000027564056448648847800000008606284579457637795_);fill:none;stroke:#FFFFFF;stroke-width:2.5479;stroke-miterlimit:10;" d="
		M218.6,62.6c9,0,16.3-7.3,16.3-16.3c0-9-7.3-16.3-16.3-16.3c-9,0-16.3,7.3-16.3,16.3C202.4,55.4,209.7,62.6,218.6,62.6"/>
</g>
</svg>
