<?xml version="1.0" encoding="utf-8"?>
<!-- Generator: Adobe Illustrator 26.0.3, SVG Export Plug-In . SVG Version: 6.00 Build 0)  -->
<svg version="1.1" id="Vrstva_1" xmlns="http://www.w3.org/2000/svg" xmlns:xlink="http://www.w3.org/1999/xlink" x="0px" y="0px"
	 viewBox="0 0 438 410" style="enable-background:new 0 0 438 410;" xml:space="preserve">
<style type="text/css">
	.st0{fill:#009A3E;}
	.st1{fill:#FFFFFF;}
</style>
<g>
	<path class="st0" d="M306.1,279.9c-8.6-1.3-15.5,1.8-19.6,4.5c-1.5,1-3-0.3-2.7-2.1c1.9-10.3,5-34.1,4.6-62.3
		c-0.6-37.8-8.9-58.3-17.2-77.2c-1.8-4-3-8.3-3.8-12.6c-0.5-2.9-2.5-9.1-0.6-11.7c1.3-1.8,4.6-2,6.5-2.7c-1.2,9.1-1.7,17.2,0.9,26.2
		c0.3,1.2,3.8,11.9,4.7,12.1c2.9,0.6,4.5-7.8,5.2-9.8c5.5-15.4,24.8-20.8,36.2-30.6c8.1-6.9,6.2-18.6,2.4-25.3
		c-3.9-6.7-8.4-18.9-9.2-25.5s1.6-19.6-3.7-28.7s-21.4-8.1-23.7-8.9c-2.4-0.8-4.4-6.8-13.9-14.9s-22-9.4-22-9.4s-12.6-3.9-24.8-0.2
		c-12.2,3.7-16.6,8.4-19.1,8.2c-2.5-0.2-16.7-5.9-25.5,0.4S168.6,26.8,165,32.5c-3.6,5.7-13.1,15.1-19.5,19.7
		c-6.4,4.6-13.2,14.5-8.9,24s13.1,18.3,15.5,25s4.7,13.1,4.7,16.6c0.1,3.5-2.3,10.5-0.1,11.5c2.3,1.1,8.8-8.3,9.6-9.2
		c6.4-7.4,9.9-14.1,12-23.4c-0.2,0.8,2.5,2.2,2.9,2.7c4.8,4.6,2.9,14.6,2.5,20.6c-0.5,7.9-1.8,15.8-5,23.1
		c-8.3,18.9-16.6,39.4-17.2,77.2c-0.4,25.3,2,47.1,4,58.8c0.5,3-2.2,5.4-5,4c-4.1-2.1-9.8-3.8-16.7-2.8
		c-14.4,2.1-23.2,16.3-18.8,34.2c5.8,23.6,24.4,39.3,36.5,59.4c4.4,7.4,2.9,7.4,2.9,7.4l-5.8-0.8c-25.1-3.3-47.1-10.9-73-8
		c-16,1.8-32.1,5.7-46.9,12.1c-3.2,1.4-30.1,15.2-24.4,19.7c0.5,0.4,1,0.6,1.6,0.7c21.1,6.3,43.2,1.8,64.5-0.8
		c5.9-0.7,11.9-1.3,17.8-1.4c6.2-0.2,53.1-1.2,59.3-1c14.5,2.1,42.7,1.5,70.4,1.4c37.2-0.1,73.5-0.6,74-4.5c0.1-1,10.4-1.4,11.6-6.1
		s-3.1-7.9-4.1-8.3s-2.1-2.6-4.6-4.1c-2.5-1.6-9.3,0-9.3,0l-12,1.2c1.1-0.1,7.7-11.7,8.7-12.9c5.2-6.7,10.9-12.9,16.1-19.6
		C321.3,331.9,341.1,285,306.1,279.9z"/>
	<g>
		<path class="st1" d="M343.8,411.3c-4.6,0-9.3-0.4-14-1.1c-3-0.4-6.1-1-9.1-1.8c-1.7-0.4-3.2-0.8-4.7-1.2c-0.5-0.1-0.9-0.2-1.4-0.2
			c-0.3,0-0.6,0-1,0c-1.3,0.1-2.7,0.2-4,0.3c-2.1,0.2-4.2,0.3-6.3,0.5c-6.7,0.6-13.7,1.2-20.6,1.2c-5.6,0-10.6-0.4-15.3-1.2
			c-2.6-0.4-10.4-1.7-12.2-8.7c-1-4,0.3-7.8,3.8-10.4c1-0.7,2-1.3,3.1-1.8c-0.8-1.9-2.4-5.2-5.4-10.4l-0.2-0.4c-4-7-8.5-15-7.9-25.6
			c0.6-9.5,5.6-16.3,15-20.3c0.8-0.3,1.6-0.6,2.5-0.9c1.3-0.5,4.2-1.5,5-2.3c0-0.6,0-1.2,0-1.7v-2.1c-0.1-1.8-0.5-3.3-1-5.4
			c-0.7-3.1-1.7-7.4-2.7-15.3c-1.2-9.5-2.2-19.6-0.2-29.6c2.6-13.2,6.6-23.7,11.3-35.6c-4-4.7-6.5-10.7-6.9-16.9
			c-0.3-4.6,0.5-8.9,1.3-13c0.6-3.1,1.1-5.9,1.2-8.7c0-0.8,0-1.5-0.1-2.1c-0.2-2.3-0.8-4.6-1.5-7.1c-0.3-1.1-0.6-2.2-0.9-3.4
			c-0.8-3.4-2.3-11.8,1.4-16.6c1.6-2,4-3.2,6.6-3.2c0.9,0,1.8,0.1,2.7,0.3c2.8,0.7,5,2.5,6.6,3.8l10.2,8.3c0.4,0.3,1,0.8,1.2,0.9
			c0,0,0,0,0.1,0c0.5,0,1.3-0.2,2.1-0.4c0.5-0.1,1.1-0.3,1.6-0.4c2.2-0.5,4.9-0.7,7.5-0.7c1.5,0,3,0.1,4.3,0.2
			c0.6,0.1,1.1,0.2,1.7,0.3c0.8,0.1,1.5,0.2,2,0.2c0.2,0,0.3,0,0.3,0c0.2-0.1,0.8-0.7,1.1-1l9.5-9.1c1.5-1.4,3.5-3.4,6.3-4.3
			c1.1-0.4,2.3-0.6,3.3-0.6c2.5,0,4.8,1,6.4,2.9c3.9,4.5,3,12.8,2.5,16.2c-0.2,1.2-0.4,2.3-0.6,3.4c-0.5,2.5-0.9,4.9-1,7.2
			c0,0.7,0,1.4,0.1,2.1c0.3,3.2,1,6.2,1.7,9.1c1.5,6.6,3.1,13.5,0.5,22.1c-0.4,1.2-1.1,2.4-2.2,4.4c-0.6,1.1-1.6,2.9-2.1,3.9
			c0.6,1.6,1.3,3.2,1.9,4.7c4.3,10.6,8.3,20.7,10.7,32.9c1.9,10,0.9,20.1-0.2,29.6c-1,7.9-2,12.2-2.7,15.3c-0.5,2.3-0.9,3.7-1,5.7
			v1.9c0,0.5,0,1.1,0,1.7c0.7,0.8,3.7,1.8,5,2.3c0.9,0.3,1.7,0.6,2.5,0.9c3.3,1.4,6.1,3.2,8.3,5.3c-0.2-0.8-0.5-1.7-0.7-2.5
			c-0.8-2.7-1.6-5.5-2.4-8.3c-3.6-13.2-7.6-32.6-1.8-49.6c3.9-11.6,12-19.2,23.2-22.1c3.6-0.9,7.4-1.4,11.3-1.4
			c8.1,0,16.8,2,24.6,5.5c3.2,1.5,7.3,3.7,10.1,7.6c3.2,4.5,3.1,9.9-0.2,13.9c-2.3,2.8-5.5,4.2-9.3,4.2l0,0c-4.1,0-7.9-1.7-10.3-3.1
			c-5.1-2.9-10.8-4.4-16.6-4.4c-0.5,0-0.9,0-1.4,0c-6.8,0.3-10,9.2-10.7,14.4c-1.6,11,2.1,25.9,5.1,36.3
			c6.2,21.6,11.1,42.4,3.5,58.9c-3.5,7.6-9.6,14-17.6,18.4c-8.3,4.6-18.2,7.2-29.4,7.6C346,411.2,344.9,411.3,343.8,411.3z
			 M374.8,363.5c-1.6,4.7-3.9,8.9-6.1,12.7l-0.3,0.4c-1.3,2.2-2.2,4-3,5.5C372.2,377.3,374.4,370,374.8,363.5z"/>
		<path class="st0" d="M430,267.8c-2-2.8-5-4.5-8.1-6c-9.8-4.5-21.9-6.6-32.5-3.9c-11.1,2.8-16.9,10.5-19.7,18.8
			c-4.8,14.1-2.5,30.4,1.9,46.7c3.2,11.9,7.6,24,8.1,35.5c0.6,11.5-3,22.6-13.9,28.8c-2.2,1.2-4.7,2.3-7.4,3
			c-0.3-0.1-0.5-0.3-0.8-0.4c-2.5-1.3,5.7-15.1,6.6-16.6c4.1-7.2,7.8-14,7.2-22.8c-0.5-8.2-4.9-13-11.9-16
			c-3.3-1.4-10.3-2.8-10.5-7.5c0-0.8,0-1.5,0-2.2l0,0c0-7,1.8-8,3.7-23.4c1.2-9.3,2.1-18.8,0.3-28c-2.7-13.9-7.7-24.9-12.8-37.9
			c-0.7-2,3.9-8.4,4.6-10.5c3.3-10.9-1.3-18.6-2.3-29.2c-0.1-0.9-0.1-1.8-0.1-2.7c0-3.9,1-7.6,1.6-11.4c0.7-4.4,1.2-15.3-5.7-13
			c-1.7,0.6-3.1,1.9-4.4,3.2c-3.2,3-6.4,6.1-9.5,9.1c-0.8,0.8-1.6,1.6-2.6,2c-2,0.9-4.3,0.2-6.5-0.1c-3-0.4-7.1-0.2-10.1,0.4
			c-2.2,0.4-4.4,1.3-6.5,0.6c-1-0.4-1.9-1.1-2.8-1.8c-3.4-2.8-6.8-5.6-10.2-8.3c-1.4-1.2-2.9-2.4-4.7-2.8c-7-1.8-5.7,9-4.6,13.4
			c0.9,3.7,2.2,7.4,2.5,11.2c0.1,0.9,0.1,1.8,0.1,2.7c-0.1,7.1-2.9,14.1-2.5,21.3c0.4,6.1,3.2,11.9,7.4,15.8
			c0.1,0.1,0.2,0.2,0.3,0.3c-5.1,12.9-9.5,23.9-12.2,37.7c-1.8,9.2-0.9,18.7,0.3,28c1.9,15.4,3.7,16.4,3.7,23.4l0,0
			c0,0.7,0,1.4,0,2.2c-0.2,4.7-7.2,6.1-10.5,7.5c-7.1,3-11.4,7.8-11.9,16c-0.6,8.8,3.1,15.6,7.2,22.8c0.8,1.5,9.3,15.8,6.6,16.6
			c-3.4,1-8.6,2.9-7.4,7.6c0.9,3.5,5.1,4.5,8.2,5c13.6,2.3,27.4,0.5,41-0.6c1.4-0.1,2.7-0.2,4.1-0.3c1.5-0.1,2.6-0.1,4.1,0.3
			s3,0.8,4.4,1.2c2.9,0.7,5.8,1.2,8.7,1.7c5.4,0.8,11,1.2,16.5,1c9.4-0.4,18.9-2.4,27.2-7c6.6-3.7,12.3-9.2,15.5-16.1
			c7.1-15.6,1.6-36.7-3.8-55.5c-3.2-11.4-6.9-26.5-5.2-38.4c1.2-8.2,6-18.3,15.5-18.7c7.2-0.3,14.4,1.5,20.7,5
			c3.9,2.2,9.9,4.1,13.4,0C432.1,273.2,431.8,270.3,430,267.8z"/>
	</g>
</g>
</svg>
