<?xml version="1.0" encoding="utf-8"?>
<!-- Generator: Adobe Illustrator 26.5.0, SVG Export Plug-In . SVG Version: 6.00 Build 0)  -->
<svg version="1.1" id="Vrstva_1" xmlns="http://www.w3.org/2000/svg" xmlns:xlink="http://www.w3.org/1999/xlink" x="0px" y="0px"
	 viewBox="0 0 438 410" style="enable-background:new 0 0 438 410;" xml:space="preserve">
<style type="text/css">
	.st0{fill:#009B3E;}
	.st1{fill:#FFFFFF;}
</style>
<path class="st0" d="M111,52.1c34-19.2,43.6-20,90.8-8c6,1.5,11.7,2.6,17.2,3.2c5.5-0.6,11.2-1.7,17.2-3.2
	c47.2-12,56.9-11.1,90.6,7.9c31.7,16.2,48,61.4,39.7,110c-4.2,24.3-10.9,39.2-16.8,52.4c-7.8,17.4-14.6,32.5-14.6,65.4
	c0,61-23.2,94-45.1,94c-21.5,0-31.2-22.8-51.1-74.4c-6.1-15.7-13.5-25.1-20-25.1c-6.4,0-13.6,9.1-19.7,25.1
	c-19.9,51.6-29.6,74.4-51.1,74.4c-21.9,0-45.1-32.9-45.1-94c0-32.8-6.7-47.7-14.5-65c-5.9-13.2-12.7-28.2-16.9-52.8
	C63.1,113.5,79.4,68.2,111,52.1z"/>
<path class="st1" d="M197.2,142.2c-5.8,5.5-11.6,11.1-17.5,16.6l-13.6-7c-0.2-0.1-0.4-0.2-0.5-0.3c-0.8-0.5-1.5-1-2-1.5l-51.2-51.3
	c-3.8-3.8-3.8-10,0-13.8l2.3-2.3c3.4-3.4,9.3-3.7,13-0.7l17.3-17.4l39.3,39.3l-17.3,17.3l11.3,11.3L197.2,142.2z M253.5,184.1
	c-5.2,5.5-10.4,11-15.7,16.5l72.3,72.3c1.8,1.8,4.3,2.9,6.9,2.9c2.6,0,5.1-1,6.9-2.9l2.3-2.3c1.8-1.8,2.9-4.3,2.9-6.9
	c0-2.6-1-5.1-2.9-6.9L253.5,184.1z M109,233.6c15.3,15.3,30.7,30.7,46,46c38.7-41.2,99.8-104.8,138.4-146c0,0,0,0,0,0
	c0-6.5,0-13.1,0-19.6l0.2,0.2l13.2-13.3l-19.3-19.3L274.4,95l0.2,0.2c-6.5,0-13.1,0-19.6,0c0,0,0,0,0,0
	C213.8,133.9,150.2,195,109,233.6z"/>
</svg>
