<svg id="Profi_pristup" xmlns="http://www.w3.org/2000/svg" width="59" height="59" viewBox="0 0 59 59">
  <circle id="Ellipse_52" data-name="Ellipse 52" cx="29.5" cy="29.5" r="29.5" fill="#ebf4ff"/>
  <g id="ikona_hvězda" data-name="ikona hvězda" transform="translate(-28 -215)">
    <g id="star" transform="translate(31 218)">
      <path id="Vector" d="M32.381,42.128a8.137,8.137,0,0,1-4.065-1.322l-5.9-3.493a2.808,2.808,0,0,0-2.388,0l-5.92,3.493c-3.493,2.072-5.545,1.243-6.472.572-.908-.671-2.328-2.388-1.4-6.334l1.4-6.058a2.785,2.785,0,0,0-.631-2.19L2.112,21.9C-.335,19.456-.138,17.364.2,16.338S1.6,13.5,4.992,12.925l6.295-1.046a2.822,2.822,0,0,0,1.7-1.263L16.477,3.65C18.055.474,20.127,0,21.212,0s3.157.474,4.736,3.65L29.421,10.6a2.921,2.921,0,0,0,1.717,1.263L37.432,12.9c3.414.572,4.479,2.388,4.795,3.414s.513,3.118-1.914,5.564L35.42,26.8a2.839,2.839,0,0,0-.631,2.19l1.4,6.058c.908,3.946-.493,5.663-1.4,6.334A4.037,4.037,0,0,1,32.381,42.128ZM21.212,34.078a5.4,5.4,0,0,1,2.7.691l5.9,3.493c1.717,1.026,2.8,1.026,3.216.73s.71-1.342.276-3.276l-1.4-6.058A5.772,5.772,0,0,1,33.328,24.7l4.894-4.894c.967-.967,1.4-1.914,1.2-2.565-.217-.651-1.125-1.184-2.467-1.4L30.664,14.8A5.784,5.784,0,0,1,26.8,11.938L23.324,4.992C22.692,3.729,21.9,2.98,21.212,2.98s-1.48.75-2.092,2.013l-3.493,6.946A5.784,5.784,0,0,1,11.761,14.8L5.486,15.845c-1.342.217-2.249.75-2.467,1.4s.237,1.618,1.2,2.565L9.117,24.7a5.755,5.755,0,0,1,1.421,4.953l-1.4,6.058c-.454,1.953-.138,2.98.276,3.276s1.48.276,3.216-.73l5.9-3.493A5.274,5.274,0,0,1,21.212,34.078Z" transform="translate(2.466 2.605)" fill="#046aeb"/>
      <path id="Vector-2" data-name="Vector" d="M0,0H47.357V47.357H0Z" fill="none" opacity="0"/>
    </g>
  </g>
</svg>
