<svg id="Doprava_zdarma" data-name="Doprava zdarma" xmlns="http://www.w3.org/2000/svg" width="59" height="59" viewBox="0 0 59 59">
  <circle id="Ellipse_50" data-name="Ellipse 50" cx="29.5" cy="29.5" r="29.5" fill="#ebf4ff"/>
  <g id="ikona_dodávka" data-name="ikona dodávka" transform="translate(-748 -180.07)">
    <g id="truck-fast" transform="translate(748 188)">
      <path id="Vector" d="M21.115,25.352H19.237a1.408,1.408,0,0,1,0-2.817h1.878a2.348,2.348,0,0,0,2.347-2.347V2.817H7.97A6.12,6.12,0,0,0,2.636,5.953,1.408,1.408,0,1,1,.176,4.582,8.955,8.955,0,0,1,7.97,0h16.9A1.419,1.419,0,0,1,26.28,1.408V20.188A5.161,5.161,0,0,1,21.115,25.352Z" transform="translate(3.297 2.347)" fill="#046aeb"/>
      <path id="Vector-2" data-name="Vector" d="M33.333,30.986H31.455a1.419,1.419,0,0,1-1.408-1.408,2.347,2.347,0,0,0-4.695,0,1.419,1.419,0,0,1-1.408,1.408H16.432a1.419,1.419,0,0,1-1.408-1.408,2.347,2.347,0,0,0-4.695,0A1.419,1.419,0,0,1,8.92,30.986H7.042A7.045,7.045,0,0,1,0,23.944a1.419,1.419,0,0,1,1.408-1.408,1.419,1.419,0,0,1,1.408,1.408,4.232,4.232,0,0,0,4.225,4.225H7.7a5.175,5.175,0,0,1,9.953,0h5.089a5.175,5.175,0,0,1,9.953,0h.639a4.232,4.232,0,0,0,4.225-4.225V19.718H33.333a3.3,3.3,0,0,1-3.286-3.286V10.8a3.29,3.29,0,0,1,3.286-3.286L31.324,4a2.351,2.351,0,0,0-2.047-1.183H27.23V14.554a5.161,5.161,0,0,1-5.164,5.164H20.188a1.408,1.408,0,0,1,0-2.817h1.878a2.348,2.348,0,0,0,2.347-2.347V1.408A1.419,1.419,0,0,1,25.822,0h3.455a5.16,5.16,0,0,1,4.488,2.61l3.211,5.615a1.446,1.446,0,0,1,0,1.408,1.4,1.4,0,0,1-1.221.695H33.333a.465.465,0,0,0-.469.469v5.634a.465.465,0,0,0,.469.469h5.634a1.419,1.419,0,0,1,1.408,1.408v5.634A7.045,7.045,0,0,1,33.333,30.986Z" transform="translate(2.347 7.981)" fill="#046aeb"/>
      <path id="Vector-3" data-name="Vector" d="M5.164,10.329a5.164,5.164,0,1,1,5.164-5.164A5.161,5.161,0,0,1,5.164,10.329Zm0-7.512A2.347,2.347,0,1,0,7.512,5.164,2.348,2.348,0,0,0,5.164,2.817Z" transform="translate(9.859 32.394)" fill="#046aeb"/>
      <path id="Vector-4" data-name="Vector" d="M5.164,10.329a5.164,5.164,0,1,1,5.164-5.164A5.161,5.161,0,0,1,5.164,10.329Zm0-7.512A2.347,2.347,0,1,0,7.512,5.164,2.348,2.348,0,0,0,5.164,2.817Z" transform="translate(24.883 32.394)" fill="#046aeb"/>
      <path id="Vector-5" data-name="Vector" d="M8.92,12.207H3.286A3.3,3.3,0,0,1,0,8.92V3.286A3.3,3.3,0,0,1,3.286,0H5.709A1.375,1.375,0,0,1,6.93.714l3.211,5.634a1.478,1.478,0,0,1,.188.695V10.8A1.419,1.419,0,0,1,8.92,12.207ZM3.286,2.817a.465.465,0,0,0-.469.469V8.92a.465.465,0,0,0,.469.469H7.512V7.418l-2.629-4.6Z" transform="translate(32.394 15.493)" fill="#046aeb"/>
      <path id="Vector-6" data-name="Vector" d="M12.676,2.817H1.408A1.419,1.419,0,0,1,0,1.408,1.419,1.419,0,0,1,1.408,0H12.676a1.419,1.419,0,0,1,1.408,1.408A1.419,1.419,0,0,1,12.676,2.817Z" transform="translate(2.347 13.615)" fill="#046aeb"/>
      <path id="Vector-7" data-name="Vector" d="M8.92,2.817H1.408A1.419,1.419,0,0,1,0,1.408,1.419,1.419,0,0,1,1.408,0H8.92a1.419,1.419,0,0,1,1.408,1.408A1.419,1.419,0,0,1,8.92,2.817Z" transform="translate(2.347 19.249)" fill="#046aeb"/>
      <path id="Vector-8" data-name="Vector" d="M5.164,2.817H1.408A1.419,1.419,0,0,1,0,1.408,1.419,1.419,0,0,1,1.408,0H5.164A1.419,1.419,0,0,1,6.573,1.408,1.419,1.419,0,0,1,5.164,2.817Z" transform="translate(2.347 24.883)" fill="#046aeb"/>
      <path id="Vector-9" data-name="Vector" d="M0,0H45.071V45.071H0Z" fill="none" opacity="0"/>
    </g>
  </g>
</svg>
