<svg id="Expedicedo24h" xmlns="http://www.w3.org/2000/svg" width="61" height="61" viewBox="0 0 61 61">
  <circle id="Ellipse_51" data-name="Ellipse 51" cx="30.5" cy="30.5" r="30.5" fill="#ebf4ff"/>
  <g id="Ikona_dodávka" data-name="Ikona dodávka" transform="translate(-167 -242.056)">
    <g id="truck-time" transform="translate(172 252)">
      <path id="Vector" d="M22.059,25.381H1.408A1.418,1.418,0,0,1,0,23.973V12a1.427,1.427,0,0,1,.92-1.333,1.4,1.4,0,0,1,1.558.413A5.943,5.943,0,0,0,7.171,13.16a5.9,5.9,0,0,0,3.942-1.6A5.131,5.131,0,0,0,12.3,10.119a6.054,6.054,0,0,0-1.22-7.641A1.4,1.4,0,0,1,10.682.92,1.421,1.421,0,0,1,12,0H25.813a1.418,1.418,0,0,1,1.408,1.408V20.181A5.168,5.168,0,0,1,22.059,25.381ZM2.816,22.565H22.059a2.348,2.348,0,0,0,2.347-2.347V2.854h-9.5a8.944,8.944,0,0,1,1.051,4.017,8.8,8.8,0,0,1-1.2,4.656,7.793,7.793,0,0,1-1.746,2.14,8.7,8.7,0,0,1-5.763,2.328,8.664,8.664,0,0,1-4.412-1.051v7.622Z" transform="translate(2.347 2.309)" fill="#046aeb"/>
      <path id="Vector-2" data-name="Vector" d="M33.322,30.976H31.445a1.418,1.418,0,0,1-1.408-1.408,2.347,2.347,0,1,0-4.693,0,1.418,1.418,0,0,1-1.408,1.408H16.427a1.418,1.418,0,0,1-1.408-1.408,2.347,2.347,0,1,0-4.693,0,1.418,1.418,0,0,1-1.408,1.408H7.04A7.043,7.043,0,0,1,0,23.936V18.3A1.418,1.418,0,0,1,1.408,16.9H22.059a2.348,2.348,0,0,0,2.347-2.347V1.408A1.418,1.418,0,0,1,25.813,0h3.454a5.159,5.159,0,0,1,4.487,2.61l3.21,5.613a1.445,1.445,0,0,1,0,1.408,1.4,1.4,0,0,1-1.22.695H33.322a.465.465,0,0,0-.469.469v5.632a.465.465,0,0,0,.469.469h5.632A1.418,1.418,0,0,1,40.362,18.3v5.632A7.043,7.043,0,0,1,33.322,30.976Zm-.657-2.816h.657a4.23,4.23,0,0,0,4.224-4.224V19.712H33.322a3.3,3.3,0,0,1-3.285-3.285V10.795a3.289,3.289,0,0,1,3.285-3.285L31.314,4a2.35,2.35,0,0,0-2.046-1.183H27.221V14.549a5.16,5.16,0,0,1-5.163,5.163H2.816v4.224A4.23,4.23,0,0,0,7.04,28.16H7.7a5.173,5.173,0,0,1,9.95,0h5.087a5.161,5.161,0,0,1,9.931,0Z" transform="translate(2.347 7.979)" fill="#046aeb"/>
      <path id="Vector-3" data-name="Vector" d="M5.163,10.325a5.163,5.163,0,1,1,5.163-5.163A5.16,5.16,0,0,1,5.163,10.325Zm0-7.509A2.347,2.347,0,1,0,7.509,5.163,2.348,2.348,0,0,0,5.163,2.816Z" transform="translate(9.856 32.384)" fill="#046aeb"/>
      <path id="Vector-4" data-name="Vector" d="M5.163,10.325a5.163,5.163,0,1,1,5.163-5.163A5.16,5.16,0,0,1,5.163,10.325Zm0-7.509A2.347,2.347,0,1,0,7.509,5.163,2.348,2.348,0,0,0,5.163,2.816Z" transform="translate(24.874 32.384)" fill="#046aeb"/>
      <path id="Vector-5" data-name="Vector" d="M8.917,12.2H3.285A3.3,3.3,0,0,1,0,8.917V3.285A3.3,3.3,0,0,1,3.285,0H5.707a1.375,1.375,0,0,1,1.22.713l3.21,5.632a1.478,1.478,0,0,1,.188.695v3.755A1.418,1.418,0,0,1,8.917,12.2ZM3.285,2.816a.465.465,0,0,0-.469.469V8.917a.465.465,0,0,0,.469.469H7.509V7.415l-2.628-4.6Z" transform="translate(32.384 15.488)" fill="#046aeb"/>
      <path id="Vector-6" data-name="Vector" d="M8.917,17.835A8.962,8.962,0,1,1,14.793,15.6,8.925,8.925,0,0,1,8.917,17.835Zm0-15.019a6.1,6.1,0,1,0,0,12.2A6.236,6.236,0,0,0,12.954,13.5,6.1,6.1,0,0,0,8.917,2.816Z" transform="translate(0.469 0.469)" fill="#046aeb"/>
      <path id="Vector-7" data-name="Vector" d="M1.4,7.04A1.4,1.4,0,0,1,.687,4.43l1.671-.995V1.408a1.408,1.408,0,1,1,2.816,0V4.224a1.411,1.411,0,0,1-.676,1.2L2.151,6.833A1.468,1.468,0,0,1,1.4,7.04Z" transform="translate(6.109 5.632)" fill="#046aeb"/>
      <path id="Vector-8" data-name="Vector" d="M0,0H45.056V45.056H0Z" fill="none" opacity="0"/>
    </g>
  </g>
</svg>
