<?xml version="1.0" encoding="utf-8"?>
<!-- Generator: Adobe Illustrator 21.1.0, SVG Export Plug-In . SVG Version: 6.00 Build 0)  -->
<svg version="1.1" id="Layer_1" xmlns="http://www.w3.org/2000/svg" xmlns:xlink="http://www.w3.org/1999/xlink" x="0px" y="0px"
	 viewBox="0 0 331 80" height="80px" width="331px" enable-background="new 0 0 331 80" xml:space="preserve">
<g>
	<path fill="#3A54D6" d="M22.3,58.3V22.7h9.4v13.5h4.5l8.1-13.5h10.4L43.5,40.1l11.7,18.2H44.8l-8.6-13.7h-4.4v13.7H22.3z"/>
	<path fill="#3A54D6" d="M68.2,23c6.9,0,13.1,3,13.1,10.7c0,5.8-4.8,9.3-9.1,11.9c-3.7,2.2-6.6,3.9-6.6,4.8h16v7.9H54.8v-4.1
		c0-8.3,6.3-11.6,11.3-14.5c3.2-1.9,5.8-2.8,5.8-5.5c0-2.1-1.9-3.1-4.5-3.1c-3.5,0-7.7,1.4-11.5,4.3v-8.6C59.5,24.2,63.8,23,68.2,23
		z"/>
	<path fill="#3A54D6" d="M109.6,22.7c7.8,0,12.4,2.8,12.4,9c0,3.9-1.9,6.5-5.3,7.7c3.8,1.1,6.7,3.9,6.7,8.8
		c0,8.1-7.7,10.1-14.5,10.1H93.6V22.7H109.6z M109.3,43.5h-6.4v7.4h6.4c2.8,0,4.7-0.9,4.7-3.7C114,44.4,112.1,43.5,109.3,43.5z
		 M108.7,30.1H103v6.6l5.8,0.1c2.5,0,3.9-1.3,3.9-3.3C112.7,31.4,111.2,30.1,108.7,30.1z"/>
	<path fill="#3A54D6" d="M129.6,30.5c-2.6,0-4.9-1.4-4.9-4.8c0-3.3,2.3-4.7,4.9-4.7c2.6,0,4.9,1.4,4.9,4.7
		C134.5,29,132.3,30.5,129.6,30.5z M125.3,58.3V33.9h8.6v24.4H125.3z"/>
	<path fill="#3A54D6" d="M153.6,58.3l-6-9.2h-1.8v9.2h-8.6V22.7h8.6v19.7h1.9l5.3-8.5h9.7l-7.9,12l8.4,12.4H153.6z"/>
	<path fill="#3A54D6" d="M174,33.1c10.5,0,13.6,8.1,11.9,15.5h-16c1,2.7,4.3,3.8,7.8,3.8c2.7,0,5-0.4,7-1.2v6.4
		c-2.3,0.8-5.2,1.4-9,1.4c-8,0-14.5-4.6-14.5-13C161.2,36.5,168.6,33.1,174,33.1z M174.2,39.4c-2.4,0-4.4,1.6-4.4,4.1h8.2
		C178.2,42.3,177.6,39.4,174.2,39.4z"/>
	<path d="M206.5,33.1c3.6,0,6.6,0.9,9.2,2.1v6.9c-2.1-1.5-5.7-2.6-8.6-2.6c-1.1,0-2.3,0.2-2.3,1.2c0,3.4,12.8,1.4,12.8,10.5
		c0,6.1-5.5,7.9-11.6,7.9c-3.8,0-7.2-0.8-9.8-2.2V50c2.7,1.8,6.5,2.6,9.3,2.6c2.1,0,3.2-0.4,3.2-1.2c0-3.2-12.8-1.6-12.8-10.4
		C195.9,35,201,33.1,206.5,33.1z"/>
	<path d="M229.7,25v8.9h6.6V41h-6.6v7.9c0,1.9,1,3,3.2,3c1.4,0,2.6-0.2,3.9-0.6V58c-1.9,0.7-4.1,1-6.6,1c-4.7,0-9.1-1.9-9.1-8.4V41
		h-3.9v-7.1h3.9V27L229.7,25z"/>
	<path d="M251,33.1c7.3,0,13.7,4.3,13.7,13c0,8.6-6.4,13-13.7,13c-7.3,0-13.7-4.3-13.7-13C237.3,37.5,243.7,33.1,251,33.1z
		 M251,40.8c-3.6,0-4.8,2.6-4.8,5.3s1.3,5.3,4.8,5.3s4.8-2.6,4.8-5.3S254.6,40.8,251,40.8z"/>
	<path d="M283.8,33.4v8.4c-3.4-0.8-7,0.3-8.5,2.6v13.9h-8.6V33.9h7.6v3.3C276,34.8,279.1,32.9,283.8,33.4z"/>
	<path d="M296.3,33.1c10.5,0,13.6,8.1,11.9,15.5h-16c1,2.7,4.3,3.8,7.8,3.8c2.7,0,5-0.4,7-1.2v6.4c-2.3,0.8-5.2,1.4-9,1.4
		c-8,0-14.5-4.6-14.5-13C283.5,36.5,291,33.1,296.3,33.1z M296.5,39.4c-2.4,0-4.4,1.6-4.4,4.1h8.2C300.6,42.3,300,39.4,296.5,39.4z"
		/>
</g>
</svg>
